<svg width="454" height="627" viewBox="0 0 454 627" fill="none" xmlns="http://www.w3.org/2000/svg">
<g id="Character02 1" clip-path="url(#clip0)">
<path id="Vector" d="M257.331 310.229C257.331 310.229 228.691 285.229 205.406 306.474C182.12 327.719 85.914 473.614 85.914 473.614L115.012 493.736L224.142 371.008L243.138 401.584L257.331 310.229Z" fill="#FCBA9F"/>
<path id="Vector_2" fill-rule="evenodd" clip-rule="evenodd" d="M60.14 513.227C74.956 514.332 90.228 515.47 102.033 521.691C102.3 521.83 102.533 522.026 102.717 522.264C102.901 522.502 103.03 522.777 103.097 523.071C103.164 523.364 103.166 523.668 103.103 523.963C103.04 524.257 102.914 524.534 102.734 524.774L88.156 544.091C87.856 544.489 87.422 544.764 86.934 544.867C86.447 544.97 85.938 544.892 85.504 544.648L6.167 500.235C0.316999 496.96 -1.03998 492.048 0.71302 486.869C0.77602 486.693 0.889001 486.539 1.038 486.425C1.187 486.311 1.36501 486.242 1.55201 486.227C1.73901 486.212 1.92601 486.251 2.09101 486.34C2.25601 486.428 2.39301 486.563 2.48301 486.727C8.61201 497.601 18.753 505.645 30.737 509.137C39.38 511.68 49.645 512.445 60.14 513.227Z" fill="#FF796D"/>
<path id="Vector_3" fill-rule="evenodd" clip-rule="evenodd" d="M132.297 470.721L107.023 504.373C106.115 506.384 105.356 508.459 104.752 510.582C103.553 514.348 102.216 518.543 100.422 520.891C88.857 515.374 74.289 514.287 60.138 513.23C49.644 512.447 39.381 511.681 30.738 509.138C19.333 505.813 9.57401 498.361 3.36301 488.234C6.45501 482.211 14.614 479.575 25.391 484.437C44.708 493.151 55.598 497.521 72.04 489.161C74.69 487.601 77.065 485.615 79.069 483.284L104.605 445.676L132.297 470.721Z" fill="#FCBA9F"/>
<path id="Vector_4" fill-rule="evenodd" clip-rule="evenodd" d="M76.893 484.839C80.1 487.247 92.886 496.762 105.769 505.118C108.272 506.743 106.679 512.686 103.425 514.558C101.122 515.986 98.937 517.598 96.893 519.379C91.934 517.54 86.797 516.22 81.566 515.439C86.351 511.24 85.235 506.625 80.702 503.143C77.123 500.392 67.512 495.968 62.506 493.747C62.231 493.625 61.997 493.426 61.832 493.175C61.666 492.924 61.576 492.631 61.571 492.33C61.567 492.029 61.649 491.733 61.807 491.478C61.965 491.222 62.193 491.017 62.465 490.886L75.259 484.683C75.519 484.556 75.81 484.503 76.098 484.531C76.386 484.558 76.662 484.665 76.893 484.839Z" fill="white"/>
<path id="Vector_5" fill-rule="evenodd" clip-rule="evenodd" d="M10.782 497.506C18.145 504.842 24.663 506.855 24.663 506.855L35.167 488.091L20.237 480.616L10.782 497.506Z" fill="white"/>
<path id="Vector_6" d="M296.606 292.089L221.09 305.505L235.954 365.282H284.326C284.326 365.282 307.32 315.859 296.606 292.089Z" fill="#FFCCB3"/>
<g id="leg">
<path id="Vector_7" fill-rule="evenodd" clip-rule="evenodd" d="M237.846 589.387C249.842 580.621 262.207 571.585 275.228 568.667C275.521 568.6 275.825 568.598 276.12 568.66C276.414 568.722 276.691 568.848 276.932 569.028C277.173 569.208 277.372 569.438 277.515 569.703C277.658 569.968 277.742 570.26 277.76 570.56L279.187 594.718C279.216 595.216 279.065 595.707 278.76 596.101C278.455 596.496 278.018 596.766 277.529 596.862L188.332 614.492C181.755 615.792 177.537 612.932 175.514 607.853C175.448 607.678 175.434 607.487 175.473 607.304C175.513 607.121 175.604 606.953 175.736 606.82C175.869 606.688 176.037 606.596 176.22 606.557C176.403 606.517 176.594 606.531 176.769 606.597C188.486 610.901 201.422 610.45 212.81 605.338C221.038 601.67 229.349 595.596 237.846 589.387Z" fill="#FF796D"/>
<path id="Vector_8" fill-rule="evenodd" clip-rule="evenodd" d="M265.219 510.241C265.219 510.241 266.908 548.369 267.798 552.248C268.41 554.368 269.178 556.44 270.094 558.447C271.623 562.092 273.326 566.152 273.482 569.103C261.101 572.402 249.305 581.02 237.847 589.391C229.35 595.599 221.04 601.671 212.811 605.338C201.973 610.202 189.711 610.857 178.416 607.174C176.865 600.584 181.367 593.287 192.724 590C213.08 584.109 224.204 580.375 231.302 563.349C236.346 551.251 227.898 509.129 227.898 509.129L265.219 510.241Z" fill="#FFCCB3"/>
<path id="Vector_9" fill-rule="evenodd" clip-rule="evenodd" d="M232.194 556.912C236.196 556.666 252.1 555.619 267.326 553.628C270.285 553.242 272.926 558.799 271.662 562.334C270.835 564.915 270.217 567.559 269.815 570.24C264.847 572.056 260.081 574.381 255.592 577.178C256.512 570.879 252.67 568.09 246.962 568.377C242.453 568.605 232.268 571.468 227.017 573.023C226.728 573.108 226.421 573.108 226.133 573.025C225.844 572.941 225.585 572.776 225.386 572.55C225.188 572.324 225.058 572.046 225.013 571.748C224.968 571.451 225.008 571.147 225.13 570.872L230.848 557.853C230.964 557.588 231.151 557.359 231.388 557.193C231.626 557.027 231.904 556.93 232.194 556.912Z" fill="white"/>
<path id="Vector_10" fill-rule="evenodd" clip-rule="evenodd" d="M190.076 609.422C200.438 610.233 206.706 607.539 206.706 607.539L202.536 586.444L186.323 590.433L190.076 609.422Z" fill="white"/>
<path id="Vector_11" d="M230.769 364.698C247.551 364.698 261.156 351.093 261.156 334.31C261.156 317.528 247.551 303.923 230.769 303.923C213.986 303.923 200.381 317.528 200.381 334.31C200.381 351.093 213.986 364.698 230.769 364.698Z" fill="#FFCCB3"/>
<path id="Vector_12" d="M200.758 339.098L231.165 529.49L266.237 530.954L262.142 342.751L200.758 339.098Z" fill="#FFCCB3"/>
</g>
<path id="Vector_13" d="M248.393 297.326C248.393 297.326 260.031 300.91 264.835 319.892C269.639 338.873 264.397 365.282 264.397 365.282H271.881C271.881 365.282 298.565 333.946 278.933 294.009L248.393 297.326Z" fill="#FF967C"/>
<path id="Vector_14" d="M321.818 134.511L312.313 139.071C308.668 140.82 305.455 143.352 302.902 146.486C300.349 149.621 298.52 153.28 297.544 157.203L276.057 243.659L227.615 266.821L238.659 284.362L330.25 281.114L321.818 134.511Z" fill="#93E1D8"/>
<path id="Vector_15" d="M308.13 165.634C308.13 165.634 291.451 189.067 299.522 211.385C307.593 233.704 304.298 237.842 302.279 257.615C300.261 277.387 306.852 272.789 306.852 272.789L330.25 261.753C330.25 261.753 340.013 168.224 308.13 165.634Z" fill="#73B1AA"/>
<path id="Vector_16" d="M406.259 273.253C406.259 273.253 415.507 318.509 403.388 337.421C388.048 361.359 369.285 365.025 355.419 365.283H264.397C264.397 365.283 264.229 308.495 219.387 298.793C219.387 298.793 366.969 257.69 406.259 273.253Z" fill="#1F2D49"/>
<path id="Vector_17" d="M408.299 286.431L311.834 289.607L312.86 282.869L331.658 280.696H408.164L408.299 286.431Z" fill="#0D1B33"/>
<path id="Vector_18" d="M283.537 265.226C283.537 265.226 271.736 268.656 266.435 270.216C261.134 271.775 250.652 275.517 250.652 275.517L258.327 286.431L293.109 284.362L283.537 265.226Z" fill="#FFCCB3"/>
<path id="Vector_19" d="M340.724 126.44C340.724 126.44 320.915 134.278 317.89 136.697C314.866 139.117 311.994 158.863 306.852 168.239C301.711 177.615 294.189 194.92 305.175 210.816C316.162 226.711 314.993 239.333 314.993 239.333L312.655 279.207L404.296 281.995C405.13 282.021 405.959 281.87 406.73 281.552C407.501 281.233 408.196 280.755 408.768 280.148C409.341 279.541 409.777 278.82 410.05 278.031C410.323 277.243 410.425 276.406 410.35 275.575C409.298 263.95 407.532 246.581 407.154 228.069C406.642 202.981 406.259 119.153 406.259 119.153L365.014 117.858C356.706 119.291 340.724 126.44 340.724 126.44Z" fill="#93E1D8"/>
<path id="Vector_20" d="M406.259 163.659C418.549 163.659 428.512 153.696 428.512 141.406C428.512 129.116 418.549 119.153 406.259 119.153C393.969 119.153 384.006 129.116 384.006 141.406C384.006 153.696 393.969 163.659 406.259 163.659Z" fill="#93E1D8"/>
<path id="Vector_21" d="M409.261 266.381C409.261 266.381 407.357 273.338 387.007 281.469C387.007 281.469 339.3 280.432 315.597 280.93C291.894 281.429 318.138 275.176 331.369 268.579C344.6 261.982 407.755 243.659 407.755 243.659L409.261 266.381Z" fill="#73B1AA"/>
<path id="Vector_22" d="M390.026 153.42C390.026 153.42 376.228 166 375.416 175.334C374.605 184.668 372.728 210.694 354.996 213.29C333.26 216.472 327.571 219.57 337.647 222.005C347.723 224.44 370.59 220.494 370.59 230.933C370.59 238.361 379.475 243.919 383.939 239.861C388.403 235.803 423.96 174.117 390.026 153.42Z" fill="#73B1AA"/>
<path id="Vector_23" d="M428.273 144.662C426.402 153.592 408.604 247.672 408.604 247.672C408.604 247.672 406.259 261.746 392.506 265.226L296.606 289.607L279.731 264.294L366.706 234.548L384.006 141.406C384.006 141.406 430.769 132.749 428.273 144.662Z" fill="#93E1D8"/>
<path id="Vector_24" d="M338.488 109.114L339.401 139.987C339.401 139.987 339.156 145.314 345.621 144.595C352.086 143.877 365.097 139.043 368.689 132.818C372.281 126.592 370.013 124.457 370.013 124.457L350.28 85.996L338.488 109.114Z" fill="#FFCCB3"/>
<path id="Vector_25" d="M338.488 112.702L346.566 103.123L339.183 132.593L338.488 112.702Z" fill="#FF967C"/>
<path id="Vector_26" d="M345.689 33.014C345.34 27.124 346.624 21.251 349.401 16.044C353.997 7.73598 363.543 -3.75402 378.038 1.19598C392.533 6.14498 403.139 17.282 397.659 33.014C392.18 48.747 376.956 53.781 369.2 52.105C361.443 50.429 345.689 33.014 345.689 33.014Z" fill="#080B09"/>
<path id="Vector_27" d="M341.021 35.202C341.855 33.794 343.105 32.679 344.598 32.009C346.091 31.339 347.755 31.147 349.361 31.46C355.097 32.516 361.135 37.045 366.267 42.478C371.399 47.912 371.231 51.856 368.9 54.261C366.568 56.667 341.021 35.202 341.021 35.202Z" fill="#FEBB94"/>
<path id="Vector_28" d="M213.878 192.719L250.652 294.599H324.59C324.59 291.488 323.354 288.504 321.154 286.305C318.955 284.105 315.971 282.869 312.86 282.869H259.369L227.615 192.719H213.878Z" fill="#E0E0E0"/>
<path id="Vector_29" d="M213.878 192.719H114.676L153.041 294.599H250.652L213.878 192.719Z" fill="#D4DCF4"/>
<path id="Vector_30" d="M182.664 255.686C187.605 255.686 191.61 251.68 191.61 246.74C191.61 241.799 187.605 237.793 182.664 237.793C177.723 237.793 173.718 241.799 173.718 246.74C173.718 251.68 177.723 255.686 182.664 255.686Z" fill="white"/>
<path id="Vector_31" d="M298.336 71.153C298.336 71.153 301.395 100.702 315.772 114.157C325.148 122.932 333.746 120.684 346.566 103.123C358.32 87.021 359.354 79.191 359.354 79.191L346.931 51.24C346.931 51.24 296.875 44.115 298.336 71.153Z" fill="#FFCCB3"/>
<path id="Vector_32" d="M303.424 65.367C303.424 65.367 310.498 76.627 323.454 76.809C326.166 79.03 329.403 80.516 332.855 81.123C336.307 81.731 339.857 81.439 343.163 80.277C343.163 80.277 337.996 72.439 343.163 69.692C351.937 65.028 354.96 80.58 350.28 85.996C347.1 89.677 350.463 93.963 352.835 97.796C355.207 101.628 362.872 111.117 362.872 111.117C362.872 111.117 362.142 105.643 365.609 101.628C369.077 97.613 380.324 56.511 359.432 41.391C338.54 26.272 316.548 38.368 312.425 41.391C312.425 41.391 290.472 45.225 290.433 68.056C290.4 87.574 304.291 92.217 304.291 92.217L300.145 76.463C300.145 76.463 302.709 76.737 303.424 65.367Z" fill="#080B09"/>
<path id="Vector_33" d="M326.771 101.765C326.771 101.765 328.395 106.83 322.889 109.183C319.173 110.405 316.577 106.766 316.577 106.766L326.771 101.765Z" fill="#E56441"/>
<path id="Vector_34" d="M307.51 94.337C308.654 94.055 309.244 92.459 308.827 90.773C308.411 89.088 307.147 87.95 306.003 88.232C304.859 88.515 304.269 90.11 304.685 91.796C305.101 93.482 306.366 94.62 307.51 94.337Z" fill="#080B09"/>
<path id="Vector_35" d="M324.469 90.406C325.613 90.124 326.203 88.528 325.787 86.843C325.371 85.157 324.106 84.019 322.962 84.302C321.818 84.584 321.228 86.18 321.645 87.865C322.061 89.551 323.326 90.689 324.469 90.406Z" fill="#080B09"/>
<path id="Vector_36" d="M300.93 85.247L309.561 83.266C309.705 83.22 309.827 83.123 309.905 82.994C309.983 82.865 310.012 82.711 309.986 82.563C309.89 82.309 309.743 82.077 309.556 81.882C309.368 81.686 309.142 81.53 308.892 81.424C308.642 81.318 308.374 81.264 308.102 81.265C307.831 81.265 307.563 81.321 307.313 81.428L300.545 84.295C299.982 84.434 300.225 85.421 300.93 85.247Z" fill="#080B09"/>
<path id="Vector_37" d="M329.91 77.522L318.669 81.045C318.594 80.694 318.593 80.331 318.667 79.979C318.74 79.628 318.887 79.296 319.097 79.005C319.306 78.714 319.575 78.47 319.885 78.288C320.195 78.107 320.539 77.993 320.896 77.953L329.877 76.782C330.158 76.713 330.332 77.418 329.91 77.522Z" fill="#080B09"/>
<path id="Vector_38" d="M313.563 88.7L312.344 97.801L315.558 99.353" stroke="#E56441" stroke-width="0.94666" stroke-linecap="round"/>
</g>
<defs>
<clipPath id="clip0">
<rect width="454" height="627" fill="white"/>
</clipPath>
</defs>
</svg>
