<svg width="263" height="444" viewBox="0 0 263 444" fill="none" xmlns="http://www.w3.org/2000/svg">
<g id="Character05 1" clip-path="url(#clip0)">
<path id="Vector" d="M144.144 35.2446C136.713 35.2446 130.689 29.2202 130.689 21.788C130.689 14.3563 136.713 8.33142 144.144 8.33142C151.575 8.33142 157.599 14.3563 157.599 21.788C157.599 29.2202 151.575 35.2446 144.144 35.2446Z" fill="#1F2D49"/>
<path id="Vector_2" d="M156.776 18.2647C151.781 18.2647 147.732 14.2153 147.732 9.21948C147.732 4.2242 151.781 0.174805 156.776 0.174805C161.77 0.174805 165.819 4.2242 165.819 9.21948C165.819 14.2153 161.77 18.2647 156.776 18.2647Z" fill="#1F2D49"/>
<path id="Vector_3" d="M250.617 362.524C250.481 362.539 250.42 362.615 250.495 362.675C250.435 362.75 250.435 362.75 250.45 362.886C250.164 363.821 249.961 364.78 249.846 365.75L261.474 375.096L262.761 373.65C262.761 373.65 258.469 368.34 256.858 366.796C256.165 366.115 255.547 365.495 254.929 364.875C254.387 364.314 253.905 363.679 253.438 363.18C252.791 362.288 250.903 362.631 250.889 362.495C250.813 362.434 250.617 362.524 250.617 362.524Z" fill="#233B62"/>
<path id="Vector_4" d="M162.7 281.317L173.924 292.199L236.702 352.829L237.848 353.874L238.344 354.645L238.42 354.705L247.312 368.179L248.306 369.722L248.636 370.236L254.655 379.415L249.697 381.88L248.261 382.587L246.237 383.563L243.047 385.218L242.986 385.293L239.6 387.037L239.435 386.78L231.707 372.01C230.208 369.157 228.106 366.664 225.548 364.703L157.286 312.441L144.309 302.506L162.7 281.317Z" fill="#BC775C"/>
<path id="Vector_5" d="M246.451 355.207C243.442 353.809 240.064 352.56 236.763 352.754C238.753 354.497 239.66 357.599 240.975 359.86C243.681 364.515 250.618 373.165 247.073 380.515C245.082 384.646 239.51 386.84 239.435 386.78C238.503 391.021 233.882 408.288 243.093 398.279C248.237 392.689 253.34 386.718 255.906 380.792C256.958 378.362 254.733 375.938 253.641 373.886C252.245 370.782 250.155 366.67 250.419 363.234L250.479 363.158C250.631 362.921 262.558 373.6 262.761 373.65C263.17 372.986 264.124 371.645 264.124 371.645C264.124 371.645 247.024 355.42 246.451 355.207Z" fill="#FEBB94"/>
<path id="Vector_6" d="M118 411.689C117.893 411.604 117.796 411.616 117.808 411.712C117.712 411.723 117.712 411.723 117.628 411.831C116.77 412.299 115.955 412.843 115.193 413.456L116.97 428.269L118.901 428.135C118.901 428.135 119.547 421.339 119.474 419.107C119.455 418.136 119.447 417.261 119.44 416.385C119.444 415.605 119.544 414.815 119.558 414.131C119.72 413.041 118.131 411.965 118.215 411.858C118.204 411.762 118 411.689 118 411.689Z" fill="#233B62"/>
<path id="Vector_7" d="M111.938 292.154L112.352 307.782L114.833 395.027L114.921 396.575L114.737 397.473L114.748 397.569L111.684 413.42L111.315 415.218L111.192 415.816L109.076 426.587L103.809 424.882L102.288 424.383L100.157 423.665L96.721 422.616L96.6255 422.628L92.9857 421.506L93.0469 421.206L97.8506 405.244C98.7734 402.157 99.015 398.905 98.5576 395.714L86.305 310.615L83.9751 294.437L111.938 292.154Z" fill="#BC775C"/>
<path id="Vector_8" d="M120.139 403.544C118.965 400.441 117.425 397.186 114.929 395.016C115.133 397.654 113.611 400.506 112.97 403.041C111.65 408.261 110.561 419.296 102.888 422.071C98.5761 423.631 93.0587 421.303 93.0469 421.207C89.4149 423.587 74.0379 432.698 87.6211 431.986C95.2066 431.587 103.03 430.888 109.008 428.446C111.459 427.445 111.563 424.156 112.217 421.926C113.39 418.73 114.771 414.33 117.363 412.057L117.459 412.046C117.733 411.982 118.792 427.958 118.901 428.135C119.658 427.947 121.278 427.655 121.278 427.655C121.278 427.655 120.4 404.097 120.139 403.544Z" fill="#FEBB94"/>
<path id="Vector_9" d="M94.9874 174.668C94.9874 174.668 75.4664 277.871 73.9884 288.936C72.5099 300 71.5247 377.044 71.5247 377.044L136.812 372.903L121.854 282.753L123.673 242.834C123.673 242.834 125.969 282.306 127.573 288.936C129.177 295.565 185.41 364.236 185.41 364.236L215.591 328.09L167.612 264.025C167.612 264.025 162.671 232.954 161.871 216.222C160.328 183.972 155.284 175.515 155.284 175.515L94.9874 174.668Z" fill="#1F2D49"/>
<path id="Vector_10" d="M95.025 174.896L155.284 175.515L158.681 187.635L94.0067 179.196L95.025 174.896Z" fill="#0D1B33"/>
<path id="Vector_11" d="M30.1022 101.416L25.5155 95.5443C24.5551 94.1696 23.2783 93.0461 21.7919 92.2688C19.5351 91.1392 16.0745 89.0304 14.8719 86.9228C12.8791 83.5732 5.02455 74.5251 11.8373 67.4919C14.3594 64.8965 13.7294 65.5108 18.7708 65.5889C23.8122 65.6659 24.586 70.8978 27.1053 74.3228C27.1053 74.3228 27.6717 70.3723 30.4563 68.5677C33.2414 66.763 31.3931 77.7866 33.5359 81.9647C35.6781 86.1422 33.9467 87.7215 39.0223 95.0615L30.1022 101.416Z" fill="#BC775C"/>
<path id="Vector_12" d="M18.0043 66.1914L22.1005 75.4879L18.0043 66.1914Z" fill="#E56441"/>
<path id="Vector_13" d="M18.0043 66.1914L22.1005 75.4879" stroke="#E56441" stroke-width="1.03302" stroke-linecap="round"/>
<path id="Vector_14" d="M12.6605 67.8449L18.3375 77.7433L12.6605 67.8449Z" fill="#E56441"/>
<path id="Vector_15" d="M12.6605 67.8449L18.3375 77.7433" stroke="#E56441" stroke-width="1.03302" stroke-linecap="round"/>
<path id="Vector_16" d="M9.30898 74.3526L13.7839 80.2623L9.30898 74.3526Z" fill="#E56441"/>
<path id="Vector_17" d="M9.30898 74.3526L13.7839 80.2623" stroke="#E56441" stroke-width="1.03302" stroke-linecap="round"/>
<path id="Vector_18" d="M26.051 76.4298C26.051 76.4298 24.318 81.3959 24.6175 85.3092L26.051 76.4298Z" fill="#E56441"/>
<path id="Vector_19" d="M26.051 76.4298C26.051 76.4298 24.318 81.3959 24.6175 85.3092" stroke="#E56441" stroke-width="1.03302" stroke-linecap="round"/>
<path id="Vector_20" d="M101.149 85.6678C96.439 87.3005 89.8746 90.6114 88.0977 94.3062L72.4009 130.069L39.0224 91.7939L27.4346 101.417L60.7732 151.271C67.8416 161.8 78.2049 163.25 84.7759 154.579L97.8911 133.977L101.149 85.6678Z" fill="#FEBB94"/>
<path id="Vector_21" d="M94.4546 116.453C94.4546 116.453 93.0396 114.012 93.0396 126.757L84.7759 154.579L97.891 133.977C108.413 119.829 100.101 116.05 94.4546 116.453Z" fill="#FF967C"/>
<path id="Vector_22" d="M112.2 80.9766C112.2 80.9766 100.052 85.7836 98.1973 87.2674C96.3429 88.7517 94.5816 100.862 91.429 106.612C88.2758 112.362 83.6627 122.976 90.4001 132.724C97.1375 142.472 96.4204 150.214 96.4204 150.214L94.9874 174.668L153.048 175.739C153.559 175.755 154.068 175.662 154.541 175.467C155.014 175.272 155.44 174.978 155.79 174.606C156.142 174.234 156.41 173.791 156.577 173.308C156.744 172.824 156.806 172.311 156.76 171.802C156.115 164.672 153.168 154.659 152.937 143.306C152.623 127.919 150.016 76.4332 150.016 76.4332L127.095 75.7138C122.001 76.5923 112.2 80.9766 112.2 80.9766Z" fill="white"/>
<path id="Vector_23" d="M96.1647 154.579V154.578L96.299 152.287C96.3361 150.862 96.3249 149.104 96.2765 147.135C95.8775 143.996 94.5609 138.744 90.4001 132.724C83.6632 122.976 88.2758 112.362 91.429 106.612C94.5817 100.862 96.3429 88.7517 98.1973 87.2674C100.052 85.7836 105.913 83.558 105.913 83.558C105.913 83.558 106.259 94.1212 106.611 103.795C106.962 113.469 109.19 196.263 109.19 196.263H84.7759C84.7759 196.263 95.3673 161.734 96.1647 154.579Z" fill="#FEBB94"/>
<path id="Vector_24" d="M135.612 75.9808C135.612 75.9808 125.78 93.2934 121.854 110.881C117.929 128.47 127.64 187.696 126.344 195.353L171.769 198.823C171.769 198.823 155.491 177.159 154.296 156.793C153.102 136.427 151.009 95.3869 151.009 95.3869L148.773 76.5315L135.612 75.9808Z" fill="#FEBB94"/>
<path id="Vector_25" d="M142.434 97.5232C142.434 97.5232 138.872 105.208 138.374 110.932C137.877 116.657 142.778 130.195 131.905 131.787C118.575 133.738 121.47 136.252 127.648 137.746C133.827 139.239 140.957 136.226 141.468 142.607C142.267 152.603 149.246 158.212 154.296 156.793C150.909 126.384 154.899 113.123 142.434 97.5232Z" fill="#FF967C"/>
<path id="Vector_26" d="M112.096 66.1257L109.496 85.076C109.496 85.076 107.858 89.04 112.169 89.3182C116.481 89.5958 122.758 87.2539 126.597 84.1498C130.436 81.0457 130.268 80.7141 129.313 78.0738C128.358 75.4328 125.095 56.0036 125.095 56.0036L112.096 66.1257Z" fill="#BC775C"/>
<path id="Vector_27" d="M109.925 84.0329C112.225 80.8333 114.698 76.1303 116.66 72.073C117.732 69.8547 118.648 67.8359 119.297 66.3718C119.621 65.6395 119.879 65.0466 120.054 64.6363C120.055 64.6352 120.056 64.634 120.056 64.6329L112.173 67.9196L109.925 84.0329Z" fill="#93523E" stroke="#93523E"/>
<path id="Vector_28" d="M104.729 29.6272C104.729 29.6272 97.918 49.003 102.078 60.9078C104.79 68.6711 110.104 68.2468 122.593 62.092C134.043 56.4482 136.956 52.3128 136.956 52.3128L138.21 32.7644C138.21 32.7644 111.93 13.8528 104.729 29.6272Z" fill="#BC775C"/>
<path id="Vector_29" d="M115.34 32.2153C115.34 32.2153 116.444 37.1825 122.704 40.9121C126.11 42.9421 126.587 51.4748 126.587 51.4748C126.587 51.4748 127.382 45.6409 131.961 47.7092C136.54 49.7774 129.542 57.1917 125.571 58.7974C125.571 58.7974 126.039 61.2933 127.127 67.2368C127.127 67.2368 141.796 61.9245 143.497 48.2701C144.345 41.4707 146.902 20.0767 127.66 17.0237C106.611 13.6836 103.996 26.3264 101.149 36.2782C101.149 36.2782 109.437 40.6704 115.34 32.2153Z" fill="#1F2D49"/>
<path id="Vector_30" d="M113.197 56.1952L106.953 55.9007C106.958 55.9221 106.964 55.944 106.97 55.9665C107.033 56.2143 107.139 56.5482 107.315 56.8927C107.664 57.5801 108.27 58.2877 109.327 58.49C111.045 58.658 112.022 57.9948 112.578 57.3097C112.862 56.9601 113.041 56.5982 113.15 56.3234C113.167 56.2778 113.183 56.2351 113.197 56.1952Z" fill="#93523E" stroke="#93523E"/>
<path id="Vector_31" d="M105.417 46.2445C104.719 46.0579 104.376 45.0727 104.651 44.0442C104.926 43.0151 105.714 42.3323 106.413 42.5189C107.111 42.7055 107.453 43.6907 107.179 44.7198C106.904 45.7483 106.115 46.4311 105.417 46.2445Z" fill="#080B09"/>
<path id="Vector_32" d="M115.688 49.148C114.99 48.9614 114.647 47.9762 114.922 46.9471C115.197 45.9186 115.986 45.2357 116.684 45.4223C117.382 45.6089 117.725 46.5941 117.45 47.6226C117.175 48.6517 116.386 49.3346 115.688 49.148Z" fill="#080B09"/>
<path id="Vector_33" d="M104.568 39.4143L109.791 40.9025C109.881 40.9205 109.976 40.9047 110.056 40.8581C110.136 40.812 110.197 40.7378 110.227 40.6501C110.25 40.4855 110.24 40.318 110.197 40.1572C110.154 39.9965 110.078 39.8459 109.976 39.7155C109.873 39.5846 109.745 39.4761 109.598 39.3957C109.453 39.3159 109.292 39.2664 109.126 39.2507L104.643 38.7893C104.299 38.6971 104.138 39.299 104.568 39.4143Z" fill="#080B09"/>
<path id="Vector_34" d="M122.421 43.8346L115.34 42.4026C115.404 42.1918 115.511 41.9968 115.654 41.8299C115.798 41.663 115.975 41.5275 116.174 41.4331C116.372 41.3387 116.589 41.287 116.809 41.2813C117.029 41.2757 117.247 41.3162 117.451 41.3999L122.622 43.4277C122.794 43.4732 122.679 43.9032 122.421 43.8346Z" fill="#080B09"/>
<path id="Vector_35" d="M110.334 45.0059L108.346 49.438L109.019 51.4742" stroke="#93523E" stroke-width="1.03302" stroke-linecap="round"/>
<path id="Vector_36" d="M144.773 84.7512C144.773 84.7512 157.893 78.4329 160.358 82.4913C165.491 90.6002 173.773 118.845 176.528 125.42C176.974 126.617 156.65 129.919 156.65 129.919L136.67 95.8467L144.773 84.7512Z" fill="#FEBB94"/>
<path id="Vector_37" d="M149.104 103.795C141.574 103.795 135.47 97.6896 135.47 90.159C135.47 82.6284 141.574 76.5231 149.104 76.5231C156.634 76.5231 162.739 82.6284 162.739 90.159C162.739 97.6896 156.634 103.795 149.104 103.795Z" fill="#FEBB94"/>
<path id="Vector_38" d="M180.41 136.067L161.961 143.176L156.65 129.919L155.769 127.827L174.712 120.398L175.607 122.893L180.41 136.067Z" fill="#FEBB94"/>
<path id="Vector_39" d="M171.292 149.721C165.825 149.721 161.394 145.289 161.394 139.822C161.394 134.356 165.825 129.924 171.292 129.924C176.758 129.924 181.189 134.356 181.189 139.822C181.189 145.289 176.758 149.721 171.292 149.721Z" fill="#FEBB94"/>
<path id="Vector_40" d="M112.416 142.626C112.416 142.626 102.176 146.109 96.4008 143.664C96.4008 143.664 87.0536 147.754 85.724 147.057C83.5503 145.833 85.2744 143.73 85.2744 143.73C85.2744 143.73 79.222 145.428 78.3959 139.701C77.1793 131.676 88.1309 129.954 93.3144 129.357C98.4115 128.646 112.416 132.549 112.416 132.549V142.626Z" fill="#BC775C"/>
<path id="Vector_41" d="M82.9866 128.821L93.8421 129.227L83.38 132.549C83.38 132.549 79.6485 130.8 81.3878 129.31C81.8441 128.96 82.4123 128.785 82.9866 128.821Z" fill="#BC775C"/>
<path id="Vector_42" d="M85.3744 143.744L92.1393 141.33L85.3744 143.744Z" fill="#93523E"/>
<path id="Vector_43" d="M85.3744 143.744L92.1393 141.33" stroke="#93523E" stroke-width="1.03302" stroke-linecap="round"/>
<path id="Vector_44" d="M81.8509 139.066C81.8509 139.066 89.4863 136.265 91.143 136.09L81.8509 139.066Z" fill="#93523E"/>
<path id="Vector_45" d="M81.8509 139.066C81.8509 139.066 89.4863 136.265 91.143 136.09" stroke="#93523E" stroke-width="1.03302" stroke-linecap="round"/>
<path id="Vector_46" d="M80.9714 135.168C84.0032 133.681 87.2418 132.658 90.5776 132.134L80.9714 135.168Z" fill="#93523E"/>
<path id="Vector_47" d="M80.9714 135.168C84.0032 133.681 87.2418 132.658 90.5776 132.134" stroke="#93523E" stroke-width="1.03302" stroke-linecap="round"/>
<path id="Vector_48" d="M171.057 129.895C171.057 129.895 115.575 132.578 111.402 131.787L111.515 143.744L169.226 149.426L171.057 129.895Z" fill="#FEBB94"/>
<path id="Vector_49" d="M132.903 75.9808C132.903 75.9808 133.143 116.209 117.545 120.394C101.947 124.579 101.149 85.6678 101.149 85.6678" stroke="white" stroke-width="1.78858" stroke-miterlimit="10"/>
</g>
<defs>
<clipPath id="clip0">
<rect width="263" height="444" fill="white" transform="matrix(-1 0 0 1 263 0)"/>
</clipPath>
</defs>
</svg>
