<svg width="44" height="101" viewBox="0 0 44 101" fill="none" xmlns="http://www.w3.org/2000/svg">
<g clip-path="url(#clip0)">
<path d="M3.13902 100.317L1.60001 92.217C-1.51955 76.1063 -0.130872 59.447 5.61301 44.0751C11.3569 28.7032 21.233 15.2154 34.153 5.09801L40.623 -0.0019989L42.161 8.092C45.2813 24.203 43.8931 40.8627 38.1496 56.2352C32.4061 71.6076 22.5301 85.0961 9.60999 95.214L3.13902 100.317ZM33.532 18.975C25.338 27.0439 19.007 36.8065 14.9822 47.5792C10.9575 58.3518 9.33619 69.874 10.232 81.339C18.4259 73.2701 24.757 63.5075 28.7817 52.7348C32.8065 41.9622 34.4278 30.44 33.532 18.975Z" fill="#DA9EFF"/>
</g>
<defs>
<clipPath id="clip0">
<rect width="43.762" height="100.317" fill="white"/>
</clipPath>
</defs>
</svg>
