<svg width="115" height="115" viewBox="0 0 115 115" fill="none" xmlns="http://www.w3.org/2000/svg">
<g clip-path="url(#clip0)">
<path d="M68.186 114.622L68.108 114.435H46.377L46.309 114.598L45.918 114.435H45.489V114.257L25.423 105.919L25.28 106.063L24.932 105.715L24.478 105.527L24.556 105.338L9.19002 89.972L9.02501 90.04L8.86201 89.64L8.56201 89.34L8.68701 89.215L0.394012 69.129H0.194016V68.637L0.00601196 68.183L0.194016 68.105V46.377L0.030014 46.309L0.194016 45.916V45.49H0.371017L8.70901 25.422L8.56502 25.279L8.91301 24.931L9.10202 24.476L9.29001 24.554L24.656 9.18799L24.588 9.02499L24.982 8.862L25.282 8.56198L25.407 8.68799L45.493 0.393982V0.194H45.984L46.44 0.00500488L46.517 0.194H68.248L68.316 0.0299988L68.71 0.194H69.136V0.371002L89.204 8.70801L89.348 8.565L89.695 8.91299L90.15 9.10098L90.072 9.289L105.438 24.656L105.602 24.587L105.765 24.987L106.065 25.287L105.94 25.412L114.234 45.498H114.434V45.99L114.621 46.444L114.434 46.522V68.245L114.597 68.314L114.434 68.706V69.133H114.257L105.923 89.195L106.067 89.339L105.719 89.687L105.53 90.142L105.342 90.064L89.971 105.435L90.039 105.598L89.646 105.761L89.346 106.061L89.22 105.935L69.134 114.229V114.429H68.641L68.186 114.622ZM55.486 104.435H59.129V91.686L68.743 89.778L73.609 101.562L76.976 100.172L72.112 88.392L80.329 82.908L89.341 91.92L91.917 89.344L82.902 80.33L88.352 72.182L100.123 77.075L101.523 73.71L89.754 68.82L91.687 59.133H104.431V55.49H91.685L89.778 45.875L101.562 41.01L100.171 37.643L88.392 42.506L82.908 34.289L91.92 25.279L89.344 22.702L80.328 31.718L72.183 26.266L77.074 14.495L73.71 13.095L68.823 24.866L59.135 22.932V10.189H55.492V22.937L45.878 24.845L41.012 13.061L37.645 14.45L42.509 26.231L34.292 31.714L25.281 22.702L22.705 25.279L31.719 34.292L26.27 42.441L14.496 37.548L13.096 40.912L24.864 45.803L22.931 55.49H10.188V59.133H22.936L24.843 68.747L13.059 73.613L14.45 76.98L26.229 72.116L31.713 80.333L22.702 89.344L25.278 91.92L34.293 82.905L42.439 88.357L37.547 100.128L40.911 101.528L45.801 89.759L55.489 91.693L55.486 104.435Z" fill="#FF929F"/>
</g>
<defs>
<clipPath id="clip0">
<rect width="114.621" height="114.622" fill="white"/>
</clipPath>
</defs>
</svg>
