<svg id="a1" width="132" height="87" viewBox="0 0 132 87" fill="none" xmlns="http://www.w3.org/2000/svg">
<path d="M125.158 2H5.84196C3.72022 2 2 3.71164 2 5.82327V78.1772C2 80.2888 3.72022 82 5.84196 82H125.158C127.28 82 129 80.2888 129 78.1772V5.82327C129 3.71164 127.28 2 125.158 2Z" fill="#93E1D8"/>
<path d="M11 44.7708C11 44.7708 21.4817 42.5571 24.8061 47.6677C28.1305 52.7778 31.455 62.3773 38.9908 61.1327C46.5261 59.8877 50.163 34.7791 57.6983 35.0015C65.2337 35.2234 64.0352 51.6668 72.2356 51.8892C80.436 52.1111 78.1505 42.6991 83.6254 42.9565C90.2672 43.2688 89.5228 62.7762 98.1665 62.9986C106.81 63.2205 105.924 37.2246 119 37.6689" stroke="white" stroke-width="6.35676" stroke-miterlimit="10" stroke-linecap="round"/>
<path d="M14 14H35" stroke="white" stroke-width="10.0826" stroke-miterlimit="10" stroke-linecap="round"/>
<path opacity="0.4" d="M14 24H57" stroke="#001F5A" stroke-width="10.0826" stroke-miterlimit="10" stroke-linecap="round"/>
</svg>