<svg width="259" height="392" viewBox="0 0 259 392" fill="none" xmlns="http://www.w3.org/2000/svg">
<g id="Character02 1">
<g id="leg2">
<path id="Vector" d="M155.322 197.986C155.322 197.986 138.083 182.1 124.067 195.6C110.05 209.099 52.1404 301.805 52.1404 301.805L69.6555 314.591L135.345 236.606L141.394 233.491L155.322 197.986Z" fill="#FCBA9F"/>
<path id="Vector_2" fill-rule="evenodd" clip-rule="evenodd" d="M36.6261 326.976C45.5444 327.678 54.7371 328.401 61.843 332.354C62.0037 332.443 62.1439 332.567 62.2547 332.718C62.3655 332.87 62.4431 333.044 62.4834 333.231C62.5238 333.417 62.525 333.611 62.487 333.798C62.4491 333.985 62.3733 334.161 62.2649 334.313L53.4899 346.588C53.3093 346.841 53.0481 347.016 52.7544 347.081C52.4612 347.146 52.1548 347.097 51.8936 346.942L4.13791 318.721C0.616589 316.64 -0.200223 313.518 0.854968 310.228C0.89289 310.116 0.960897 310.018 1.05058 309.945C1.14027 309.873 1.24742 309.829 1.35999 309.82C1.47255 309.81 1.58511 309.835 1.68443 309.891C1.78375 309.947 1.86621 310.033 1.92039 310.137C5.60964 317.047 11.7139 322.158 18.9274 324.377C24.13 325.993 30.3088 326.479 36.6261 326.976Z" fill="#FF796D"/>
<path id="Vector_3" fill-rule="evenodd" clip-rule="evenodd" d="M80.0599 299.967L64.8466 321.35C64.3001 322.628 63.8432 323.946 63.4796 325.295C62.7579 327.688 61.9531 330.354 60.8732 331.846C53.9119 328.34 45.1429 327.65 36.6249 326.978C30.3082 326.48 24.1306 325.994 18.928 324.378C12.063 322.265 6.1887 317.53 2.45008 311.095C4.31126 307.268 9.22244 305.593 15.7095 308.682C27.3371 314.219 33.8921 316.996 43.7891 311.684C45.3843 310.693 46.8139 309.431 48.0201 307.949L63.3911 284.052L80.0599 299.967Z" fill="#FCBA9F"/>
<path id="Vector_4" fill-rule="evenodd" clip-rule="evenodd" d="M46.7103 308.938C48.6407 310.468 56.337 316.514 64.0917 321.823C65.5984 322.856 64.6395 326.632 62.6808 327.822C61.2946 328.729 59.9793 329.754 58.749 330.885C55.764 329.717 52.6718 328.878 49.5231 328.382C52.4034 325.713 51.7316 322.781 49.0031 320.568C46.8487 318.82 41.0635 316.009 38.0502 314.598C37.8847 314.52 37.7439 314.394 37.6445 314.234C37.5446 314.075 37.4904 313.889 37.4874 313.698C37.485 313.506 37.5344 313.318 37.6295 313.156C37.7246 312.993 37.8618 312.863 38.0256 312.78L45.7267 308.838C45.8832 308.758 46.0584 308.724 46.2317 308.742C46.4051 308.759 46.5712 308.827 46.7103 308.938Z" fill="white"/>
<path id="Vector_5" fill-rule="evenodd" clip-rule="evenodd" d="M6.91581 316.986C11.3479 321.648 15.2713 322.927 15.2713 322.927L21.594 311.004L12.6071 306.254L6.91581 316.986Z" fill="white"/>
</g>
<path id="Vector_6" d="M178.963 186.459L133.508 194.984L142.455 232.968H171.571C171.571 232.968 185.412 201.563 178.963 186.459Z" fill="#FFCCB3"/>
<g id="leg">
<path id="Vector_7" fill-rule="evenodd" clip-rule="evenodd" d="M143.438 375.508C150.659 369.937 158.102 364.196 165.94 362.341C166.116 362.299 166.299 362.298 166.477 362.337C166.654 362.376 166.82 362.457 166.965 362.571C167.111 362.685 167.23 362.831 167.316 363C167.402 363.168 167.453 363.354 167.464 363.544L168.323 378.895C168.34 379.211 168.249 379.523 168.066 379.774C167.882 380.025 167.619 380.196 167.325 380.257L113.634 391.46C109.675 392.286 107.136 390.469 105.918 387.241C105.879 387.13 105.87 387.009 105.894 386.893C105.918 386.776 105.973 386.669 106.052 386.585C106.132 386.501 106.233 386.443 106.343 386.418C106.454 386.392 106.569 386.401 106.674 386.443C113.727 389.178 121.513 388.892 128.368 385.643C133.321 383.313 138.324 379.453 143.438 375.508Z" fill="#FF796D"/>
<path id="Vector_8" fill-rule="evenodd" clip-rule="evenodd" d="M159.915 325.216C159.915 325.216 160.932 349.444 161.467 351.908C161.836 353.255 162.298 354.572 162.849 355.847C163.77 358.164 164.795 360.743 164.889 362.619C157.436 364.715 150.336 370.191 143.439 375.51C138.324 379.455 133.322 383.313 128.369 385.643C121.845 388.734 114.464 389.15 107.665 386.81C106.732 382.622 109.442 377.986 116.278 375.897C128.531 372.154 135.227 369.781 139.499 358.962C142.535 351.275 137.45 324.509 137.45 324.509L159.915 325.216Z" fill="#FFCCB3"/>
<path id="Vector_9" fill-rule="evenodd" clip-rule="evenodd" d="M140.036 354.872C142.445 354.716 152.018 354.05 161.183 352.785C162.964 352.54 164.554 356.071 163.793 358.317C163.295 359.957 162.923 361.637 162.681 363.341C159.691 364.495 156.822 365.972 154.12 367.75C154.674 363.747 152.361 361.975 148.925 362.157C146.211 362.302 140.081 364.121 136.92 365.109C136.746 365.163 136.561 365.163 136.388 365.111C136.214 365.057 136.058 364.952 135.938 364.809C135.819 364.665 135.741 364.489 135.714 364.299C135.686 364.11 135.711 363.917 135.784 363.743L139.226 355.47C139.296 355.302 139.408 355.156 139.551 355.051C139.694 354.945 139.862 354.883 140.036 354.872Z" fill="white"/>
<path id="Vector_10" fill-rule="evenodd" clip-rule="evenodd" d="M114.684 388.238C120.921 388.754 124.694 387.042 124.694 387.042L122.184 373.638L112.425 376.172L114.684 388.238Z" fill="white"/>
<path id="Vector_11" d="M139.178 232.734C149.28 232.734 157.469 224.089 157.469 213.425C157.469 202.761 149.28 194.116 139.178 194.116C129.076 194.116 120.887 202.761 120.887 213.425C120.887 224.089 129.076 232.734 139.178 232.734Z" fill="#FFCCB3"/>
<path id="Vector_12" d="M121.114 216.467L139.417 337.447L160.528 338.378L158.063 218.788L121.114 216.467Z" fill="#FFCCB3"/>
</g>
<path id="Vector_13" d="M149.942 189.787C149.942 189.787 156.947 192.064 159.839 204.126C162.731 216.187 159.575 232.968 159.575 232.968H164.08C164.08 232.968 180.142 213.056 168.325 187.679L149.942 189.787Z" fill="#FF967C"/>
<path id="Vector_14" d="M194.139 86.3295L188.418 89.227C186.224 90.3384 184.29 91.9473 182.753 93.9387C181.216 95.9308 180.115 98.2558 179.528 100.749L166.594 155.685L137.435 170.403L144.083 181.549L199.215 179.485L194.139 86.3295Z" fill="#93E1D8"/>
<path id="Vector_15" d="M185.9 106.106C185.9 106.106 175.86 120.996 180.718 135.177C185.577 149.36 183.593 151.989 182.378 164.553C181.163 177.117 185.131 174.195 185.131 174.195L199.215 167.183C199.215 167.183 205.091 107.752 185.9 106.106Z" fill="#73B1AA"/>
<path id="Vector_16" d="M244.967 174.49C244.967 174.49 250.534 203.247 243.239 215.264C234.005 230.475 222.711 232.804 214.365 232.968H159.575C159.575 232.968 159.474 196.884 132.482 190.719C132.482 190.719 221.317 164.601 244.967 174.49Z" fill="#1F2D49"/>
<path id="Vector_17" d="M246.195 182.864L188.13 184.882L188.747 180.6L200.062 179.219H246.114L246.195 182.864Z" fill="#0D1B33"/>
<path id="Vector_18" d="M171.097 169.389C171.097 169.389 163.993 171.569 160.802 172.56C157.611 173.551 151.302 175.929 151.302 175.929L155.922 182.864L176.858 181.549L171.097 169.389Z" fill="#FFCCB3"/>
<path id="Vector_19" d="M205.519 81.201C205.519 81.201 193.596 86.1815 191.775 87.7186C189.955 89.2563 188.226 101.803 185.131 107.761C182.036 113.719 177.508 124.715 184.121 134.816C190.735 144.916 190.031 152.936 190.031 152.936L188.624 178.273L243.786 180.045C244.288 180.061 244.787 179.966 245.251 179.763C245.715 179.561 246.133 179.257 246.477 178.871C246.822 178.486 247.085 178.027 247.249 177.526C247.413 177.025 247.475 176.494 247.43 175.966C246.796 168.579 245.733 157.542 245.506 145.779C245.198 129.837 244.967 76.5706 244.967 76.5706L220.14 75.7478C215.139 76.6583 205.519 81.201 205.519 81.201Z" fill="#93E1D8"/>
<path id="Vector_20" d="M244.967 104.851C252.365 104.851 258.362 98.5202 258.362 90.7108C258.362 82.9014 252.365 76.5706 244.967 76.5706C237.569 76.5706 231.572 82.9014 231.572 90.7108C231.572 98.5202 237.569 104.851 244.967 104.851Z" fill="#93E1D8"/>
<path id="Vector_21" d="M246.774 170.123C246.774 170.123 245.628 174.544 233.379 179.711C233.379 179.711 204.662 179.052 190.395 179.368C176.127 179.685 191.924 175.712 199.888 171.52C207.852 167.328 245.868 155.685 245.868 155.685L246.774 170.123Z" fill="#73B1AA"/>
<path id="Vector_22" d="M235.196 98.3448C235.196 98.3448 226.89 106.338 226.402 112.27C225.914 118.201 224.784 134.738 214.11 136.388C201.027 138.41 197.602 140.378 203.667 141.926C209.732 143.473 223.497 140.965 223.497 147.599C223.497 152.319 228.845 155.85 231.532 153.272C234.219 150.693 255.622 111.496 235.196 98.3448Z" fill="#73B1AA"/>
<path id="Vector_23" d="M258.218 92.7797C257.092 98.4541 246.379 158.235 246.379 158.235C246.379 158.235 244.967 167.178 236.689 169.389L178.963 184.882L168.806 168.797L221.159 149.896L231.572 90.7108C231.572 90.7108 259.721 85.2099 258.218 92.7797Z" fill="#93E1D8"/>
<path id="Vector_24" d="M204.173 70.1916L204.723 89.8091C204.723 89.8091 204.576 93.1941 208.467 92.7372C212.359 92.2809 220.19 89.2093 222.352 85.2538C224.515 81.2976 223.149 79.9409 223.149 79.9409L211.271 55.5018L204.173 70.1916Z" fill="#FFCCB3"/>
<path id="Vector_25" d="M204.173 72.4715L209.036 66.3847L204.592 85.1108L204.173 72.4715Z" fill="#FF967C"/>
<path id="Vector_26" d="M208.508 21.8355C208.298 18.0929 209.071 14.361 210.742 11.0523C213.509 5.77318 219.255 -1.52788 227.98 1.61748C236.705 4.76222 243.089 11.839 239.791 21.8355C236.493 31.8327 227.329 35.0315 222.66 33.9665C217.991 32.9015 208.508 21.8355 208.508 21.8355Z" fill="#080B09"/>
<path id="Vector_27" d="M205.698 23.2258C206.2 22.3312 206.953 21.6227 207.851 21.1969C208.75 20.7712 209.752 20.6492 210.718 20.8481C214.171 21.5191 217.805 24.3969 220.895 27.8492C223.984 31.3021 223.883 33.8082 222.479 35.3365C221.076 36.8653 205.698 23.2258 205.698 23.2258Z" fill="#FEBB94"/>
<path id="Vector_28" d="M129.166 123.316L151.302 188.054H195.808C195.808 186.077 195.064 184.181 193.739 182.784C192.416 181.386 190.62 180.6 188.747 180.6H156.549L137.435 123.316H129.166Z" fill="#E0E0E0"/>
<path id="Vector_29" d="M129.166 123.316H69.4533L92.5465 188.054H151.302L129.166 123.316Z" fill="#D4DCF4"/>
<path id="Vector_30" d="M110.378 163.327C113.352 163.327 115.762 160.782 115.762 157.643C115.762 154.503 113.352 151.958 110.378 151.958C107.403 151.958 104.993 154.503 104.993 157.643C104.993 160.782 107.403 163.327 110.378 163.327Z" fill="white"/>
<path id="Vector_31" d="M180.005 46.0701C180.005 46.0701 181.846 64.8464 190.5 73.396C196.144 78.9719 201.319 77.5435 209.036 66.3847C216.111 56.1531 216.733 51.1777 216.733 51.1777L209.256 33.4169C209.256 33.4169 179.125 28.8894 180.005 46.0701Z" fill="#FFCCB3"/>
<path id="Vector_32" d="M183.067 42.3935C183.067 42.3935 187.325 49.5484 195.124 49.6641C196.756 51.0754 198.705 52.0196 200.783 52.4053C202.861 52.7917 204.997 52.6061 206.987 51.8678C206.987 51.8678 203.877 46.8873 206.987 45.1418C212.269 42.1781 214.088 52.0603 211.271 55.5018C209.357 57.8408 211.382 60.5642 212.809 62.9998C214.237 65.4348 218.851 71.4643 218.851 71.4643C218.851 71.4643 218.412 67.986 220.498 65.4348C222.586 62.8835 229.356 36.7662 216.78 27.1585C204.205 17.5515 190.967 25.2376 188.485 27.1585C188.485 27.1585 175.271 29.5947 175.247 44.1022C175.228 56.5045 183.589 59.4548 183.589 59.4548L181.093 49.4442C181.093 49.4442 182.637 49.6183 183.067 42.3935Z" fill="#080B09"/>
<path id="Vector_33" d="M197.121 65.5218C197.121 65.5218 198.098 68.7402 194.784 70.2354C192.547 71.0119 190.984 68.6996 190.984 68.6996L197.121 65.5218Z" fill="#E56441"/>
<path id="Vector_34" d="M185.527 60.8018C186.215 60.6226 186.57 59.6085 186.319 58.5372C186.069 57.4665 185.308 56.7434 184.62 56.9226C183.931 57.1024 183.576 58.1159 183.826 59.1872C184.077 60.2585 184.838 60.9817 185.527 60.8018Z" fill="#080B09"/>
<path id="Vector_35" d="M195.735 58.304C196.423 58.1248 196.779 57.1106 196.528 56.0399C196.278 54.9686 195.516 54.2455 194.828 54.4253C194.139 54.6045 193.784 55.6187 194.035 56.6893C194.285 57.7607 195.047 58.4838 195.735 58.304Z" fill="#080B09"/>
<path id="Vector_36" d="M181.566 55.0258L186.761 53.767C186.848 53.7378 186.921 53.6762 186.968 53.5942C187.015 53.5122 187.033 53.4144 187.017 53.3203C186.959 53.1589 186.871 53.0115 186.758 52.8876C186.645 52.7631 186.509 52.6639 186.359 52.5966C186.208 52.5292 186.047 52.4949 185.883 52.4955C185.72 52.4955 185.559 52.5311 185.408 52.5991L181.334 54.4209C180.995 54.5092 181.142 55.1364 181.566 55.0258Z" fill="#080B09"/>
<path id="Vector_37" d="M199.01 50.1171L192.244 52.3557C192.199 52.1327 192.198 51.9021 192.242 51.6784C192.286 51.4553 192.375 51.2444 192.501 51.0595C192.627 50.8746 192.789 50.7195 192.976 50.6039C193.162 50.4889 193.369 50.4164 193.584 50.391L198.99 49.6469C199.159 49.6031 199.264 50.0511 199.01 50.1171Z" fill="#080B09"/>
<path id="Vector_38" d="M189.17 57.2199L188.436 63.003L190.371 63.9892" stroke="#E56441" stroke-width="0.94666" stroke-linecap="round"/>
</g>
</svg>
