<svg width="876" height="857" viewBox="0 0 876 857" fill="none" xmlns="http://www.w3.org/2000/svg">
<g id="Character08 1" clip-path="url(#clip0_47_2)">
<g id="Group 5">
<path id="Vector" opacity="0.6" d="M318.315 518.065H307.547" stroke="white" stroke-width="6" stroke-miterlimit="10" stroke-linecap="round"/>
<path id="Vector_2" d="M40.162 705.853C40.384 705.877 40.483 706 40.36 706.099C40.459 706.221 40.459 706.221 40.434 706.443C40.901 707.967 41.2299 709.53 41.4189 711.113L22.457 726.352L20.3589 723.993C20.3589 723.993 27.356 715.336 29.985 712.819C31.115 711.708 32.1229 710.697 33.1299 709.685C34.0139 708.772 34.799 707.736 35.561 706.922C36.616 705.467 39.695 706.026 39.719 705.804C39.842 705.706 40.162 705.853 40.162 705.853Z" fill="#233B62"/>
<path id="Vector_3" d="M183.527 573.442L165.225 591.186L62.8516 690.045L60.9835 691.748L60.1746 693.006L60.0515 693.104L45.5505 715.074L43.9305 717.588L43.3915 718.427L33.5765 733.394L41.6605 737.414L44.0026 738.566L47.3046 740.158L52.5056 742.855L52.6046 742.977L58.1255 745.821L58.3956 745.402L70.9976 721.319C73.4426 716.668 76.8695 712.603 81.0405 709.405L192.357 624.191L213.519 607.992L183.527 573.442Z" fill="#FFCCB3"/>
<path id="Vector_4" d="M46.9549 693.921C51.8619 691.643 57.3699 689.605 62.7529 689.922C59.5069 692.765 58.0289 697.823 55.8849 701.509C51.4719 709.099 40.1609 723.202 45.9399 735.188C49.1869 741.923 58.2729 745.501 58.3959 745.402C59.9159 752.318 67.4519 780.473 52.4309 764.152C44.0429 755.038 35.7209 745.302 31.5369 735.639C29.8219 731.677 33.4499 727.724 35.2299 724.379C37.5079 719.317 40.9149 712.613 40.4849 707.01L40.3859 706.887C40.1389 706.499 20.6889 723.912 20.3589 723.994C19.6919 722.911 18.1359 720.724 18.1359 720.724C18.1359 720.724 46.0209 694.268 46.9549 693.921Z" fill="#1C85E8"/>
<path id="Vector_5" d="M256.421 786.017C256.596 785.879 256.753 785.898 256.734 786.055C256.89 786.074 256.89 786.074 257.028 786.249C258.427 787.012 259.756 787.899 260.998 788.898L258.1 813.052L254.951 812.833C254.951 812.833 253.898 801.751 254.017 798.114C254.048 796.53 254.061 795.102 254.073 793.675C254.067 792.404 253.904 791.114 253.879 789.999C253.616 788.221 256.208 786.468 256.07 786.293C256.089 786.136 256.421 786.017 256.421 786.017Z" fill="#233B62"/>
<path id="Vector_6" d="M266.306 591.111L265.631 616.594L261.586 758.851L261.441 761.374L261.742 762.839L261.723 762.995L266.721 788.841L267.321 791.771L267.522 792.747L270.972 810.309L279.563 807.529L282.042 806.715L285.516 805.544L291.12 803.835L291.276 803.854L297.212 802.025L297.111 801.537L289.278 775.51C287.773 770.475 287.38 765.172 288.126 759.97L308.106 621.213L311.906 594.835L266.306 591.111Z" fill="#FFCCB3"/>
<path id="Vector_7" d="M252.933 772.737C254.847 767.678 257.359 762.369 261.429 758.832C261.097 763.133 263.577 767.783 264.623 771.917C266.775 780.428 268.552 798.42 281.065 802.946C288.096 805.489 297.093 801.693 297.112 801.537C303.035 805.418 328.11 820.273 305.96 819.111C293.59 818.462 280.833 817.322 271.085 813.34C267.088 811.708 266.917 806.345 265.851 802.709C263.939 797.498 261.687 790.323 257.461 786.618L257.304 786.599C256.856 786.495 255.13 812.543 254.951 812.833C253.717 812.526 251.075 812.051 251.075 812.051C251.075 812.051 252.508 773.639 252.933 772.737Z" fill="#1C85E8"/>
<path id="Vector_8" d="M293.887 399.918L330.076 552.738L330.142 563.587L300.715 744.541L253.861 739.469L267.453 566.648L230.176 476.477L237.712 402.531L293.887 399.918Z" fill="#1F2D49"/>
<path id="Vector_9" d="M298.953 589.857C281.477 589.857 267.309 575.689 267.309 558.213C267.309 540.736 281.477 526.569 298.953 526.569C316.43 526.569 330.597 540.736 330.597 558.213C330.597 575.689 316.43 589.857 298.953 589.857Z" fill="#1F2D49"/>
<path id="Vector_10" d="M255.576 537.919L264.501 462.414L267.453 566.648L255.576 537.919Z" fill="#0D1B33"/>
<path id="Vector_11" d="M196.203 399.442C196.203 399.442 179.329 427.787 179.107 451.526C178.775 487.154 191.616 551.036 191.616 551.036L79.436 664.433L106.138 704.481C106.138 704.481 201.871 625.049 242.376 587.321L251.449 568.951L264.501 462.415L244.551 399.442H196.203Z" fill="#1F2D49"/>
<path id="Vector_12" d="M293.887 399.918L195.622 400.928L186.073 420.69L295.547 406.931L293.887 399.918Z" fill="#0D1B33"/>
<path id="Vector_13" d="M220.086 596.503C202.61 596.503 188.443 582.336 188.443 564.859C188.443 547.383 202.61 533.215 220.086 533.215C237.563 533.215 251.73 547.383 251.73 564.859C251.73 582.336 237.563 596.503 220.086 596.503Z" fill="#1F2D49"/>
<path id="Vector_14" d="M305.358 189.918C305.358 189.918 304.039 204.608 307.915 218.727C311.791 232.847 341.137 262.748 315.113 287.111C289.088 311.475 257.25 246.136 257.25 246.136L267.217 215.959L301.683 180.1L305.358 189.918Z" fill="#1F2D49"/>
<path id="Vector_15" d="M225.957 193.347C225.957 193.347 218.146 203.27 200.356 211.379C182.893 219.339 164.087 232.42 167.963 260.936C171.839 289.453 223.459 267.304 238.624 250.969C253.789 234.635 251.702 205.471 251.702 205.471L225.957 193.347Z" fill="#1F2D49"/>
<path id="Vector_16" d="M265.879 246.78C265.879 246.78 285.688 254.618 288.713 257.038C291.737 259.457 294.609 279.204 299.751 288.58C304.892 297.956 312.414 315.261 301.428 331.156C290.442 347.051 291.61 359.674 291.61 359.674L293.948 399.548L199.268 401.293C198.434 401.319 197.604 401.168 196.833 400.849C196.062 400.531 195.368 400.053 194.796 399.446C194.223 398.839 193.786 398.117 193.514 397.329C193.241 396.541 193.139 395.704 193.214 394.873C194.266 383.248 199.072 366.921 199.449 348.41C199.961 323.321 200.344 239.493 200.344 239.493L241.589 238.199C249.897 239.631 265.879 246.78 265.879 246.78Z" fill="#FEBB94"/>
<path id="Vector_17" d="M216.577 273.76C216.577 273.76 230.375 286.341 231.187 295.675C231.998 305.009 233.875 331.034 251.607 333.63C273.343 336.812 279.032 339.91 268.956 342.345C258.88 344.78 236.013 340.835 236.013 351.273C236.013 358.702 227.128 364.26 222.664 360.201C218.2 356.143 182.643 294.458 216.577 273.76Z" fill="#FF967C"/>
<path id="Vector_18" d="M382.988 284.305L390.468 274.731C392.033 272.489 394.116 270.657 396.539 269.39C400.22 267.548 405.863 264.11 407.824 260.673C411.074 255.211 423.882 240.459 412.772 228.991C408.659 224.759 409.687 225.76 401.466 225.887C393.245 226.013 391.983 234.544 387.875 240.129C387.875 240.129 386.952 233.687 382.411 230.745C377.869 227.802 380.883 245.776 377.389 252.588C373.896 259.4 376.719 261.976 368.442 273.943L382.988 284.305Z" fill="#FFCCB3"/>
<path id="Vector_19" d="M402.717 226.87L396.036 242.027L402.717 226.87Z" fill="#E56441"/>
<path id="Vector_20" d="M402.717 226.87L396.036 242.027" stroke="#E56441" stroke-width="0.94666" stroke-linecap="round"/>
<path id="Vector_21" d="M411.43 229.565L402.173 245.705L411.43 229.565Z" fill="#E56441"/>
<path id="Vector_22" d="M411.43 229.565L402.173 245.705" stroke="#E56441" stroke-width="0.94666" stroke-linecap="round"/>
<path id="Vector_23" d="M416.896 240.177L409.599 249.813L416.896 240.177Z" fill="#E56441"/>
<path id="Vector_24" d="M416.896 240.177L409.599 249.813" stroke="#E56441" stroke-width="0.94666" stroke-linecap="round"/>
<path id="Vector_25" d="M389.594 243.564C389.594 243.564 392.421 251.661 391.932 258.042L389.594 243.564Z" fill="#E56441"/>
<path id="Vector_26" d="M389.594 243.564C389.594 243.564 392.421 251.661 391.932 258.042" stroke="#E56441" stroke-width="0.94666" stroke-linecap="round"/>
<path id="Vector_27" d="M283.9 254.429C291.58 257.091 302.285 262.49 305.183 268.514L330.78 326.826L373.409 262.053L389.552 279.055L349.741 361.397C342.466 379.503 323.986 386.306 310.6 366.791L289.212 333.199L283.9 254.429Z" fill="#FEBB94"/>
<path id="Vector_28" d="M294.816 304.627C294.816 304.627 297.124 300.645 297.124 321.427L310.599 366.792L289.212 333.199C272.054 310.131 285.609 303.969 294.816 304.627Z" fill="#FF967C"/>
<path id="Vector_29" d="M247.888 277.113L318.596 305.277C320.793 306.152 321.864 308.643 320.989 310.84L285.599 399.688C284.724 401.884 282.234 402.956 280.037 402.081L209.329 373.917C207.132 373.041 206.061 370.551 206.936 368.354L242.326 279.506C243.201 277.309 245.691 276.238 247.888 277.113Z" fill="#1C85E8"/>
<path id="Vector_30" d="M307.807 313.635L278.65 302.021" stroke="white" stroke-width="4" stroke-miterlimit="10" stroke-linecap="round"/>
<path id="Vector_31" d="M303.404 324.073L290.114 318.779" stroke="white" stroke-width="4" stroke-miterlimit="10" stroke-linecap="round"/>
<path id="Vector_32" d="M268.386 225.894L267.273 257.062C267.273 257.062 268.797 263.888 261.793 263.13C254.788 262.373 245.357 256.858 240.056 250.799C234.755 244.741 235.117 244.255 237.389 240.28C239.661 236.304 250.327 206.004 250.327 206.004L268.386 225.894Z" fill="#FFCCB3"/>
<path id="Vector_33" d="M268.227 228.508L255.311 220.283C255.311 220.283 261.034 245.4 267.273 257.062L268.227 228.508Z" fill="#FCBA9F"/>
<path id="Vector_34" d="M303.052 179.249C303.052 179.249 303.258 210.269 289.875 225.879C281.147 236.059 271.966 234.71 256.651 217.95C242.609 202.583 240.64 194.573 240.64 194.573L250.336 164.141C250.336 164.141 301.475 151.019 303.052 179.249Z" fill="#FFCCB3"/>
<path id="Vector_35" d="M289.734 172.053C289.734 172.053 284.129 185.667 273.718 189.471C263.307 193.275 260.584 200.348 260.584 200.348C260.584 200.348 258.587 188.709 250.405 189.132C242.223 189.556 243.885 204.001 248.964 208.797C248.964 208.797 242.855 220.127 237.674 228.508L214.988 205.992C214.988 205.992 226.677 192.479 229.247 181.606C231.817 170.733 240.135 141.624 271.846 143.552C309.078 145.816 306.939 176.07 305.358 192.874C305.358 192.874 293.682 188.398 289.734 172.053Z" fill="#1F2D49"/>
<path id="Vector_36" d="M285.704 216.287L276.654 211.847C276.646 211.899 276.638 211.953 276.631 212.01C276.569 212.485 276.541 213.138 276.671 213.855C276.925 215.259 277.789 216.961 280.361 218.068C282.012 218.603 283.42 218.074 284.453 217.372C284.971 217.02 285.384 216.63 285.667 216.327C285.68 216.313 285.692 216.3 285.704 216.287Z" fill="#E56441" stroke="#E56441"/>
<path id="Vector_37" d="M295.564 203.69C294.42 203.408 293.83 201.812 294.246 200.126C294.662 198.44 295.927 197.303 297.071 197.585C298.215 197.868 298.805 199.463 298.389 201.149C297.972 202.835 296.708 203.972 295.564 203.69Z" fill="#080B09"/>
<path id="Vector_38" d="M278.604 199.76C277.46 199.477 276.87 197.882 277.286 196.196C277.703 194.51 278.967 193.372 280.111 193.655C281.255 193.937 281.845 195.533 281.429 197.218C281.013 198.904 279.748 200.042 278.604 199.76Z" fill="#080B09"/>
<path id="Vector_39" d="M302.144 194.6L293.513 192.619C293.369 192.573 293.247 192.476 293.169 192.347C293.09 192.218 293.062 192.065 293.088 191.916C293.184 191.662 293.33 191.43 293.518 191.235C293.706 191.039 293.932 190.883 294.182 190.777C294.431 190.671 294.7 190.617 294.971 190.618C295.243 190.618 295.511 190.674 295.76 190.781L302.528 193.648C303.092 193.788 302.848 194.774 302.144 194.6Z" fill="#080B09"/>
<path id="Vector_40" d="M273.164 186.875L284.405 190.398C284.48 190.047 284.481 189.684 284.407 189.332C284.333 188.981 284.187 188.649 283.977 188.358C283.767 188.067 283.499 187.823 283.189 187.641C282.879 187.46 282.534 187.346 282.178 187.306L273.196 186.135C272.915 186.066 272.741 186.771 273.164 186.875Z" fill="#080B09"/>
<path id="Vector_41" d="M289.51 198.053L290.729 207.154L287.514 208.706" fill="#E56441"/>
<path id="Vector_42" d="M289.51 198.053L290.729 207.154L287.514 208.706" stroke="#E56441" stroke-width="0.94666" stroke-linecap="round"/>
<path id="Vector_43" d="M280.954 357.629L308.832 365.627L312.24 382.806L305.897 401.819C305.897 401.819 301.438 398.819 302.368 391.821C303.298 384.823 279.74 385.023 275.423 376.225" fill="#FFCCB3"/>
<path id="Vector_44" d="M217.272 262.942C217.272 262.942 217.455 239.328 198.537 239.326C185.854 239.324 179.78 245.272 178.163 263.836C177.033 276.816 176.214 348.028 176.214 348.028C176.214 348.028 173.023 380.529 200.589 381.137L280.195 378.752L281.992 356.511L212.599 349.594L217.272 262.942Z" fill="#FEBB94"/>
<path id="Vector_45" d="M274.836 259.99C274.836 259.99 267.657 257.946 268.821 250.895C269.955 243.956 269.999 237.933 267.722 238.771C267.722 238.771 265.714 242.217 253.221 238.388C240.809 234.702 241.587 230.443 241.587 230.443C241.587 230.443 239.831 228.887 238.519 232.881C237.209 236.876 233.884 247.935 226.855 247.139L224.956 267.754L262.338 280.06C262.42 280.203 279.699 263.465 274.836 259.99Z" fill="#FEBB94"/>
<path id="Vector_46" d="M330.826 326.805L318.856 344.59L325.239 314.205L330.826 326.805Z" fill="#FF967C"/>
</g>
<g id="bulle1">
<rect id="Rectangle 12" x="461.267" y="64.8206" width="284.471" height="97.7826" rx="48.8913" transform="rotate(-10.076 461.267 64.8206)" fill="#FFCEB1"/>
<path id="Wieee" d="M573.626 76.0071C574.095 75.9237 574.504 75.9892 574.852 76.2035C575.201 76.4177 575.417 76.7592 575.501 77.2278L575.516 77.8984L570.132 112.007C570.085 112.326 569.943 112.593 569.705 112.808C569.5 113.017 569.247 113.149 568.946 113.202C568.176 113.339 567.617 113.11 567.27 112.516L554.772 92.6195L549.896 115.605C549.708 116.294 549.262 116.701 548.559 116.826C548.258 116.88 547.959 116.847 547.661 116.727C547.397 116.601 547.205 116.394 547.084 116.104L530.275 85.9409C530.138 85.7579 530.053 85.566 530.017 85.3651C529.934 84.8965 530.035 84.4985 530.323 84.1712C530.637 83.8045 530.995 83.5854 531.397 83.514C531.732 83.4545 532.048 83.4846 532.346 83.6044C532.643 83.7241 532.869 83.9257 533.023 84.2092L547.97 111.181L552.666 88.6426C552.848 87.9195 553.26 87.5182 553.902 87.4386C554.231 87.3456 554.531 87.3787 554.801 87.5379C555.098 87.6577 555.341 87.8563 555.528 88.1338L567.654 107.682L572.289 77.2289C572.444 76.5453 572.89 76.138 573.626 76.0071ZM589.608 107.975C589.685 108.411 589.6 108.806 589.352 109.16C589.132 109.476 588.804 109.672 588.369 109.75C587.934 109.827 587.542 109.758 587.193 109.544C586.872 109.291 586.672 108.946 586.595 108.511L582.489 85.413C582.412 84.9779 582.483 84.6026 582.703 84.2872C582.951 83.9323 583.292 83.7162 583.728 83.6389C584.163 83.5615 584.541 83.6497 584.862 83.9033C585.211 84.1176 585.424 84.4423 585.502 84.8775L589.608 107.975ZM583.13 80.2746C582.46 80.3936 581.914 80.3352 581.493 80.0994C581.065 79.8301 580.797 79.3942 580.69 78.7916L580.601 78.2895C580.494 77.687 580.598 77.2023 580.912 76.8356C581.255 76.4294 581.76 76.1668 582.43 76.0478C583.769 75.8098 584.549 76.3101 584.769 77.5486L584.858 78.0508C584.965 78.6533 584.864 79.1547 584.556 79.5549C584.274 79.9157 583.799 80.1556 583.13 80.2746ZM616.85 89.9237C616.921 90.3254 616.833 90.7036 616.586 91.0585C616.332 91.3798 616.004 91.5762 615.603 91.6476L596.622 95.0217C596.979 97.0302 597.702 98.7665 598.791 100.23C599.908 101.655 601.303 102.702 602.976 103.372C604.676 104.002 606.564 104.132 608.64 103.763C610.246 103.478 611.626 102.887 612.779 101.991C613.932 101.096 614.802 100.061 615.387 98.8861C615.702 98.5193 616.026 98.3062 616.361 98.2467C616.696 98.1872 617.021 98.2675 617.336 98.4877C617.652 98.7079 617.839 98.9854 617.899 99.3202C617.964 99.6884 617.859 100.07 617.584 100.464C616.745 101.96 615.58 103.272 614.088 104.401C612.63 105.523 610.997 106.245 609.19 106.566C606.612 107.025 604.238 106.877 602.066 106.123C599.895 105.37 598.081 104.104 596.625 102.325C595.164 100.513 594.201 98.3011 593.737 95.6901C593.249 92.9451 593.359 90.4564 594.067 88.224C594.803 85.9522 595.979 84.12 597.596 82.7274C599.208 81.3014 601.034 80.4069 603.076 80.0439C605.085 79.6869 607.043 79.8223 608.95 80.4501C610.891 81.072 612.574 82.1886 614 83.7999C615.426 85.4112 616.376 87.4525 616.85 89.9237ZM603.594 82.9562C601.652 83.3014 599.964 84.2922 598.528 85.9288C597.126 87.5594 596.414 89.6717 596.391 92.2656L613.514 89.2218L613.442 88.8201C613.007 87.3434 612.273 86.1272 611.24 85.1713C610.2 84.1819 608.994 83.5157 607.621 83.1728C606.275 82.7904 604.933 82.7182 603.594 82.9562ZM644.752 84.9637C644.823 85.3654 644.735 85.7437 644.487 86.0985C644.233 86.4199 643.906 86.6163 643.504 86.6877L624.524 90.0618C624.881 92.0703 625.604 93.8065 626.693 95.2705C627.809 96.6951 629.204 97.7421 630.877 98.4117C632.578 99.0417 634.466 99.1723 636.541 98.8034C638.148 98.5177 639.528 97.9271 640.681 97.0315C641.834 96.1358 642.703 95.1007 643.289 93.9261C643.603 93.5594 643.928 93.3463 644.263 93.2868C644.597 93.2272 644.923 93.3076 645.238 93.5278C645.553 93.748 645.741 94.0255 645.8 94.3602C645.866 94.7284 645.761 95.1097 645.486 95.5039C644.646 96.9999 643.481 98.3121 641.99 99.4406C640.532 100.563 638.899 101.285 637.091 101.606C634.514 102.065 632.139 101.917 629.968 101.163C627.796 100.41 625.983 99.1436 624.527 97.3649C623.065 95.5528 622.102 93.3412 621.638 90.7301C621.15 87.9852 621.26 85.4965 621.968 83.2641C622.704 80.9922 623.881 79.16 625.498 77.7675C627.109 76.3415 628.936 75.447 630.978 75.084C632.986 74.7269 634.944 74.8623 636.851 75.4902C638.792 76.1121 640.476 77.2287 641.902 78.84C643.328 80.4513 644.278 82.4925 644.752 84.9637ZM631.495 77.9963C629.554 78.3414 627.865 79.3323 626.429 80.9688C625.027 82.5994 624.315 84.7117 624.293 87.3057L641.415 84.2618L641.344 83.8601C640.909 82.3835 640.174 81.1672 639.141 80.2113C638.102 79.2219 636.896 78.5558 635.522 78.2128C634.177 77.8304 632.834 77.7583 631.495 77.9963ZM672.653 80.0038C672.724 80.4055 672.636 80.7837 672.388 81.1386C672.135 81.4599 671.807 81.6563 671.405 81.7277L652.425 85.1018C652.782 87.1103 653.505 88.8466 654.594 90.3106C655.711 91.7351 657.105 92.7822 658.778 93.4517C660.479 94.0818 662.367 94.2124 664.442 93.8434C666.049 93.5578 667.429 92.9671 668.582 92.0715C669.735 91.1759 670.605 90.1408 671.19 88.9662C671.505 88.5994 671.829 88.3863 672.164 88.3268C672.499 88.2673 672.824 88.3476 673.139 88.5678C673.455 88.788 673.642 89.0655 673.702 89.4002C673.767 89.7685 673.662 90.1497 673.387 90.544C672.548 92.0399 671.383 93.3521 669.891 94.4806C668.433 95.6031 666.8 96.3251 664.993 96.6464C662.415 97.1046 660.04 96.9569 657.869 96.2033C655.698 95.4498 653.884 94.1836 652.428 92.405C650.967 90.5928 650.004 88.3812 649.539 85.7702C649.051 83.0252 649.162 80.5365 649.87 78.3041C650.606 76.0323 651.782 74.2001 653.399 72.8075C655.011 71.3815 656.837 70.487 658.879 70.124C660.888 69.767 662.846 69.9024 664.753 70.5302C666.694 71.1521 668.377 72.2687 669.803 73.88C671.229 75.4913 672.179 77.5326 672.653 80.0038ZM659.397 73.0363C657.455 73.3815 655.767 74.3723 654.331 76.0089C652.929 77.6395 652.216 79.7517 652.194 82.3457L669.317 79.3019L669.245 78.9002C668.81 77.4235 668.076 76.2073 667.043 75.2514C666.003 74.262 664.797 73.5958 663.424 73.2529C662.078 72.8705 660.736 72.7983 659.397 73.0363Z" fill="#FFFAFA"/>
</g>
<g id="bulle2">
<rect id="Rectangle 13" x="525.574" y="184.1" width="284.471" height="97.7826" rx="48.8913" transform="rotate(-1.37472 525.574 184.1)" fill="#93E1D8"/>
<path id="Strong" d="M608.453 249.711C606.006 249.769 603.82 249.413 601.897 248.643C600.009 247.872 598.16 246.641 596.351 244.949C595.935 244.619 595.721 244.216 595.71 243.74C595.7 243.333 595.844 242.955 596.142 242.608C596.473 242.26 596.843 242.081 597.251 242.071C597.659 242.061 598.037 242.222 598.385 242.554C601.106 245.414 604.455 246.796 608.432 246.701C610.879 246.643 612.888 246.016 614.458 244.823C616.062 243.628 616.841 242.096 616.797 240.226C616.762 238.765 616.325 237.568 615.486 236.636C614.681 235.669 613.625 234.895 612.319 234.314C611.013 233.733 609.349 233.143 607.328 232.545C605.137 231.952 603.285 231.282 601.771 230.536C600.29 229.789 599.076 228.781 598.127 227.511C597.178 226.207 596.679 224.553 596.631 222.547C596.588 220.746 597.026 219.137 597.944 217.721C598.896 216.303 600.23 215.183 601.945 214.36C603.693 213.502 605.705 213.046 607.983 212.991C610.056 212.942 612.002 213.252 613.821 213.923C615.673 214.559 617.158 215.51 618.276 216.775C618.8 217.341 619.067 217.828 619.076 218.236C619.085 218.609 618.924 218.97 618.592 219.318C618.26 219.632 617.889 219.794 617.481 219.804C617.142 219.812 616.85 219.7 616.606 219.468C615.662 218.402 614.418 217.548 612.872 216.904C611.326 216.261 609.72 215.96 608.055 215.999C605.573 216.059 603.564 216.668 602.028 217.827C600.49 218.952 599.744 220.466 599.79 222.37C599.837 224.341 600.621 225.836 602.142 226.854C603.662 227.872 605.827 228.789 608.635 229.606C611.066 230.262 613.055 230.946 614.602 231.657C616.149 232.369 617.416 233.41 618.401 234.78C619.419 236.116 619.955 237.906 620.009 240.149C620.05 241.883 619.578 243.476 618.592 244.928C617.64 246.345 616.273 247.483 614.491 248.342C612.743 249.2 610.73 249.656 608.453 249.711ZM631.215 225.546L631.624 242.626C631.655 243.918 631.914 244.796 632.401 245.261C632.887 245.691 633.522 245.897 634.303 245.878C634.507 245.873 634.761 245.833 635.066 245.758C635.369 245.649 635.606 245.592 635.776 245.588C636.082 245.581 636.34 245.711 636.55 245.978C636.794 246.21 636.92 246.496 636.928 246.836C636.939 247.312 636.677 247.726 636.141 248.079C635.605 248.398 634.963 248.566 634.215 248.584C633.297 248.606 632.479 248.541 631.762 248.388C631.044 248.235 630.335 247.742 629.635 246.908C628.969 246.074 628.613 244.722 628.568 242.853L628.156 225.62L624.434 225.709C624.026 225.718 623.666 225.591 623.354 225.326C623.075 225.061 622.931 224.724 622.922 224.316C622.912 223.908 623.04 223.565 623.305 223.287C623.604 223.008 623.958 222.863 624.366 222.853L628.088 222.764L627.953 217.105C627.942 216.663 628.069 216.303 628.335 216.025C628.633 215.711 629.004 215.549 629.446 215.539C629.887 215.528 630.248 215.673 630.527 215.972C630.84 216.237 631.001 216.59 631.012 217.032L631.147 222.691L636.246 222.569C636.62 222.56 636.946 222.706 637.225 223.005C637.539 223.304 637.7 223.64 637.709 224.014C637.718 224.422 637.59 224.765 637.325 225.043C637.059 225.288 636.722 225.415 636.314 225.424L631.215 225.546ZM655.494 221.395C656.174 221.378 656.789 221.5 657.339 221.759C657.89 222.018 658.172 222.419 658.185 222.963C658.196 223.439 658.069 223.833 657.805 224.145C657.539 224.424 657.22 224.567 656.846 224.576C656.676 224.58 656.334 224.504 655.82 224.346C655.34 224.187 654.879 224.113 654.437 224.124C653.18 224.154 651.934 224.677 650.7 225.693C649.499 226.674 648.509 227.939 647.73 229.488C646.984 231.036 646.63 232.592 646.668 234.155L646.969 246.749C646.98 247.191 646.836 247.568 646.537 247.881C646.272 248.16 645.918 248.304 645.476 248.315C645.034 248.325 644.657 248.198 644.345 247.934C644.065 247.634 643.92 247.264 643.91 246.822L643.364 223.98C643.353 223.539 643.48 223.178 643.746 222.9C644.044 222.587 644.415 222.425 644.857 222.414C645.298 222.404 645.659 222.548 645.938 222.848C646.251 223.112 646.412 223.465 646.423 223.907L646.53 228.394C647.265 226.438 648.4 224.812 649.933 223.517C651.5 222.187 653.354 221.48 655.494 221.395ZM686.172 234.282C686.233 236.831 685.727 239.156 684.655 241.256C683.583 243.356 682.075 245.025 680.132 246.262C678.189 247.465 676.01 248.095 673.597 248.153C671.183 248.21 668.977 247.685 666.978 246.576C664.978 245.434 663.393 243.839 662.221 241.793C661.05 239.746 660.434 237.448 660.373 234.899C660.312 232.35 660.818 230.025 661.89 227.925C662.962 225.824 664.469 224.156 666.412 222.919C668.355 221.682 670.534 221.035 672.947 220.977C675.36 220.92 677.567 221.462 679.567 222.605C681.567 223.747 683.152 225.342 684.323 227.388C685.495 229.435 686.111 231.733 686.172 234.282ZM683.113 234.355C683.064 232.316 682.595 230.49 681.706 228.879C680.817 227.268 679.597 226.022 678.046 225.141C676.527 224.225 674.851 223.789 673.015 223.833C671.18 223.876 669.525 224.392 668.053 225.38C666.579 226.333 665.42 227.636 664.575 229.289C663.764 230.941 663.383 232.786 663.432 234.826C663.48 236.831 663.949 238.64 664.837 240.251C665.76 241.861 666.981 243.124 668.499 244.04C670.016 244.922 671.693 245.341 673.528 245.297C675.364 245.253 677.018 244.755 678.492 243.801C680 242.847 681.159 241.544 681.97 239.892C682.78 238.24 683.161 236.395 683.113 234.355ZM704.391 220.225C707.552 220.15 709.886 221.029 711.392 222.864C712.931 224.663 713.738 227.093 713.811 230.152L714.169 245.142C714.18 245.584 714.036 245.961 713.737 246.274C713.438 246.554 713.084 246.698 712.676 246.708C712.235 246.718 711.857 246.591 711.545 246.327C711.266 246.027 711.121 245.657 711.11 245.215L710.755 230.378C710.703 228.169 710.099 226.398 708.945 225.065C707.824 223.697 706.108 223.041 703.796 223.096C702.335 223.131 700.949 223.505 699.64 224.216C698.365 224.927 697.333 225.87 696.545 227.045C695.756 228.186 695.377 229.419 695.409 230.745L695.764 245.582C695.774 246.024 695.63 246.401 695.332 246.714C695.066 246.993 694.713 247.137 694.271 247.148C693.829 247.159 693.452 247.032 693.139 246.767C692.86 246.468 692.715 246.097 692.705 245.655L692.158 222.814C692.148 222.372 692.275 222.012 692.541 221.733C692.839 221.42 693.209 221.258 693.651 221.247C694.093 221.237 694.454 221.381 694.733 221.681C695.045 221.945 695.207 222.298 695.217 222.74L695.284 225.545C696.167 224.061 697.447 222.823 699.124 221.831C700.834 220.804 702.589 220.268 704.391 220.225ZM743.62 219.899C744.062 219.889 744.422 220.033 744.701 220.333C745.014 220.597 745.176 220.967 745.187 221.443L745.715 243.52C745.778 246.171 745.272 248.445 744.195 250.341C743.152 252.271 741.674 253.751 739.761 254.784C737.881 255.815 735.7 256.36 733.219 256.419C732.029 256.448 730.768 256.325 729.435 256.051C728.136 255.776 727.005 255.412 726.042 254.959C725.113 254.505 724.574 254.024 724.426 253.518C724.182 253.286 724.057 253.017 724.05 252.711C724.041 252.371 724.188 252.095 724.489 251.884C724.622 251.779 724.791 251.724 724.995 251.719C725.199 251.714 725.593 251.823 726.176 252.048L727.258 252.481C729.385 253.246 731.366 253.607 733.202 253.563C736.227 253.491 738.568 252.567 740.226 250.793C741.919 249.052 742.731 246.72 742.661 243.797L742.585 240.636C741.779 242.492 740.471 243.968 738.661 245.066C736.85 246.13 734.942 246.685 732.936 246.733C730.591 246.79 728.453 246.262 726.522 245.152C724.624 244.007 723.106 242.411 721.969 240.364C720.831 238.316 720.232 236.001 720.17 233.418C720.109 230.869 720.598 228.544 721.636 226.445C722.674 224.345 724.114 222.695 725.956 221.495C727.831 220.26 729.924 219.615 732.235 219.559C734.377 219.508 736.344 220.005 738.138 221.051C739.964 222.061 741.32 223.304 742.206 224.78L742.128 221.516C742.117 221.075 742.244 220.697 742.509 220.385C742.808 220.072 743.178 219.91 743.62 219.899ZM733.123 243.872C734.992 243.827 736.647 243.346 738.088 242.427C739.561 241.474 740.687 240.171 741.463 238.52C742.273 236.834 742.653 234.955 742.604 232.881C742.554 230.808 742.085 228.966 741.196 227.354C740.341 225.742 739.156 224.512 737.639 223.664C736.155 222.782 734.479 222.363 732.609 222.407C730.774 222.451 729.12 222.967 727.647 223.954C726.207 224.907 725.082 226.209 724.272 227.861C723.495 229.512 723.13 231.34 723.178 233.346C723.227 235.385 723.679 237.211 724.534 238.823C725.422 240.434 726.609 241.698 728.093 242.615C729.611 243.497 731.287 243.916 733.123 243.872Z" fill="#FFFAFA"/>
</g>
<g id="bulle4">
<rect id="Rectangle 15" x="533.577" y="447.316" width="284.471" height="97.7826" rx="48.8913" transform="rotate(12.8289 533.577 447.316)" fill="#E56441" fill-opacity="0.68"/>
<path id="Kind" d="M628.887 533.787C629.043 534.171 629.08 534.545 628.997 534.91C628.884 535.407 628.611 535.764 628.178 535.979C627.786 536.169 627.375 536.214 626.944 536.116C626.513 536.018 626.19 535.753 625.974 535.32L616.076 514.706L607.863 519.531L605.61 529.427C605.471 529.883 605.218 530.227 604.852 530.457C604.493 530.655 604.098 530.704 603.667 530.606C603.203 530.5 602.852 530.281 602.614 529.948C602.417 529.589 602.371 529.177 602.477 528.713L609.702 496.988C609.808 496.524 610.04 496.193 610.399 495.996C610.765 495.765 611.18 495.703 611.644 495.809C612.109 495.914 612.439 496.147 612.636 496.505C612.874 496.838 612.941 497.237 612.835 497.701L608.724 515.752L633.14 501.332C633.514 501.068 633.916 500.985 634.347 501.084C634.745 501.174 635.042 501.399 635.239 501.758C635.47 502.124 635.544 502.489 635.461 502.854C635.37 503.252 635.141 503.566 634.775 503.796L618.972 513.012L628.887 533.787ZM638.159 536.892C638.061 537.323 637.829 537.654 637.463 537.884C637.137 538.089 636.759 538.142 636.328 538.044C635.897 537.946 635.562 537.73 635.325 537.397C635.127 537.039 635.078 536.644 635.176 536.213L640.385 513.338C640.484 512.907 640.695 512.59 641.021 512.385C641.387 512.154 641.786 512.088 642.217 512.186C642.648 512.285 642.962 512.513 643.159 512.872C643.397 513.205 643.467 513.587 643.369 514.018L638.159 536.892ZM642.976 508.855C642.313 508.704 641.833 508.437 641.536 508.056C641.247 507.642 641.17 507.136 641.306 506.539L641.419 506.042C641.555 505.445 641.84 505.039 642.272 504.824C642.746 504.583 643.314 504.538 643.977 504.689C645.303 504.991 645.826 505.755 645.547 506.982L645.434 507.479C645.298 508.076 645.01 508.498 644.569 508.747C644.17 508.97 643.639 509.006 642.976 508.855ZM663.478 516.871C666.561 517.574 668.607 518.999 669.618 521.147C670.668 523.269 670.854 525.822 670.175 528.806L666.845 543.425C666.747 543.856 666.515 544.187 666.148 544.417C665.79 544.615 665.411 544.668 665.014 544.577C664.583 544.479 664.248 544.263 664.01 543.93C663.813 543.572 663.763 543.177 663.862 542.746L667.157 528.275C667.648 526.12 667.497 524.255 666.705 522.68C665.954 521.079 664.451 520.022 662.197 519.509C660.771 519.184 659.337 519.206 657.893 519.575C656.482 519.951 655.251 520.612 654.198 521.558C653.153 522.471 652.484 523.574 652.189 524.866L648.894 539.337C648.796 539.768 648.563 540.099 648.197 540.329C647.872 540.534 647.493 540.587 647.062 540.489C646.631 540.391 646.297 540.175 646.059 539.842C645.862 539.483 645.812 539.088 645.91 538.657L650.984 516.38C651.082 515.949 651.294 515.631 651.619 515.426C651.986 515.196 652.384 515.13 652.815 515.228C653.246 515.326 653.56 515.554 653.758 515.913C653.996 516.246 654.066 516.628 653.967 517.059L653.345 519.794C654.564 518.573 656.109 517.686 657.978 517.136C659.887 516.559 661.721 516.471 663.478 516.871ZM703.336 514.599C703.767 514.697 704.081 514.925 704.278 515.284C704.516 515.617 704.586 515.999 704.488 516.43L696.787 550.244C696.689 550.675 696.456 551.006 696.09 551.236C695.765 551.441 695.386 551.495 694.955 551.396C694.524 551.298 694.19 551.083 693.952 550.749C693.755 550.391 693.705 549.996 693.803 549.565L694.596 546.084C693.42 547.42 691.882 548.43 689.983 549.113C688.117 549.804 686.19 549.923 684.201 549.47C682.013 548.972 680.152 547.955 678.618 546.42C677.126 544.86 676.096 542.952 675.529 540.695C674.961 538.439 674.965 536.051 675.539 533.532C676.105 531.045 677.132 528.908 678.62 527.12C680.109 525.332 681.859 524.074 683.873 523.347C685.928 522.595 688.032 522.464 690.187 522.954C692.143 523.4 693.836 524.309 695.268 525.681C696.706 527.02 697.679 528.566 698.186 530.321L701.504 515.751C701.602 515.32 701.814 515.002 702.14 514.797C702.506 514.567 702.905 514.5 703.336 514.599ZM685.133 546.753C686.857 547.146 688.5 547.049 690.063 546.464C691.66 545.886 693.02 544.888 694.145 543.471C695.311 542.027 696.12 540.311 696.573 538.322C697.018 536.366 697.025 534.502 696.591 532.73C696.191 530.965 695.397 529.476 694.208 528.264C693.061 527.026 691.625 526.211 689.901 525.818C688.177 525.426 686.513 525.535 684.91 526.146C683.346 526.732 681.986 527.73 680.828 529.14C679.703 530.557 678.918 532.244 678.472 534.2C678.019 536.189 677.993 538.066 678.393 539.831C678.826 541.603 679.617 543.108 680.765 544.346C681.953 545.558 683.409 546.361 685.133 546.753Z" fill="#FFFAFA"/>
</g>
<g id="bulle3">
<rect id="Rectangle 14" x="552.428" y="321.426" width="284.471" height="97.7826" rx="48.8913" transform="rotate(5.50488 552.428 321.426)" fill="#72B6F7"/>
<path id="Motivated" d="M614.615 356.551C615.021 356.59 615.344 356.775 615.586 357.105C615.864 357.405 615.982 357.775 615.94 358.215L612.812 390.705C612.769 391.145 612.581 391.503 612.247 391.778C611.917 392.019 611.531 392.119 611.091 392.077C610.618 392.031 610.241 391.858 609.963 391.558C609.688 391.224 609.571 390.837 609.613 390.397L612.302 362.476L598.632 379.4C598.251 379.807 597.842 379.973 597.406 379.897L597.304 379.887C596.898 379.848 596.545 379.609 596.246 379.17L586.066 359.848L583.368 387.87C583.326 388.31 583.137 388.668 582.803 388.943C582.507 389.188 582.138 389.289 581.698 389.246C581.258 389.204 580.916 389.034 580.671 388.738C580.43 388.407 580.33 388.022 580.373 387.582L583.501 355.092C583.54 354.686 583.71 354.343 584.01 354.065C584.344 353.79 584.731 353.673 585.171 353.716C585.408 353.738 585.655 353.831 585.913 353.992C586.174 354.12 586.362 354.291 586.478 354.507L597.857 375.739L613.18 357.079C613.602 356.607 614.08 356.431 614.615 356.551ZM646.668 382.386C646.423 384.924 645.643 387.172 644.327 389.129C643.012 391.085 641.316 392.562 639.239 393.557C637.165 394.519 634.927 394.884 632.524 394.653C630.121 394.421 627.993 393.636 626.141 392.296C624.292 390.923 622.909 389.15 621.991 386.978C621.073 384.806 620.736 382.451 620.98 379.912C621.225 377.374 622.005 375.127 623.32 373.17C624.636 371.213 626.332 369.736 628.409 368.741C630.486 367.745 632.726 367.363 635.129 367.595C637.532 367.826 639.658 368.629 641.507 370.002C643.356 371.376 644.739 373.148 645.657 375.32C646.575 377.492 646.912 379.848 646.668 382.386ZM643.622 382.092C643.817 380.062 643.57 378.194 642.88 376.488C642.191 374.782 641.128 373.398 639.693 372.338C638.296 371.247 636.683 370.614 634.855 370.438C633.028 370.262 631.324 370.576 629.743 371.38C628.166 372.15 626.86 373.305 625.823 374.845C624.821 376.388 624.222 378.175 624.026 380.206C623.834 382.202 624.083 384.054 624.772 385.76C625.496 387.469 626.557 388.869 627.954 389.96C629.356 391.017 630.97 391.634 632.797 391.81C634.625 391.986 636.327 391.689 637.904 390.918C639.515 390.151 640.822 388.996 641.825 387.453C642.827 385.91 643.426 384.123 643.622 382.092ZM658.937 373.474L657.3 390.48C657.176 391.766 657.328 392.669 657.756 393.188C658.188 393.674 658.793 393.954 659.571 394.029C659.774 394.049 660.031 394.039 660.342 394.001C660.657 393.929 660.898 393.901 661.068 393.917C661.372 393.946 661.613 394.106 661.79 394.396C662.004 394.656 662.095 394.955 662.062 395.294C662.017 395.768 661.707 396.148 661.133 396.434C660.562 396.686 659.904 396.777 659.16 396.705C658.246 396.617 657.442 396.454 656.747 396.217C656.053 395.979 655.408 395.404 654.813 394.493C654.251 393.585 654.06 392.2 654.239 390.339L655.891 373.18L652.185 372.824C651.779 372.785 651.437 372.615 651.158 372.315C650.914 372.018 650.811 371.667 650.85 371.26C650.889 370.854 651.057 370.529 651.354 370.284C651.685 370.043 652.053 369.942 652.459 369.981L656.165 370.338L656.708 364.703C656.75 364.263 656.92 363.92 657.216 363.676C657.55 363.4 657.937 363.284 658.377 363.326C658.817 363.369 659.158 363.555 659.399 363.886C659.678 364.186 659.796 364.556 659.754 364.996L659.211 370.631L664.287 371.12C664.66 371.156 664.967 371.339 665.208 371.669C665.483 372.003 665.603 372.356 665.567 372.729C665.528 373.135 665.36 373.46 665.063 373.705C664.77 373.916 664.42 374.002 664.014 373.963L658.937 373.474ZM671.94 396.399C671.898 396.839 671.71 397.196 671.376 397.471C671.079 397.716 670.71 397.817 670.27 397.775C669.831 397.732 669.471 397.561 669.193 397.261C668.951 396.931 668.852 396.545 668.894 396.105L671.143 372.753C671.185 372.313 671.355 371.971 671.651 371.726C671.985 371.451 672.372 371.335 672.812 371.377C673.252 371.419 673.593 371.606 673.834 371.936C674.113 372.237 674.231 372.607 674.189 373.047L671.94 396.399ZM673.14 367.976C672.463 367.911 671.953 367.708 671.61 367.367C671.27 366.993 671.13 366.501 671.189 365.892L671.237 365.384C671.296 364.775 671.526 364.336 671.928 364.068C672.367 363.768 672.924 363.651 673.601 363.716C674.955 363.847 675.571 364.538 675.451 365.79L675.402 366.298C675.343 366.907 675.112 367.363 674.707 367.665C674.339 367.937 673.817 368.041 673.14 367.976ZM701.848 374.122C702.187 374.154 702.497 374.304 702.778 374.57C703.06 374.836 703.183 375.155 703.147 375.528C703.118 375.832 703.023 376.113 702.861 376.371L690.663 398.765C690.501 399.023 690.275 399.24 689.985 399.417C689.732 399.563 689.47 399.624 689.199 399.597C688.857 399.599 688.559 399.502 688.305 399.306C688.05 399.111 687.872 398.838 687.769 398.486L680.017 374.171C680.023 374.104 679.999 373.999 679.945 373.857C679.924 373.718 679.92 373.581 679.933 373.446C679.972 373.04 680.14 372.714 680.437 372.47C680.737 372.191 681.141 372.076 681.648 372.125C681.953 372.155 682.214 372.282 682.431 372.508C682.686 372.703 682.866 372.96 682.972 373.277L689.623 394.668L700.283 374.944C700.448 374.653 700.657 374.434 700.91 374.287C701.2 374.11 701.513 374.055 701.848 374.122ZM730.042 377.349C730.482 377.391 730.823 377.578 731.064 377.908C731.34 378.242 731.456 378.629 731.414 379.069L729.214 401.913C729.172 402.353 728.983 402.711 728.65 402.986C728.353 403.231 727.984 403.332 727.544 403.29C727.104 403.247 726.745 403.076 726.467 402.776C726.225 402.445 726.126 402.06 726.168 401.62L726.496 398.219C725.503 399.66 724.11 400.824 722.317 401.71C720.523 402.597 718.628 402.944 716.632 402.751C714.364 402.533 712.374 401.744 710.66 400.383C708.981 399.026 707.716 397.264 706.865 395.099C706.049 392.937 705.764 390.57 706.012 387.998C706.26 385.425 707.006 383.175 708.25 381.245C709.498 379.282 711.075 377.811 712.979 376.833C714.917 375.858 716.986 375.477 719.186 375.689C721.217 375.884 723.031 376.554 724.629 377.698C726.226 378.843 727.372 380.251 728.065 381.923L728.368 378.776C728.41 378.336 728.581 377.977 728.881 377.698C729.215 377.423 729.602 377.306 730.042 377.349ZM717.21 399.938C718.97 400.107 720.588 399.802 722.063 399.022C723.576 398.211 724.8 397.031 725.734 395.481C726.706 393.901 727.29 392.096 727.486 390.065C727.675 388.102 727.441 386.269 726.785 384.567C726.163 382.867 725.186 381.492 723.852 380.442C722.556 379.36 721.028 378.735 719.268 378.566C717.508 378.396 715.873 378.7 714.364 379.477C712.888 380.257 711.666 381.42 710.698 382.966C709.766 384.482 709.203 386.255 709.007 388.286C708.812 390.317 709.023 392.198 709.642 393.932C710.264 395.631 711.223 397.022 712.519 398.103C713.853 399.153 715.416 399.765 717.21 399.938ZM744.306 381.694L742.669 398.7C742.545 399.986 742.697 400.889 743.125 401.408C743.557 401.894 744.161 402.174 744.94 402.249C745.143 402.269 745.4 402.259 745.711 402.221C746.025 402.149 746.267 402.121 746.436 402.137C746.741 402.166 746.982 402.326 747.159 402.617C747.373 402.876 747.464 403.175 747.431 403.514C747.385 403.988 747.076 404.368 746.502 404.654C745.931 404.906 745.273 404.997 744.528 404.925C743.615 404.837 742.811 404.674 742.116 404.437C741.422 404.199 740.777 403.625 740.181 402.713C739.62 401.805 739.429 400.421 739.608 398.559L741.26 381.401L737.554 381.044C737.148 381.005 736.806 380.835 736.527 380.535C736.283 380.238 736.18 379.887 736.219 379.481C736.258 379.074 736.426 378.749 736.723 378.504C737.054 378.263 737.422 378.162 737.828 378.201L741.534 378.558L742.076 372.923C742.119 372.483 742.288 372.14 742.585 371.896C742.919 371.621 743.306 371.504 743.746 371.546C744.186 371.589 744.527 371.775 744.768 372.106C745.047 372.406 745.165 372.776 745.122 373.216L744.58 378.851L749.656 379.34C750.029 379.376 750.335 379.559 750.577 379.89C750.852 380.223 750.972 380.577 750.936 380.949C750.897 381.355 750.729 381.68 750.432 381.925C750.139 382.136 749.789 382.222 749.383 382.183L744.306 381.694ZM777.294 393.478C777.255 393.884 777.068 394.225 776.734 394.5C776.403 394.741 776.035 394.842 775.629 394.803L756.44 392.956C756.244 394.986 756.474 396.853 757.13 398.556C757.823 400.228 758.885 401.611 760.317 402.705C761.786 403.769 763.569 404.402 765.668 404.604C767.292 404.76 768.78 404.562 770.131 404.009C771.483 403.456 772.598 402.692 773.477 401.718C773.879 401.449 774.249 401.331 774.587 401.364C774.926 401.396 775.217 401.561 775.462 401.858C775.707 402.155 775.813 402.472 775.78 402.811C775.744 403.183 775.541 403.522 775.17 403.828C773.96 405.044 772.485 405.995 770.745 406.681C769.039 407.371 767.272 407.627 765.445 407.451C762.839 407.201 760.591 406.421 758.702 405.111C756.813 403.802 755.406 402.096 754.481 399.991C753.56 397.853 753.226 395.464 753.481 392.824C753.748 390.049 754.522 387.682 755.804 385.721C757.123 383.731 758.748 382.282 760.68 381.375C762.615 380.434 764.615 380.063 766.68 380.262C768.71 380.457 770.56 381.113 772.228 382.231C773.931 383.351 775.252 384.879 776.193 386.814C777.134 388.749 777.501 390.97 777.294 393.478ZM766.396 383.206C764.433 383.017 762.54 383.518 760.718 384.709C758.929 385.903 757.676 387.746 756.958 390.239L774.268 391.906L774.308 391.499C774.285 389.96 773.904 388.591 773.166 387.393C772.431 386.161 771.448 385.195 770.217 384.496C769.023 383.766 767.75 383.336 766.396 383.206ZM806.863 373.013C807.303 373.055 807.644 373.242 807.885 373.572C808.164 373.872 808.282 374.242 808.239 374.682L804.916 409.203C804.873 409.643 804.685 410 804.351 410.275C804.054 410.52 803.686 410.621 803.246 410.579C802.806 410.537 802.447 410.365 802.168 410.065C801.927 409.735 801.827 409.349 801.87 408.909L802.212 405.356C801.216 406.831 799.82 408.029 798.023 408.949C796.261 409.872 794.364 410.236 792.333 410.041C790.1 409.825 788.124 409.055 786.408 407.728C784.728 406.371 783.463 404.609 782.613 402.444C781.762 400.278 781.461 397.91 781.709 395.338C781.953 392.799 782.699 390.548 783.947 388.585C785.195 386.622 786.771 385.151 788.676 384.173C790.617 383.164 792.688 382.766 794.888 382.978C796.885 383.17 798.68 383.855 800.275 385.034C801.872 386.178 803.035 387.588 803.761 389.263L805.194 374.389C805.236 373.949 805.406 373.607 805.702 373.362C806.036 373.087 806.423 372.97 806.863 373.013ZM792.912 407.227C794.672 407.396 796.289 407.091 797.765 406.311C799.274 405.534 800.496 404.371 801.431 402.821C802.403 401.241 802.987 399.436 803.182 397.405C803.375 395.408 803.143 393.559 802.487 391.856C801.865 390.157 800.887 388.782 799.554 387.731C798.258 386.65 796.729 386.024 794.97 385.855C793.21 385.685 791.573 386.006 790.061 386.817C788.585 387.597 787.363 388.76 786.394 390.306C785.46 391.856 784.896 393.629 784.704 395.626C784.508 397.657 784.721 399.522 785.343 401.221C785.999 402.924 786.975 404.316 788.272 405.397C789.605 406.448 791.152 407.058 792.912 407.227Z" fill="#FFFAFA"/>
</g>
</g>
<defs>
<clipPath id="clip0_47_2">
<rect width="876" height="857" fill="white"/>
</clipPath>
</defs>
</svg>
