<svg width="783" height="564" viewBox="0 0 783 564" fill="none" xmlns="http://www.w3.org/2000/svg">
<path d="M156.343 405.875C155.221 404.214 154.119 402.509 153.065 400.807L154.767 399.754C155.806 401.435 156.894 403.117 158 404.756L156.343 405.875Z" fill="#3F3D56"/>
<path d="M147.035 390.087C145.18 386.447 143.456 382.686 141.911 378.909L143.762 378.151C145.287 381.877 146.987 385.588 148.817 389.179L147.035 390.087ZM137.731 367.345C136.504 363.451 135.426 359.457 134.525 355.474L136.476 355.033C137.364 358.962 138.428 362.902 139.639 366.743L137.731 367.345ZM132.313 343.379C131.747 339.343 131.34 335.227 131.105 331.145L133.102 331.03C133.333 335.057 133.735 339.118 134.294 343.1L132.313 343.379ZM132.896 318.898L130.897 318.851C130.993 314.764 131.259 310.637 131.686 306.586L133.675 306.796C133.253 310.793 132.991 314.865 132.896 318.898V318.898ZM135.443 294.798L133.478 294.425C134.24 290.414 135.179 286.387 136.269 282.453L138.197 282.988C137.121 286.868 136.195 290.842 135.443 294.798V294.798ZM141.921 271.446L140.045 270.753C141.459 266.922 143.052 263.102 144.78 259.399L146.593 260.244C144.888 263.898 143.316 267.666 141.921 271.446V271.446ZM415.825 265.263C414.262 261.556 412.522 257.865 410.654 254.293L412.426 253.366C414.32 256.987 416.083 260.728 417.668 264.486L415.825 265.263ZM152.174 249.469L150.438 248.477C152.463 244.934 154.663 241.429 156.976 238.06L158.624 239.192C156.343 242.516 154.172 245.974 152.174 249.469ZM404.594 243.785C402.44 240.384 400.118 237.028 397.69 233.813L399.287 232.608C401.747 235.867 404.101 239.268 406.284 242.716L404.594 243.785ZM165.897 229.481L164.347 228.217C166.927 225.052 169.669 221.955 172.499 219.012L173.94 220.398C171.148 223.302 168.442 226.357 165.897 229.481ZM389.992 224.439C387.31 221.432 384.47 218.5 381.551 215.725L382.93 214.276C385.887 217.089 388.766 220.06 391.484 223.107L389.992 224.439ZM182.698 212.004L181.375 210.505C184.435 207.804 187.645 205.196 190.917 202.754L192.113 204.357C188.885 206.766 185.718 209.339 182.698 212.004ZM372.426 207.731C369.289 205.203 366.008 202.774 362.675 200.512L363.798 198.857C367.176 201.15 370.501 203.611 373.681 206.174L372.426 207.731ZM202.121 197.509L201.061 195.813C204.523 193.647 208.116 191.601 211.74 189.731L212.657 191.508C209.082 193.353 205.538 195.372 202.121 197.509ZM352.365 194.118C348.851 192.135 345.216 190.277 341.561 188.596L342.397 186.779C346.102 188.483 349.786 190.366 353.348 192.376L352.365 194.118ZM223.65 186.398L222.882 184.552C226.651 182.986 230.531 181.56 234.413 180.313L235.024 182.217C231.195 183.447 227.368 184.854 223.65 186.398ZM330.338 183.986C326.553 182.612 322.662 181.379 318.772 180.323L319.296 178.393C323.239 179.464 327.184 180.713 331.021 182.106L330.338 183.986ZM246.715 178.991L246.264 177.043C250.235 176.122 254.3 175.356 258.343 174.765L258.632 176.744C254.643 177.327 250.634 178.083 246.715 178.991V178.991ZM306.942 177.633C302.989 176.904 298.948 176.331 294.933 175.929L295.132 173.939C299.202 174.346 303.297 174.927 307.304 175.666L306.942 177.633ZM270.694 175.487L270.568 173.491C274.636 173.234 278.784 173.142 282.859 173.216L282.823 175.216C278.798 175.142 274.709 175.234 270.694 175.487V175.487Z" fill="#3F3D56"/>
<path d="M421.849 282.473C421.313 280.569 420.731 278.651 420.118 276.77L422.02 276.15C422.641 278.057 423.231 280.001 423.773 281.931L421.849 282.473Z" fill="#3F3D56"/>
<path d="M409.653 170.471H407.653C407.653 168.469 407.688 166.438 407.758 164.436L409.757 164.505C409.688 166.485 409.653 168.492 409.653 170.471Z" fill="#3F3D56"/>
<path d="M410.605 152.48L408.616 152.268C409.044 148.24 409.624 144.18 410.339 140.199L412.308 140.553C411.601 144.487 411.028 148.5 410.605 152.48ZM414.863 128.779L412.925 128.285C413.926 124.36 415.083 120.424 416.364 116.587L418.261 117.22C416.996 121.012 415.853 124.901 414.863 128.779V128.779ZM733.826 107.678C732.331 103.967 730.681 100.264 728.923 96.6731L730.72 95.7942C732.499 99.4279 734.167 103.175 735.681 106.931L733.826 107.678ZM422.488 105.925L420.642 105.157C422.197 101.42 423.909 97.6887 425.732 94.0676L427.519 94.967C425.717 98.5456 424.025 102.232 422.488 105.925V105.925ZM723.242 86.0471C721.231 82.5911 719.069 79.1619 716.814 75.8552L718.466 74.7282C720.749 78.0744 722.936 81.5441 724.97 85.0412L723.242 86.0471ZM433.324 84.4001L431.606 83.3747C433.679 79.9021 435.908 76.4558 438.23 73.132L439.87 74.2775C437.575 77.5622 435.372 80.968 433.324 84.4001H433.324ZM709.673 66.1482C707.186 63.009 704.557 59.9226 701.859 56.9743L703.333 55.6237C706.064 58.6071 708.725 61.7297 711.242 64.906L709.673 66.1482ZM447.123 64.6501L445.569 63.3903C448.12 60.2439 450.816 57.1511 453.582 54.198L455.042 55.5651C452.308 58.4841 449.644 61.5407 447.123 64.6501ZM693.411 48.3801C690.503 45.6272 687.462 42.9455 684.371 40.4089L685.638 38.863C688.767 41.4289 691.844 44.1428 694.786 46.928L693.411 48.3801ZM463.587 47.0686L462.228 45.6008C465.198 42.8513 468.305 40.1731 471.463 37.6413L472.714 39.2019C469.593 41.7043 466.522 44.3508 463.587 47.0686V47.0686ZM674.786 33.1023C671.518 30.7907 668.126 28.5691 664.704 26.4988L665.739 24.7878C669.202 26.8825 672.634 29.1306 675.94 31.4695L674.786 33.1023ZM482.377 32.0066L481.24 30.3611C484.57 28.0622 488.025 25.8547 491.512 23.7991L492.527 25.5217C489.082 27.5534 485.667 29.7351 482.377 32.0065V32.0066ZM654.174 20.635C650.609 18.8137 646.934 17.1008 643.25 15.5427L644.03 13.7009C647.757 15.2771 651.476 17.011 655.084 18.8537L654.174 20.635ZM503.115 19.782L502.225 17.991C505.848 16.1922 509.583 14.5022 513.325 12.9685L514.084 14.8191C510.385 16.3347 506.695 18.0046 503.115 19.7819V19.782ZM631.988 11.2512C628.205 9.96314 624.321 8.79615 620.445 7.78296L620.951 5.84839C624.873 6.87329 628.804 8.05444 632.632 9.35766L631.988 11.2512ZM525.378 10.6594L524.755 8.75904C528.599 7.49927 532.541 6.36304 536.471 5.38204L536.955 7.32247C533.071 8.29171 529.176 9.41426 525.378 10.6594L525.378 10.6594ZM608.684 5.15843C604.751 4.42843 600.742 3.83226 596.766 3.38597L596.989 1.39866C601.012 1.85032 605.07 2.45334 609.049 3.19166L608.684 5.15843ZM548.742 4.82933L548.399 2.85862C552.384 2.16477 556.447 1.60663 560.477 1.19896L560.678 3.18918C556.696 3.59151 552.68 4.14326 548.742 4.8293L548.742 4.82933ZM584.751 2.46898C580.747 2.30638 576.675 2.2849 572.701 2.40355L572.64 0.404545C576.663 0.284435 580.781 0.305421 584.833 0.470951L584.751 2.46898Z" fill="#3F3D56"/>
<path d="M739.676 124.839C739.141 122.936 738.563 121.014 737.959 119.127L739.864 118.518C740.475 120.427 741.06 122.371 741.602 124.297L739.676 124.839Z" fill="#3F3D56"/>
<path d="M735.768 173.484L635.598 273.654L637.012 275.068L737.182 174.898L735.768 173.484Z" fill="#3F3D56"/>
<path d="M606.557 286.453H438.329V288.453H606.557V286.453Z" fill="#3F3D56"/>
<path d="M407.624 300.089L313.533 394.18L314.947 395.594L409.038 301.503L407.624 300.089Z" fill="#3F3D56"/>
<path d="M285.092 407.211H172.662V409.211H285.092V407.211Z" fill="#3F3D56"/>
<path d="M142.1 419.871L30.3774 531.594L31.7915 533.008L143.514 421.285L142.1 419.871Z" fill="#3F3D56"/>
<path d="M155.173 426.701C151.517 426.701 147.942 425.617 144.901 423.585C141.861 421.554 139.491 418.666 138.091 415.288C136.692 411.909 136.325 408.192 137.039 404.605C137.752 401.019 139.513 397.724 142.099 395.138C144.685 392.552 147.979 390.791 151.566 390.078C155.152 389.365 158.87 389.731 162.248 391.13C165.627 392.529 168.514 394.899 170.546 397.94C172.578 400.98 173.662 404.555 173.662 408.212C173.657 413.114 171.707 417.813 168.241 421.28C164.775 424.746 160.075 426.696 155.173 426.701V426.701ZM155.173 391.723C151.912 391.723 148.724 392.69 146.012 394.501C143.301 396.313 141.187 398.888 139.939 401.901C138.691 404.914 138.364 408.23 139 411.429C139.637 414.627 141.207 417.565 143.513 419.871C145.819 422.178 148.757 423.748 151.956 424.384C155.154 425.021 158.47 424.694 161.483 423.446C164.496 422.198 167.071 420.085 168.883 417.373C170.695 414.661 171.662 411.473 171.662 408.212C171.657 403.84 169.918 399.649 166.827 396.558C163.736 393.467 159.545 391.728 155.173 391.723V391.723Z" fill="#3F3D56"/>
<path d="M302.581 426.701C298.924 426.701 295.349 425.617 292.308 423.585C289.268 421.554 286.898 418.666 285.499 415.287C284.099 411.909 283.733 408.191 284.447 404.605C285.16 401.018 286.921 397.724 289.507 395.138C292.092 392.552 295.387 390.791 298.973 390.078C302.56 389.365 306.278 389.731 309.656 391.13C313.035 392.529 315.922 394.899 317.954 397.94C319.985 400.98 321.07 404.555 321.07 408.212C321.064 413.114 319.115 417.814 315.648 421.28C312.182 424.746 307.483 426.696 302.581 426.701ZM302.581 391.723C299.319 391.723 296.131 392.69 293.42 394.502C290.708 396.313 288.595 398.889 287.346 401.902C286.098 404.915 285.772 408.23 286.408 411.429C287.044 414.627 288.615 417.566 290.921 419.872C293.227 422.178 296.165 423.748 299.364 424.384C302.562 425.021 305.878 424.694 308.891 423.446C311.904 422.198 314.479 420.085 316.291 417.373C318.103 414.661 319.07 411.473 319.07 408.212C319.065 403.84 317.326 399.649 314.235 396.558C311.143 393.466 306.952 391.728 302.581 391.723V391.723Z" fill="#3F3D56"/>
<path d="M420.84 305.943C417.183 305.943 413.608 304.858 410.568 302.827C407.528 300.795 405.158 297.908 403.758 294.529C402.359 291.151 401.993 287.433 402.706 283.847C403.42 280.26 405.181 276.966 407.766 274.38C410.352 271.794 413.647 270.034 417.233 269.32C420.819 268.607 424.537 268.973 427.915 270.372C431.294 271.772 434.181 274.141 436.213 277.182C438.245 280.222 439.329 283.797 439.329 287.454C439.324 292.356 437.374 297.055 433.908 300.521C430.441 303.988 425.742 305.937 420.84 305.943V305.943ZM420.84 270.965C417.579 270.965 414.391 271.932 411.679 273.744C408.967 275.556 406.854 278.131 405.606 281.144C404.358 284.157 404.032 287.472 404.668 290.671C405.304 293.869 406.875 296.808 409.181 299.114C411.487 301.42 414.425 302.99 417.623 303.626C420.822 304.262 424.137 303.936 427.15 302.688C430.163 301.44 432.739 299.326 434.55 296.614C436.362 293.903 437.329 290.715 437.329 287.454C437.324 283.082 435.585 278.891 432.494 275.8C429.403 272.708 425.211 270.97 420.84 270.965V270.965Z" fill="#3F3D56"/>
<path d="M624.045 305.943C620.389 305.943 616.814 304.858 613.774 302.827C610.733 300.795 608.363 297.908 606.964 294.529C605.565 291.151 605.199 287.433 605.912 283.847C606.625 280.26 608.386 276.966 610.972 274.38C613.558 271.794 616.852 270.034 620.439 269.32C624.025 268.607 627.743 268.973 631.121 270.372C634.499 271.772 637.387 274.141 639.419 277.182C641.45 280.222 642.535 283.797 642.535 287.454C642.529 292.356 640.579 297.055 637.113 300.521C633.647 303.988 628.947 305.937 624.045 305.943V305.943ZM624.045 270.965C620.784 270.965 617.596 271.932 614.885 273.744C612.173 275.556 610.06 278.131 608.812 281.144C607.564 284.157 607.237 287.472 607.874 290.671C608.51 293.869 610.08 296.808 612.386 299.114C614.692 301.42 617.63 302.99 620.829 303.626C624.028 304.262 627.343 303.936 630.356 302.688C633.369 301.44 635.944 299.326 637.756 296.614C639.568 293.903 640.535 290.715 640.535 287.454C640.53 283.082 638.791 278.891 635.7 275.799C632.608 272.708 628.417 270.97 624.045 270.965V270.965Z" fill="#3F3D56"/>
<path d="M748.967 180.189C745.311 180.189 741.736 179.104 738.695 177.073C735.655 175.041 733.285 172.154 731.886 168.775C730.487 165.397 730.12 161.679 730.834 158.093C731.547 154.506 733.308 151.212 735.894 148.626C738.48 146.041 741.774 144.28 745.36 143.566C748.947 142.853 752.664 143.219 756.043 144.618C759.421 146.018 762.309 148.387 764.34 151.428C766.372 154.468 767.456 158.043 767.457 161.7C767.451 166.602 765.501 171.301 762.035 174.767C758.569 178.234 753.869 180.183 748.967 180.189V180.189ZM748.967 145.211C745.706 145.211 742.518 146.178 739.807 147.99C737.095 149.802 734.982 152.377 733.734 155.39C732.486 158.403 732.159 161.719 732.795 164.917C733.432 168.116 735.002 171.054 737.308 173.36C739.614 175.666 742.552 177.236 745.751 177.872C748.949 178.508 752.265 178.182 755.278 176.934C758.291 175.686 760.866 173.572 762.678 170.861C764.49 168.149 765.457 164.961 765.457 161.7C765.451 157.328 763.713 153.137 760.621 150.046C757.53 146.955 753.339 145.216 748.967 145.211V145.211Z" fill="#3F3D56"/>
<path d="M18.5923 563.281C14.9354 563.281 11.3607 562.197 8.32008 560.165C5.27947 558.134 2.90958 555.246 1.5101 551.868C0.110616 548.489 -0.255604 544.772 0.457754 541.185C1.17111 537.599 2.932 534.304 5.51776 531.718C8.10351 529.132 11.398 527.371 14.9846 526.658C18.5711 525.945 22.2887 526.311 25.6672 527.71C29.0457 529.11 31.9334 531.479 33.965 534.52C35.9967 537.56 37.0811 541.135 37.0811 544.792C37.0755 549.694 35.1259 554.393 31.6598 557.86C28.1937 561.326 23.4942 563.276 18.5923 563.281V563.281ZM18.5923 528.303C15.331 528.303 12.1429 529.27 9.43122 531.082C6.71951 532.893 4.60597 535.469 3.35786 538.482C2.10975 541.495 1.78314 544.81 2.41932 548.009C3.05551 551.207 4.62592 554.145 6.93197 556.452C9.23801 558.758 12.1761 560.328 15.3747 560.964C18.5733 561.601 21.8888 561.274 24.9019 560.026C27.9149 558.778 30.4902 556.665 32.3021 553.953C34.114 551.241 35.0811 548.053 35.0811 544.792C35.0761 540.42 33.3373 536.229 30.2461 533.138C27.155 530.047 22.9639 528.308 18.5923 528.303V528.303Z" fill="#3F3D56"/>
<path d="M155.173 299.113C150.799 299.113 146.467 299.975 142.425 301.649C138.384 303.323 134.711 305.777 131.618 308.87C128.524 311.964 126.071 315.636 124.397 319.678C122.722 323.719 121.861 328.051 121.861 332.426C121.861 350.824 155.173 411.543 155.173 411.543C155.173 411.543 188.486 350.824 188.486 332.426C188.486 328.051 187.624 323.719 185.95 319.678C184.276 315.636 181.822 311.964 178.729 308.87C175.635 305.777 171.963 303.323 167.921 301.649C163.88 299.975 159.548 299.113 155.173 299.113V299.113ZM155.173 349.915C151.714 349.915 148.333 348.889 145.457 346.967C142.581 345.046 140.339 342.314 139.016 339.118C137.692 335.923 137.346 332.406 138.02 329.014C138.695 325.621 140.361 322.505 142.807 320.059C145.253 317.613 148.369 315.948 151.761 315.273C155.154 314.598 158.67 314.944 161.866 316.268C165.062 317.592 167.793 319.833 169.715 322.709C171.637 325.585 172.662 328.967 172.662 332.426C172.662 337.064 170.82 341.513 167.54 344.792C164.26 348.072 159.812 349.915 155.173 349.915V349.915Z" fill="#1C3041"/>
<path d="M420.84 174.191C412.005 174.191 403.532 177.701 397.284 183.948C391.037 190.196 387.527 198.669 387.527 207.504C387.527 225.902 420.84 286.621 420.84 286.621C420.84 286.621 454.152 225.902 454.152 207.504C454.152 203.129 453.291 198.797 451.616 194.756C449.942 190.714 447.489 187.042 444.395 183.948C441.302 180.855 437.63 178.401 433.588 176.727C429.546 175.053 425.214 174.191 420.84 174.191V174.191ZM420.84 224.993C417.381 224.993 413.999 223.967 411.123 222.045C408.247 220.124 406.006 217.392 404.682 214.197C403.358 211.001 403.012 207.484 403.687 204.092C404.362 200.699 406.027 197.583 408.473 195.137C410.919 192.691 414.035 191.026 417.428 190.351C420.82 189.676 424.337 190.022 427.533 191.346C430.728 192.67 433.46 194.911 435.381 197.787C437.303 200.664 438.329 204.045 438.329 207.504C438.329 212.142 436.486 216.591 433.206 219.87C429.927 223.15 425.478 224.993 420.84 224.993V224.993Z" fill="#1C3041"/>
<path d="M748.967 54.2676C744.593 54.2676 740.261 55.1292 736.219 56.8033C732.177 58.4775 728.505 60.9312 725.412 64.0246C722.318 67.1179 719.865 70.7902 718.191 74.8319C716.516 78.8735 715.655 83.2054 715.655 87.58C715.655 105.978 748.967 166.697 748.967 166.697C748.967 166.697 782.28 105.978 782.28 87.58C782.28 83.2054 781.418 78.8735 779.744 74.8319C778.07 70.7902 775.616 67.1179 772.523 64.0246C769.429 60.9312 765.757 58.4775 761.715 56.8033C757.674 55.1292 753.342 54.2676 748.967 54.2676V54.2676ZM748.967 105.069C745.508 105.069 742.127 104.043 739.251 102.122C736.375 100.2 734.133 97.4685 732.81 94.2728C731.486 91.0771 731.139 87.5606 731.814 84.1681C732.489 80.7756 734.155 77.6593 736.601 75.2135C739.047 72.7676 742.163 71.1019 745.555 70.4271C748.948 69.7523 752.464 70.0986 755.66 71.4223C758.856 72.746 761.587 74.9876 763.509 77.8637C765.431 80.7397 766.456 84.1211 766.456 87.58C766.456 92.2184 764.614 96.6668 761.334 99.9466C758.054 103.226 753.606 105.069 748.967 105.069V105.069Z" fill="#1C3041"/>
</svg>
