<svg width="136" height="136" viewBox="0 0 136 136" fill="none" xmlns="http://www.w3.org/2000/svg">
<path d="M68.3057 0.0439453C50.3538 0.0439453 33.1372 7.17529 20.4434 19.8692C7.7495 32.563 0.618164 49.7796 0.618164 67.7314C0.618164 85.6833 7.7495 102.9 20.4434 115.594C33.1372 128.288 50.3538 135.419 68.3057 135.419C86.2575 135.419 103.474 128.288 116.168 115.594C128.862 102.9 135.993 85.6833 135.993 67.7314C135.993 49.7796 128.862 32.563 116.168 19.8692C103.474 7.17529 86.2575 0.0439453 68.3057 0.0439453Z" fill="#8A04B3" fill-opacity="0.5"/>
<path d="M77.4683 85.6722H94.9851L97.7354 67.8775H77.4647V58.1518C77.4647 50.7597 79.8801 44.2046 86.7949 44.2046H97.9063V28.6757C95.9541 28.4121 91.8252 27.835 84.0233 27.835C67.732 27.835 58.1809 36.4384 58.1809 56.0393V67.8775H41.4336V85.6722H58.1809V134.582C61.4976 135.08 64.857 135.419 68.3055 135.419C71.4227 135.419 74.4651 135.134 77.4683 134.728V85.6722Z" fill="white"/>
</svg>
