<svg width="745" height="880" viewBox="0 0 745 880" fill="none" xmlns="http://www.w3.org/2000/svg">
<g clip-path="url(#clip0_85_2)">
<path d="M466.768 597.267L406.892 870.977H412.618L492.732 597.337" fill="#FEBEFF"/>
<path d="M679.107 590.807L740.162 870.977H734.616L654.576 597.217" fill="#FEBEFF"/>
<path d="M595.954 597.267L655.819 870.977H650.093L569.979 597.337" fill="#FEBEFF"/>
<path d="M744.486 462.837L708.365 563.887C704.698 574.145 697.7 583.06 688.359 589.373C679.018 595.685 667.807 599.076 656.308 599.067H451.777C440.279 599.075 429.068 595.683 419.727 589.371C410.387 583.059 403.388 574.144 399.72 563.887L369.973 480.767C368.772 477.404 368.437 473.82 368.998 470.311C369.558 466.803 370.998 463.47 373.197 460.589C375.397 457.708 378.293 455.36 381.647 453.741C385.001 452.122 388.716 451.277 392.485 451.277H415.38C420.614 451.298 425.68 449.532 429.637 446.307C433.595 443.082 436.177 438.616 436.904 433.737L450.247 344.587C451.787 334.288 457.227 324.859 465.566 318.036C473.906 311.213 484.583 307.456 495.633 307.457H679.786C686.343 307.457 692.823 308.781 698.789 311.34C704.756 313.899 710.07 317.633 714.372 322.289C718.675 326.946 721.866 332.417 723.731 338.334C725.596 344.25 726.091 350.475 725.182 356.587L713.73 433.507C713.4 435.715 713.577 437.965 714.25 440.104C714.922 442.242 716.074 444.22 717.628 445.905C719.181 447.589 721.101 448.94 723.256 449.866C725.411 450.793 727.753 451.274 730.122 451.277H735.647C737.126 451.273 738.585 451.602 739.902 452.236C741.219 452.869 742.357 453.789 743.221 454.919C744.085 456.049 744.651 457.357 744.87 458.734C745.09 460.111 744.959 461.517 744.486 462.837Z" fill="#FEBEFF"/>
<path d="M729.06 450.197H713.931C704.041 450.118 694.375 452.974 686.306 458.359C678.237 463.744 672.176 471.385 668.982 480.197L643.07 547.957C639.75 557.236 633.421 565.301 624.974 571.015C616.527 576.729 606.387 579.804 595.985 579.807H407.476" stroke="white" stroke-width="3" stroke-miterlimit="10"/>
<path d="M568.404 80.5366C614.947 81.5366 595.941 127.597 622.352 135.667C641.05 141.377 664.571 149.787 664.072 185.097C663.658 214.227 660.97 218.287 684.587 230.727C716.947 247.727 708.214 305.027 642.973 302.987" stroke="#41465A" stroke-width="3" stroke-miterlimit="10"/>
<path d="M497.458 113.687C498.595 110.767 508.082 72.1667 569.881 78.9667C616.116 84.0567 597.503 133.287 619.388 140.237C635.982 145.497 661.49 153.487 658.76 188.707C656.508 217.757 653.565 221.707 676.353 235.397C707.587 254.237 695.242 310.897 630.245 305.197C565.249 299.497 467.966 301.687 463.568 289.827C460.381 281.127 432.897 229.637 472.874 207.337C484.9 200.627 507.104 192.477 504.746 179.437C499.965 153.037 485.538 144.267 497.458 113.687Z" fill="#252954"/>
<path d="M575.119 167.917C575.119 167.917 571.687 209.697 589.461 222.507L541.08 221.687C541.08 221.687 542.217 175.417 541.08 167.937L575.119 167.917Z" fill="#FFB3A4"/>
<path d="M551.949 201.927C570.284 201.927 585.148 191.705 585.148 179.097C585.148 166.488 570.284 156.267 551.949 156.267C533.613 156.267 518.749 166.488 518.749 179.097C518.749 191.705 533.613 201.927 551.949 201.927Z" fill="#242854"/>
<path d="M587.25 152.627C587.25 152.627 577.561 192.447 542.694 191.047C519.513 190.117 507.529 152.467 505.84 134.437C504.427 119.387 525.271 107.817 540.537 110.867C559.341 114.627 560.361 143.997 580.122 142.287L587.25 152.627Z" fill="#FFB3A4"/>
<path d="M530.796 136.997C522.764 138.925 514.94 141.549 507.423 144.837C506.249 141.115 505.442 137.298 505.012 133.437C503.949 122.437 514.796 113.327 526.652 110.377C527.895 110.757 529.181 111.177 530.53 111.647C536.66 113.777 526.886 124.817 530.796 136.997Z" fill="#EA786C"/>
<path d="M538.126 110.107C544.575 112.347 530.328 124.107 533.441 137.107C519.773 139.884 506.272 143.346 492.996 147.477C492.996 147.477 480.789 129.827 490.436 117.797C500.082 105.767 517.399 102.907 538.126 110.107Z" fill="#252954"/>
<path d="M580.377 154.557C586.849 154.557 592.095 149.618 592.095 143.527C592.095 137.435 586.849 132.497 580.377 132.497C573.906 132.497 568.659 137.435 568.659 143.527C568.659 149.618 573.906 154.557 580.377 154.557Z" fill="#FFB3A4"/>
<path d="M481.98 243.177C497.809 235.657 515.084 245.847 506.521 269.537C500.317 286.687 444.956 387.997 438.677 396.797C400.548 416.877 250.985 394.087 250.985 394.087C250.985 394.087 293.578 404.527 287.544 404.597C284.899 404.597 296.301 394.087 296.301 394.087C296.301 394.087 285.069 382.877 287.544 380.697C371.117 379.265 279.024 396.377 272.884 391.097C270.153 388.767 299.832 391.477 293.458 396.797C287.083 402.117 279.952 380.697 279.952 380.697C279.952 380.697 355.787 384.679 279.951 390.481C370.447 390.481 263.375 382.214 272.884 381.374C279.778 380.764 246.428 378.387 255.012 380.697C288.413 374.597 356.618 366.167 400.899 368.637C400.835 368.687 446.815 259.887 481.98 243.177Z" fill="#FFB3A4"/>
<path d="M587.135 207.777C587.135 207.777 597.333 225.287 653.321 243.377C653.321 243.377 653.119 266.037 644.036 295.837C629.662 342.997 611.102 408.937 611.378 434.907C611.378 434.907 551.003 451.277 488.726 434.907C488.726 434.907 489.193 356.227 483.892 352.667C478.591 349.107 464.896 316.107 469.433 299.737C473.969 283.367 492.03 240.617 492.03 240.617C492.03 240.617 528.99 230.207 532.156 209.557C550.489 211.149 568.962 210.55 587.135 207.777V207.777Z" fill="#FFF4DE"/>
<path d="M273.581 736.687C263.914 770.517 232.605 802.897 234.539 810.167C236.472 817.437 248.53 826.347 245.375 837.807C243.165 845.807 225.466 841.927 211.751 848.357C198.035 854.787 202.529 861.467 180.495 862.187C158.461 862.907 139.901 862.187 139.901 862.187C139.901 862.187 140.284 854.187 150.334 852.367C160.384 850.547 193.191 832.367 203.241 795.617C212.547 761.617 215.607 736.687 215.607 736.687H273.581Z" fill="#FFB3A4"/>
<path d="M273.582 736.687C270.724 746.687 265.742 756.527 260.727 765.687C238.332 764.127 222.885 758.977 212.75 754.307C214.8 743.307 215.608 736.737 215.608 736.737L273.582 736.687Z" fill="#3A193F"/>
<path d="M489.171 425.317L473.384 440.237C467.583 441.687 310.297 488.617 289.039 515.897C267.78 543.177 198.608 741.417 198.608 741.417C198.608 741.417 227.973 760.827 299.099 753.517C299.099 753.517 339.661 673.777 345.462 564.277C345.462 564.277 525.165 575.927 551.448 535.177C577.731 494.427 555.347 432.957 555.347 432.957C555.347 432.957 509.08 431.027 489.171 425.317Z" fill="#A1CBE2"/>
<path d="M243.038 862.537H128.556C125.698 862.537 123.382 864.717 123.382 867.407V867.897C123.382 870.586 125.698 872.767 128.556 872.767H243.038C245.896 872.767 248.212 870.586 248.212 867.897V867.407C248.212 864.717 245.896 862.537 243.038 862.537Z" fill="#FF8989"/>
<path d="M197.578 862.537C197.578 862.537 183.151 846.667 180.442 831.007C179.486 825.467 161.191 833.497 150.908 837.477C122.956 848.287 128.81 862.537 128.81 862.537H197.578Z" fill="#FF8989"/>
<path d="M405.21 738.207C412.126 752.427 432.386 799.747 432.832 815.627C433.555 839.007 389.604 858.977 386.629 861.307C381.689 865.177 387.532 868.167 387.532 868.167C387.532 868.167 469.708 859.367 478.897 855.367C488.087 851.367 466.924 829.287 464.789 813.047C462.653 796.807 465.724 751.707 461.931 731.617L405.21 738.207Z" fill="#FFB3A4"/>
<path d="M464.003 761.327C451.457 765.197 435.064 769.437 419.383 771.007C413.954 757.317 408.27 744.507 405.2 738.207L461.985 731.617C463.398 739.017 463.865 749.827 464.003 761.327Z" fill="#3A193F"/>
<path d="M611.472 425.317C611.472 425.317 662.361 510.077 624.88 552.257C584.414 597.807 415.813 580.687 415.813 580.687C415.813 580.687 470.292 636.317 478.409 755.997C478.409 755.997 422.708 765.827 388.722 757.457C388.722 757.457 339.789 603.457 335.794 560.317C330.78 506.077 516.665 469.687 516.665 469.687L524.176 430.687C524.176 430.687 562.465 435.817 611.472 425.317Z" fill="#A1CBE2"/>
<path d="M485.151 855.674L371.528 868.862C368.693 869.192 366.677 871.622 367.027 874.292L367.09 874.778C367.44 877.448 370.023 879.345 372.859 879.016L486.481 865.827C489.317 865.498 491.332 863.067 490.982 860.397L490.919 859.911C490.569 857.242 487.986 855.345 485.151 855.674Z" fill="#FF8989"/>
<path d="M439.972 860.947C439.972 860.947 429.348 836.947 403.49 839.947C377.631 842.947 371.725 868.877 371.725 868.877L439.972 860.947Z" fill="#FF8989"/>
<path d="M695.912 406.927C666.919 424.237 525.93 370.357 525.93 370.357C525.93 370.357 517.431 381.867 508.05 381.867C498.669 381.867 489.989 378.427 485.102 381.987C480.215 385.547 475.116 391.327 471.376 391.837C466.893 392.527 462.298 392.131 458.022 390.687C458.022 390.687 461.209 385.347 464.556 380.207C461.571 382.097 457.512 386.307 455.249 387.957C454.365 388.657 453.258 389.059 452.104 389.101C450.95 389.143 449.813 388.821 448.875 388.187C448.875 388.187 455.419 379.657 457.948 377.397C460.476 375.137 467.658 372.207 472.205 370.637C477.198 368.817 506.084 358.197 520.342 356.637C535.47 354.977 658.675 366.367 658.675 366.367C658.675 366.367 630.617 300.567 628.801 283.517C626.123 258.367 637.48 243.097 651.111 243.077C675.376 242.987 719.953 392.577 695.912 406.927Z" fill="#FFB3A4"/>
<path d="M462.569 391.747C462.464 391.75 462.36 391.722 462.272 391.667C462.21 391.63 462.157 391.582 462.115 391.526C462.073 391.47 462.044 391.407 462.028 391.34C462.012 391.273 462.01 391.204 462.023 391.136C462.036 391.069 462.063 391.004 462.102 390.947C463.079 389.507 471.738 376.797 474.797 375.367C480.109 372.907 487.025 369.657 487.025 369.657L487.525 370.597L475.297 376.307C472.938 377.407 465.65 387.657 463.037 391.507C462.987 391.581 462.918 391.642 462.837 391.684C462.755 391.726 462.663 391.748 462.569 391.747V391.747Z" fill="#DB7800"/>
<path d="M468.646 391.747C468.546 391.746 468.448 391.721 468.363 391.672C468.277 391.623 468.207 391.554 468.16 391.47C468.113 391.387 468.091 391.294 468.096 391.2C468.102 391.106 468.134 391.015 468.19 390.937C468.53 390.457 476.636 379.317 479.738 377.877C485.05 375.407 491.966 372.167 491.966 372.167L492.465 373.097C492.465 373.097 485.538 376.347 480.237 378.807C477.868 379.907 471.398 388.357 469.103 391.527C469.051 391.595 468.982 391.65 468.903 391.688C468.824 391.727 468.736 391.747 468.646 391.747V391.747Z" fill="#DB7800"/>
<path d="M141.582 269.835C150.771 269.835 157.128 261.413 157.128 252.552V202.93C157.13 200.641 156.654 198.374 155.725 196.259C154.797 194.144 153.435 192.221 151.717 190.601C149.999 188.981 147.959 187.695 145.713 186.817C143.468 185.94 141.06 185.487 138.628 185.484H18.5978C16.1647 185.484 13.7555 185.936 11.5078 186.813C9.26009 187.69 7.21802 188.975 5.49835 190.595C3.77869 192.215 2.41515 194.139 1.48561 196.255C0.556071 198.372 0.0787931 200.64 0.0810627 202.93V252.552C0.0810627 257.175 2.0319 261.608 5.50447 264.876C8.97703 268.145 13.6869 269.981 18.5978 269.981H88.9511C106.224 269.981 115.448 295.995 115.448 295.995C115.448 295.995 121.355 269.835 141.582 269.835Z" fill="#FFF4DE"/>
<path d="M414.669 353.947H241.914C240.006 353.944 238.125 354.377 236.433 355.207C234.741 356.037 233.287 357.241 232.197 358.714C231.106 360.188 230.41 361.889 230.169 363.67C229.928 365.452 230.149 367.262 230.812 368.947L274.37 480.347H476.669L431.624 365.047C430.343 361.787 428.03 358.975 424.998 356.99C421.967 355.005 418.361 353.943 414.669 353.947Z" fill="#212333"/>
<path d="M411.268 359.597H242.816C240.96 359.597 239.131 360.019 237.485 360.828C235.839 361.636 234.424 362.807 233.363 364.241C232.301 365.674 231.622 367.328 231.385 369.062C231.148 370.795 231.36 372.557 232.001 374.197L274.497 482.827H471.729L427.81 370.457C426.563 367.272 424.309 364.523 421.351 362.581C418.393 360.64 414.874 359.598 411.268 359.597Z" fill="#64688F" fill-opacity="0.65"/>
<path d="M273.977 480.317H605.356C607.58 480.317 609.782 480.729 611.836 481.53C613.891 482.331 615.758 483.505 617.33 484.985C618.903 486.465 620.15 488.223 621.001 490.157C621.852 492.09 622.29 494.163 622.29 496.257V496.687H290.911C286.42 496.687 282.112 495.007 278.937 492.018C275.761 489.028 273.977 484.974 273.977 480.747V480.317Z" fill="#64688F"/>
<path d="M361.505 434.232C367.692 427.764 365.833 416.693 357.353 409.505C348.872 402.318 336.981 401.734 330.793 408.203C324.606 414.671 326.465 425.742 334.946 432.929C343.427 440.117 355.318 440.7 361.505 434.232Z" fill="#AB87AC"/>
<path d="M519.441 486.177H505.322V490.947H519.441V486.177Z" fill="#3A193F"/>
<path d="M546.415 486.177H532.296V490.947H546.415V486.177Z" fill="#A1879F"/>
<path d="M539.392 174.597C539.392 174.597 548.167 175.537 555.2 165.667" stroke="#3A1A3F" stroke-width="3" stroke-linecap="round" stroke-linejoin="round"/>
<path d="M574.312 146.277C574.312 146.277 574.312 137.157 582.811 137.277" stroke="#E2564B" stroke-width="3" stroke-linecap="round" stroke-linejoin="round"/>
<path d="M576.278 141.347L581.941 143.837" stroke="#E2564B" stroke-width="3" stroke-linecap="round" stroke-linejoin="round"/>
<path d="M589.462 155.707C591.838 155.707 593.765 153.893 593.765 151.657C593.765 149.42 591.838 147.607 589.462 147.607C587.086 147.607 585.159 149.42 585.159 151.657C585.159 153.893 587.086 155.707 589.462 155.707Z" fill="#FFCDC5"/>
<path d="M533.601 147.607V163.237L538.031 164.927" stroke="#E2564B" stroke-width="3" stroke-linecap="round" stroke-linejoin="round"/>
<path d="M541.08 134.127C541.08 134.127 545.935 130.587 554.317 134.127" stroke="#3A1A3F" stroke-width="3" stroke-linecap="round" stroke-linejoin="round"/>
<path d="M549.198 148.849C550.787 148.586 551.783 146.804 551.423 144.867C551.062 142.931 549.482 141.573 547.892 141.835C546.303 142.098 545.307 143.88 545.668 145.817C546.028 147.753 547.609 149.111 549.198 148.849Z" fill="#242854"/>
<path d="M522.557 155.221C524.127 154.873 525.013 153.04 524.534 151.126C524.056 149.212 522.395 147.942 520.824 148.29C519.254 148.638 518.368 150.472 518.847 152.386C519.325 154.299 520.986 155.569 522.557 155.221Z" fill="#242854"/>
<path d="M388.724 757.447C388.724 757.447 339.791 603.447 335.796 560.307C330.781 506.077 516.667 469.687 516.667 469.687" stroke="#639AD6" stroke-width="3" stroke-miterlimit="10"/>
<path d="M82.8923 211.597C81.7883 214.511 80.6077 217.577 79.3503 220.797C78.1237 223.987 76.897 227.13 75.6703 230.227C74.4743 233.325 73.3397 236.269 72.2663 239.059C71.193 241.85 70.2883 244.257 69.5523 246.281L62.1003 227.651C62.0083 227.406 61.9317 227.222 61.8703 227.099C61.809 226.977 61.7477 226.793 61.6863 226.547C61.6863 226.67 61.671 226.793 61.6403 226.915C61.6097 227.007 61.579 227.115 61.5483 227.237C61.5177 227.36 61.487 227.483 61.4563 227.605C60.4137 229.997 59.3863 232.343 58.3743 234.643C57.945 235.625 57.5003 236.637 57.0403 237.679C56.5803 238.722 56.1357 239.765 55.7063 240.807C55.277 241.819 54.8477 242.801 54.4183 243.751C54.0197 244.702 53.6517 245.561 53.3143 246.327C51.1063 240.531 48.883 234.751 46.6443 228.985C44.4057 223.22 42.1823 217.424 39.9743 211.597H45.6323C46.3683 213.621 47.1197 215.661 47.8863 217.715C48.6837 219.77 49.4197 221.748 50.0943 223.649C50.7997 225.551 51.4283 227.314 51.9803 228.939C52.5323 230.565 52.9617 231.945 53.2683 233.079L53.6363 234.689C53.667 234.536 53.7437 234.291 53.8663 233.953C53.989 233.585 54.081 233.325 54.1423 233.171C54.173 233.049 54.2803 232.773 54.4643 232.343C54.6483 231.914 54.863 231.408 55.1083 230.825C55.3537 230.212 55.6297 229.553 55.9363 228.847C56.243 228.142 56.5497 227.421 56.8563 226.685C57.5923 224.999 58.405 223.128 59.2943 221.073C58.773 219.632 58.313 218.283 57.9143 217.025C57.5463 215.952 57.1937 214.894 56.8563 213.851C56.5497 212.809 56.3197 212.057 56.1663 211.597H60.9963C62.315 215.063 63.5417 218.267 64.6763 221.211C65.1363 222.469 65.5963 223.726 66.0563 224.983C66.547 226.241 66.9917 227.406 67.3903 228.479C67.8197 229.553 68.1877 230.503 68.4943 231.331C68.801 232.129 69.0157 232.711 69.1383 233.079C69.2303 233.355 69.2917 233.631 69.3223 233.907C69.3837 234.153 69.445 234.413 69.5063 234.689C69.5677 234.413 69.6137 234.137 69.6443 233.861C69.7057 233.585 69.767 233.325 69.8283 233.079C70.1043 231.883 70.5337 230.457 71.1163 228.801C71.699 227.145 72.343 225.367 73.0483 223.465C73.7843 221.564 74.551 219.601 75.3483 217.577C76.1457 215.523 76.9123 213.529 77.6483 211.597H82.8923ZM87.3655 211.459H92.3795V244.809H87.3655V211.459ZM100.573 244.809V211.459H122.469V216.013H105.633V225.765H120.629V230.411H105.633V240.163H123.113V244.809H100.573Z" fill="#AB87AC"/>
<path d="M421.596 194.197C431.182 194.197 437.813 185.411 437.813 176.167V124.4C437.816 122.012 437.318 119.647 436.35 117.44C435.381 115.233 433.96 113.228 432.168 111.538C430.376 109.848 428.248 108.506 425.905 107.591C423.562 106.675 421.051 106.202 418.514 106.2H293.294C290.756 106.2 288.242 106.671 285.897 107.586C283.552 108.501 281.422 109.841 279.628 111.532C277.834 113.222 276.412 115.228 275.442 117.436C274.472 119.645 273.974 122.011 273.977 124.4V176.167C273.977 180.99 276.012 185.614 279.634 189.024C283.257 192.434 288.171 194.35 293.294 194.35H366.689C384.709 194.35 394.331 221.489 394.331 221.489C394.331 221.489 400.494 194.197 421.596 194.197Z" fill="#FFF4DE"/>
<path d="M293.348 133.487H298.362V166.837H293.348V133.487ZM335.811 133.487V168.355C335.382 167.803 334.554 166.913 333.327 165.687C332.1 164.46 330.69 163.049 329.095 161.455C327.5 159.86 325.798 158.189 323.989 156.441C322.21 154.693 320.524 153.037 318.929 151.473C317.334 149.878 315.939 148.467 314.743 147.241C313.547 145.983 312.75 145.094 312.351 144.573L311.477 143.377L311.615 144.849V166.837H306.555V131.923C306.892 132.352 307.444 132.965 308.211 133.763C309.008 134.56 309.928 135.495 310.971 136.569C312.044 137.611 313.21 138.746 314.467 139.973C315.755 141.199 317.043 142.441 318.331 143.699C319.65 144.956 320.938 146.198 322.195 147.425C323.483 148.621 324.648 149.74 325.691 150.783C326.764 151.825 327.684 152.745 328.451 153.543C329.218 154.34 329.754 154.938 330.061 155.337L330.935 156.625L330.797 155.061V133.487H335.811ZM363.11 135.327L361.316 139.421C360.058 138.961 358.801 138.593 357.544 138.317C356.317 138.041 355.136 137.903 354.002 137.903C352.07 137.903 350.521 138.301 349.356 139.099C348.221 139.896 347.654 140.908 347.654 142.135C347.654 143.177 348.068 144.021 348.896 144.665C349.724 145.278 350.751 145.845 351.978 146.367C353.204 146.857 354.538 147.363 355.98 147.885C357.421 148.375 358.755 149.019 359.982 149.817C361.208 150.614 362.236 151.626 363.064 152.853C363.892 154.049 364.306 155.597 364.306 157.499C364.306 158.971 364.03 160.305 363.478 161.501C362.956 162.666 362.159 163.678 361.086 164.537C360.043 165.395 358.724 166.055 357.13 166.515C355.566 166.975 353.726 167.205 351.61 167.205C350.26 167.205 349.034 167.113 347.93 166.929C346.856 166.745 345.875 166.515 344.986 166.239C344.127 165.932 343.36 165.61 342.686 165.273C342.042 164.935 341.49 164.629 341.03 164.353L343.238 159.983C344.464 160.688 345.829 161.255 347.332 161.685C348.834 162.114 350.199 162.329 351.426 162.329C352.039 162.329 352.79 162.252 353.68 162.099C354.6 161.945 355.474 161.685 356.302 161.317C357.13 160.918 357.835 160.397 358.418 159.753C359.031 159.109 359.338 158.296 359.338 157.315C359.338 156.425 359.092 155.674 358.602 155.061C358.142 154.417 357.513 153.865 356.716 153.405C355.949 152.914 355.06 152.485 354.048 152.117C353.066 151.718 352.054 151.319 351.012 150.921C349.969 150.491 348.942 150.047 347.93 149.587C346.948 149.127 346.059 148.575 345.262 147.931C344.495 147.256 343.866 146.489 343.376 145.631C342.916 144.741 342.686 143.683 342.686 142.457C342.686 141.322 342.916 140.203 343.376 139.099C343.836 137.995 344.526 137.013 345.446 136.155C346.366 135.296 347.5 134.606 348.85 134.085C350.23 133.563 351.824 133.303 353.634 133.303C354.738 133.303 355.811 133.395 356.854 133.579C357.927 133.763 358.893 133.977 359.752 134.223C360.61 134.437 361.331 134.652 361.914 134.867C362.527 135.081 362.926 135.235 363.11 135.327ZM390.1 166.837C389.946 166.499 389.732 166.009 389.456 165.365C389.18 164.721 388.858 163.985 388.49 163.157C388.152 162.298 387.769 161.378 387.34 160.397C386.941 159.385 386.527 158.342 386.098 157.269H374.322L370.366 166.837H365.398L380.256 131.923C380.44 132.352 380.762 133.134 381.222 134.269C381.712 135.403 382.28 136.768 382.924 138.363C383.598 139.927 384.334 141.675 385.132 143.607C385.96 145.508 386.788 147.44 387.616 149.403C388.474 151.365 389.302 153.297 390.1 155.199C390.928 157.1 391.679 158.848 392.354 160.443C393.028 162.037 393.596 163.402 394.056 164.537C394.546 165.641 394.884 166.407 395.068 166.837H390.1ZM376.07 153.037H384.396C383.966 152.025 383.552 151.059 383.154 150.139C382.786 149.188 382.433 148.329 382.096 147.563C381.789 146.765 381.513 146.075 381.268 145.493C381.022 144.91 380.838 144.45 380.716 144.113C380.685 144.051 380.608 143.837 380.486 143.469C380.394 143.101 380.317 142.763 380.256 142.457C380.194 142.763 380.102 143.101 379.98 143.469C379.857 143.837 379.78 144.051 379.75 144.113L376.07 153.037ZM415.631 133.487V138.271H407.213V166.837H402.199V138.271H393.965V133.487H415.631Z" fill="#AB87AC"/>
<path d="M211.458 84.2156C220.647 84.2156 227.004 75.7936 227.004 66.9325V17.3107C227.006 15.0219 226.53 12.755 225.601 10.6396C224.673 8.52412 223.311 6.60153 221.593 4.98155C219.875 3.36157 217.835 2.07593 215.589 1.19805C213.343 0.320164 210.936 -0.132754 208.504 -0.134888H88.4738C86.0407 -0.134889 83.6314 0.316456 81.3837 1.19338C79.1361 2.07031 77.094 3.35561 75.3743 4.9758C73.6547 6.59599 72.2911 8.51934 71.3616 10.6359C70.432 12.7524 69.9548 15.0205 69.957 17.3107V66.9325C69.957 71.5551 71.9079 75.9883 75.3804 79.257C78.853 82.5256 83.5628 84.3619 88.4738 84.3619H158.827C176.1 84.3619 185.324 110.376 185.324 110.376C185.324 110.376 191.231 84.2156 211.458 84.2156Z" fill="#FFF4DE"/>
<path d="M97.9807 26.1274H102.995V59.4774H97.9807V26.1274ZM111.188 59.4774V26.1274H133.084V30.6814H116.248V40.4334H131.244V45.0794H116.248V54.8314H133.728V59.4774H111.188ZM139.578 59.4774V26.1274H161.474V30.6814H144.638V40.4334H159.634V45.0794H144.638V54.8314H162.118V59.4774H139.578ZM167.969 59.4774V26.1274H189.865V30.6814H173.029V40.4334H188.025V45.0794H173.029V54.8314H190.509V59.4774H167.969Z" fill="#AB87AC"/>
</g>
<defs>
<clipPath id="clip0_85_2">
<rect width="745" height="880" fill="white"/>
</clipPath>
</defs>
</svg>
