<svg width="400" height="676" viewBox="0 0 400 676" fill="none" xmlns="http://www.w3.org/2000/svg">
<path opacity="0.6" d="M300.18 374.604H289.412" stroke="white" stroke-width="6" stroke-miterlimit="10" stroke-linecap="round"/>
<path d="M22.0262 562.392C22.2482 562.416 22.3472 562.539 22.2242 562.638C22.3232 562.76 22.3232 562.76 22.2982 562.982C22.7652 564.506 23.0942 566.069 23.2832 567.652L4.32123 582.891L2.22321 580.532C2.22321 580.532 9.22024 571.875 11.8492 569.358C12.9792 568.247 13.9872 567.236 14.9942 566.224C15.8782 565.311 16.6632 564.275 17.4252 563.461C18.4802 562.006 21.5593 562.565 21.5833 562.343C21.7063 562.245 22.0262 562.392 22.0262 562.392Z" fill="#233B62"/>
<path d="M165.391 429.981L147.089 447.725L44.7158 546.584L42.8478 548.287L42.0388 549.545L41.9158 549.643L27.4148 571.613L25.7948 574.127L25.2558 574.966L15.4408 589.933L23.5248 593.953L25.8668 595.105L29.1688 596.697L34.3698 599.394L34.4688 599.516L39.9898 602.36L40.2598 601.941L52.8618 577.858C55.3068 573.207 58.7338 569.142 62.9048 565.944L174.221 480.73L195.383 464.531L165.391 429.981Z" fill="#FFCCB3"/>
<path d="M28.8192 550.46C33.7262 548.182 39.2342 546.144 44.6172 546.461C41.3712 549.304 39.8931 554.362 37.7491 558.048C33.3361 565.638 22.0251 579.741 27.8041 591.727C31.0511 598.462 40.1372 602.04 40.2602 601.941C41.7802 608.857 49.3162 637.012 34.2952 620.691C25.9072 611.577 17.5852 601.841 13.4012 592.178C11.6862 588.216 15.3142 584.263 17.0942 580.918C19.3722 575.856 22.7792 569.152 22.3492 563.549L22.2502 563.426C22.0032 563.038 2.55314 580.451 2.22314 580.533C1.55614 579.45 0.000183105 577.263 0.000183105 577.263C0.000183105 577.263 27.8852 550.807 28.8192 550.46Z" fill="#1C85E8"/>
<path d="M238.285 642.556C238.46 642.418 238.617 642.437 238.598 642.594C238.754 642.613 238.754 642.613 238.892 642.788C240.291 643.551 241.62 644.438 242.862 645.437L239.964 669.591L236.815 669.372C236.815 669.372 235.762 658.29 235.881 654.653C235.912 653.069 235.925 651.641 235.937 650.214C235.931 648.943 235.768 647.653 235.743 646.538C235.48 644.76 238.072 643.007 237.934 642.832C237.953 642.675 238.285 642.556 238.285 642.556Z" fill="#233B62"/>
<path d="M248.17 447.65L247.495 473.133L243.45 615.39L243.305 617.913L243.606 619.378L243.587 619.534L248.585 645.38L249.185 648.31L249.386 649.286L252.836 666.848L261.427 664.068L263.906 663.254L267.38 662.083L272.984 660.374L273.14 660.393L279.076 658.564L278.975 658.076L271.142 632.049C269.637 627.014 269.244 621.711 269.99 616.509L289.97 477.752L293.77 451.374L248.17 447.65Z" fill="#FFCCB3"/>
<path d="M234.797 629.276C236.711 624.217 239.223 618.908 243.293 615.371C242.961 619.672 245.441 624.322 246.487 628.456C248.639 636.967 250.416 654.959 262.929 659.485C269.96 662.028 278.957 658.232 278.976 658.076C284.899 661.957 309.974 676.812 287.824 675.65C275.454 675.001 262.697 673.861 252.949 669.879C248.952 668.247 248.781 662.884 247.715 659.248C245.803 654.037 243.551 646.862 239.325 643.157L239.168 643.138C238.72 643.034 236.994 669.082 236.815 669.372C235.581 669.065 232.939 668.59 232.939 668.59C232.939 668.59 234.372 630.178 234.797 629.276Z" fill="#1C85E8"/>
<path d="M275.751 256.457L311.94 409.277L312.006 420.126L282.579 601.08L235.725 596.008L249.317 423.187L212.04 333.016L219.576 259.07L275.751 256.457Z" fill="#1F2D49"/>
<path d="M280.817 446.396C263.341 446.396 249.173 432.228 249.173 414.752C249.173 397.275 263.341 383.108 280.817 383.108C298.294 383.108 312.461 397.275 312.461 414.752C312.461 432.228 298.294 446.396 280.817 446.396Z" fill="#1F2D49"/>
<path d="M237.44 394.458L246.365 318.953L249.317 423.187L237.44 394.458Z" fill="#0D1B33"/>
<path d="M178.067 255.981C178.067 255.981 161.193 284.326 160.971 308.065C160.639 343.693 173.48 407.575 173.48 407.575L61.3002 520.972L88.0023 561.02C88.0023 561.02 183.735 481.588 224.24 443.86L233.313 425.49L246.365 318.954L226.415 255.981H178.067Z" fill="#1F2D49"/>
<path d="M275.751 256.457L177.486 257.467L167.937 277.229L277.411 263.47L275.751 256.457Z" fill="#0D1B33"/>
<path d="M201.951 453.042C184.475 453.042 170.307 438.875 170.307 421.398C170.307 403.922 184.475 389.754 201.951 389.754C219.428 389.754 233.595 403.922 233.595 421.398C233.595 438.875 219.428 453.042 201.951 453.042Z" fill="#1F2D49"/>
<path d="M287.222 46.457C287.222 46.457 285.903 61.147 289.779 75.266C293.655 89.386 323.001 119.287 296.977 143.65C270.952 168.014 239.114 102.675 239.114 102.675L249.081 72.498L283.547 36.639L287.222 46.457Z" fill="#1F2D49"/>
<path d="M207.821 49.886C207.821 49.886 200.01 59.809 182.22 67.918C164.757 75.878 145.951 88.959 149.827 117.475C153.703 145.992 205.323 123.843 220.488 107.508C235.653 91.174 233.566 62.01 233.566 62.01L207.821 49.886Z" fill="#1F2D49"/>
<path d="M247.743 103.319C247.743 103.319 267.552 111.157 270.577 113.577C273.601 115.996 276.473 135.743 281.615 145.119C286.756 154.495 294.278 171.8 283.292 187.695C272.306 203.59 273.474 216.213 273.474 216.213L275.812 256.087L181.132 257.832C180.298 257.858 179.468 257.707 178.697 257.388C177.926 257.07 177.232 256.592 176.66 255.985C176.087 255.378 175.65 254.656 175.378 253.868C175.105 253.08 175.003 252.243 175.078 251.412C176.13 239.787 180.936 223.46 181.313 204.949C181.825 179.86 182.208 96.032 182.208 96.032L223.453 94.738C231.761 96.17 247.743 103.319 247.743 103.319Z" fill="#FEBB94"/>
<path d="M198.441 130.299C198.441 130.299 212.239 142.88 213.051 152.214C213.862 161.548 215.739 187.573 233.471 190.169C255.207 193.351 260.896 196.449 250.82 198.884C240.744 201.319 217.877 197.374 217.877 207.812C217.877 215.241 208.992 220.799 204.528 216.74C200.064 212.682 164.507 150.997 198.441 130.299Z" fill="#FF967C"/>
<path d="M364.852 140.844L372.332 131.27C373.897 129.028 375.98 127.196 378.403 125.929C382.084 124.087 387.727 120.649 389.688 117.212C392.938 111.75 405.746 96.998 394.636 85.53C390.523 81.298 391.551 82.299 383.33 82.426C375.109 82.552 373.847 91.083 369.739 96.668C369.739 96.668 368.816 90.226 364.275 87.284C359.733 84.341 362.747 102.315 359.253 109.127C355.76 115.939 358.583 118.515 350.306 130.482L364.852 140.844Z" fill="#FFCCB3"/>
<path d="M384.581 83.4089L377.9 98.5659L384.581 83.4089Z" fill="#E56441"/>
<path d="M384.581 83.4089L377.9 98.5659" stroke="#E56441" stroke-width="0.94666" stroke-linecap="round"/>
<path d="M393.294 86.104L384.037 102.244L393.294 86.104Z" fill="#E56441"/>
<path d="M393.294 86.104L384.037 102.244" stroke="#E56441" stroke-width="0.94666" stroke-linecap="round"/>
<path d="M398.76 96.7161L391.463 106.352L398.76 96.7161Z" fill="#E56441"/>
<path d="M398.76 96.7161L391.463 106.352" stroke="#E56441" stroke-width="0.94666" stroke-linecap="round"/>
<path d="M371.458 100.103C371.458 100.103 374.285 108.2 373.796 114.581L371.458 100.103Z" fill="#E56441"/>
<path d="M371.458 100.103C371.458 100.103 374.285 108.2 373.796 114.581" stroke="#E56441" stroke-width="0.94666" stroke-linecap="round"/>
<path d="M265.764 110.968C273.444 113.63 284.149 119.029 287.047 125.053L312.644 183.365L355.273 118.592L371.416 135.594L331.605 217.936C324.33 236.042 305.85 242.845 292.464 223.33L271.076 189.738L265.764 110.968Z" fill="#FEBB94"/>
<path d="M276.68 161.166C276.68 161.166 278.988 157.184 278.988 177.966L292.463 223.331L271.076 189.738C253.918 166.67 267.473 160.508 276.68 161.166Z" fill="#FF967C"/>
<path d="M229.752 133.652L300.46 161.816C302.657 162.691 303.728 165.182 302.853 167.379L267.463 256.227C266.588 258.423 264.098 259.495 261.901 258.62L191.193 230.456C188.996 229.58 187.925 227.09 188.8 224.893L224.19 136.045C225.065 133.848 227.555 132.777 229.752 133.652Z" fill="#1C85E8"/>
<path d="M289.671 170.174L260.514 158.56" stroke="white" stroke-width="4" stroke-miterlimit="10" stroke-linecap="round"/>
<path d="M285.268 180.612L271.978 175.318" stroke="white" stroke-width="4" stroke-miterlimit="10" stroke-linecap="round"/>
<path d="M250.25 82.433L249.137 113.601C249.137 113.601 250.661 120.427 243.657 119.669C236.652 118.912 227.221 113.397 221.92 107.338C216.619 101.28 216.981 100.794 219.253 96.819C221.525 92.843 232.191 62.543 232.191 62.543L250.25 82.433Z" fill="#FFCCB3"/>
<path d="M250.091 85.047L237.175 76.822C237.175 76.822 242.898 101.939 249.137 113.601L250.091 85.047Z" fill="#FCBA9F"/>
<path d="M284.916 35.7879C284.916 35.7879 285.122 66.8079 271.739 82.4179C263.011 92.5979 253.83 91.249 238.515 74.489C224.473 59.122 222.504 51.1119 222.504 51.1119L232.2 20.6799C232.2 20.6799 283.339 7.55794 284.916 35.7879Z" fill="#FFCCB3"/>
<path d="M271.598 28.592C271.598 28.592 265.993 42.206 255.582 46.01C245.171 49.814 242.448 56.887 242.448 56.887C242.448 56.887 240.451 45.248 232.269 45.671C224.087 46.095 225.749 60.54 230.828 65.336C230.828 65.336 224.719 76.666 219.538 85.047L196.852 62.531C196.852 62.531 208.541 49.018 211.111 38.145C213.681 27.272 221.999 -1.83701 253.71 0.0909923C290.942 2.35499 288.803 32.609 287.222 49.413C287.222 49.413 275.546 44.937 271.598 28.592Z" fill="#1F2D49"/>
<path d="M267.568 72.826L258.518 68.386C258.51 68.438 258.502 68.492 258.495 68.549C258.433 69.024 258.405 69.677 258.535 70.394C258.789 71.798 259.653 73.5 262.225 74.607C263.876 75.142 265.284 74.613 266.317 73.911C266.835 73.559 267.248 73.169 267.531 72.866C267.544 72.852 267.556 72.839 267.568 72.826Z" fill="#E56441" stroke="#E56441"/>
<path d="M277.428 60.229C276.284 59.947 275.694 58.351 276.11 56.665C276.526 54.979 277.791 53.842 278.935 54.124C280.079 54.407 280.669 56.002 280.253 57.688C279.836 59.374 278.572 60.511 277.428 60.229Z" fill="#080B09"/>
<path d="M260.468 56.2991C259.324 56.0161 258.734 54.4211 259.15 52.7351C259.567 51.0491 260.831 49.9111 261.975 50.1941C263.119 50.4761 263.709 52.0721 263.293 53.7571C262.877 55.4431 261.612 56.5811 260.468 56.2991Z" fill="#080B09"/>
<path d="M284.008 51.139L275.377 49.158C275.233 49.112 275.111 49.015 275.033 48.886C274.954 48.757 274.926 48.604 274.952 48.455C275.048 48.201 275.194 47.969 275.382 47.774C275.57 47.578 275.796 47.422 276.046 47.316C276.295 47.21 276.564 47.156 276.835 47.157C277.107 47.157 277.375 47.213 277.624 47.32L284.392 50.187C284.956 50.327 284.712 51.313 284.008 51.139Z" fill="#080B09"/>
<path d="M255.028 43.4139L266.269 46.9369C266.344 46.5859 266.345 46.2229 266.271 45.8709C266.197 45.5199 266.051 45.1879 265.841 44.8969C265.631 44.6059 265.363 44.3619 265.053 44.1799C264.743 43.9989 264.398 43.8849 264.042 43.8449L255.06 42.6739C254.779 42.6049 254.605 43.3099 255.028 43.4139Z" fill="#080B09"/>
<path d="M271.375 54.592L272.594 63.693L269.379 65.245" fill="#E56441"/>
<path d="M271.375 54.592L272.594 63.693L269.379 65.245" stroke="#E56441" stroke-width="0.94666" stroke-linecap="round"/>
<path d="M262.818 214.168L290.696 222.166L294.104 239.345L287.761 258.358C287.761 258.358 283.302 255.358 284.232 248.36C285.162 241.362 261.604 241.562 257.287 232.764" fill="#FFCCB3"/>
<path d="M199.136 119.481C199.136 119.481 199.319 95.867 180.401 95.865C167.718 95.863 161.644 101.811 160.027 120.375C158.897 133.355 158.078 204.567 158.078 204.567C158.078 204.567 154.887 237.068 182.453 237.676L262.059 235.291L263.856 213.05L194.463 206.133L199.136 119.481Z" fill="#FEBB94"/>
<path d="M256.7 116.529C256.7 116.529 249.522 114.485 250.686 107.434C251.82 100.495 251.864 94.472 249.587 95.31C249.587 95.31 247.578 98.756 235.085 94.927C222.673 91.241 223.452 86.982 223.452 86.982C223.452 86.982 221.696 85.426 220.384 89.42C219.074 93.415 215.749 104.474 208.72 103.678L206.82 124.293L244.203 136.599C244.285 136.742 261.563 120.004 256.7 116.529Z" fill="#FEBB94"/>
<path d="M312.69 183.344L300.72 201.129L307.103 170.744L312.69 183.344Z" fill="#FF967C"/>
</svg>
