<svg id="svg2" width="269" height="128" viewBox="0 0 269 128" fill="none" xmlns="http://www.w3.org/2000/svg">
<path d="M4.14933 1.08035H123.465C125.314 1.08035 126.807 2.57043 126.807 4.40362V76.7576C126.807 78.5906 125.314 80.0804 123.465 80.0804H4.14933C2.30134 80.0804 0.807373 78.5906 0.807373 76.7576V4.40362C0.807373 2.57045 2.30142 1.08035 4.14933 1.08035Z" fill="#93E1D8" stroke="#5893A6"/>
<path d="M9.30737 43.3512C9.30737 43.3512 19.7891 41.1375 23.1135 46.2481C26.4379 51.3582 29.7624 60.9577 37.2982 59.7131C44.8335 58.4681 48.4704 33.3595 56.0057 33.5819C63.5411 33.8038 62.3426 50.2472 70.543 50.4696C78.7434 50.6915 76.4579 41.2795 81.9328 41.5369C88.5746 41.8492 87.8302 61.3566 96.4739 61.579C105.117 61.8009 104.231 35.805 117.307 36.2493" stroke="white" stroke-width="6.35676" stroke-miterlimit="10" stroke-linecap="round"/>
<path d="M12.3074 12.5804H33.3074" stroke="white" stroke-width="10.0826" stroke-miterlimit="10" stroke-linecap="round"/>
<path opacity="0.4" d="M12.3074 22.5804H55.3074" stroke="#001F5A" stroke-width="10.0826" stroke-miterlimit="10" stroke-linecap="round"/>
<path d="M153.049 59.5804H174.049" stroke="white" stroke-width="10.0826" stroke-miterlimit="10" stroke-linecap="round"/>
<path opacity="0.4" d="M153.049 69.5804H196.049" stroke="#001F5A" stroke-width="10.0826" stroke-miterlimit="10" stroke-linecap="round"/>
<path d="M75.8864 22.0804H195.202C197.051 22.0804 198.544 23.5705 198.544 25.4036V97.7576C198.544 99.5907 197.051 101.08 195.202 101.08H75.8864C74.0384 101.08 72.5444 99.5906 72.5444 97.7576V25.4036C72.5444 23.5705 74.0385 22.0804 75.8864 22.0804Z" fill="#93BCE1" stroke="#5893A6"/>
<path d="M81.0444 64.3512C81.0444 64.3512 91.5261 62.1375 94.8505 67.2481C98.1749 72.3582 101.499 81.9577 109.035 80.7131C116.571 79.4681 120.207 54.3595 127.743 54.5819C135.278 54.8038 134.08 71.2472 142.28 71.4696C150.48 71.6915 148.195 62.2795 153.67 62.5369C160.312 62.8492 159.567 82.3566 168.211 82.579C176.854 82.8009 175.968 56.805 189.044 57.2493" stroke="white" stroke-width="6.35676" stroke-miterlimit="10" stroke-linecap="round"/>
<path d="M84.0444 33.5804H105.044" stroke="white" stroke-width="10.0826" stroke-miterlimit="10" stroke-linecap="round"/>
<path d="M144.891 48.0804H264.207C266.055 48.0804 267.549 49.5705 267.549 51.4037V123.758C267.549 125.591 266.055 127.08 264.207 127.08H144.891C143.043 127.08 141.549 125.591 141.549 123.758V51.4037C141.549 49.5705 143.043 48.0804 144.891 48.0804Z" fill="#93DCE1" stroke="#5893A6"/>
<path d="M150.049 90.3512C150.049 90.3512 160.53 88.1375 163.855 93.2481C167.179 98.3582 170.504 107.958 178.039 106.713C185.575 105.468 189.212 80.3595 196.747 80.5819C204.282 80.8038 203.084 97.2472 211.284 97.4696C219.485 97.6915 217.199 88.2795 222.674 88.5369C229.316 88.8492 228.571 108.357 237.215 108.579C245.859 108.801 244.973 82.805 258.049 83.2493" stroke="white" stroke-width="6.35676" stroke-miterlimit="10" stroke-linecap="round"/>
<path opacity="0.4" d="M84.0444 43.5804H127.044" stroke="#001F5A" stroke-width="10.0826" stroke-miterlimit="10" stroke-linecap="round"/>
<path d="M152.549 56.5804H173.549" stroke="white" stroke-width="10.0826" stroke-miterlimit="10" stroke-linecap="round"/>
<path opacity="0.4" d="M152.549 66.5804H195.549" stroke="#001F5A" stroke-width="10.0826" stroke-miterlimit="10" stroke-linecap="round"/>
</svg>
