<svg width="548" height="263" viewBox="0 0 548 263" fill="none" xmlns="http://www.w3.org/2000/svg">
<path d="M385.688 77.7483C378.928 122.308 397.688 162.118 397.688 162.118C397.688 162.118 427.458 129.678 434.218 85.1183C440.978 40.5583 422.168 0.748291 422.168 0.748291C422.168 0.748291 392.448 33.1883 385.688 77.7483Z" fill="#852747"/>
<path d="M332.951 211.834C310.356 221.388 297.248 241.445 297.248 241.445C297.248 241.445 320.774 246.016 343.369 236.463C365.963 226.91 379.067 206.843 379.067 206.843C379.067 206.843 355.541 202.272 332.951 211.834Z" fill="#852747"/>
<path d="M328.967 81.0283C351.797 106.118 356.627 138.908 356.627 138.908C356.627 138.908 324.447 131.008 301.627 105.908C278.807 80.8083 273.967 48.0283 273.967 48.0283C273.967 48.0283 306.137 55.9283 328.967 81.0283Z" fill="#852747"/>
<path d="M4.60388 178.477L22.1838 186.937L164.184 255.397L176.714 261.397C177.573 261.804 178.506 262.031 179.455 262.065C180.405 262.1 181.351 261.94 182.237 261.597C183.123 261.253 183.93 260.733 184.609 260.068C185.287 259.403 185.823 258.606 186.184 257.727C186.516 256.904 186.686 256.025 186.684 255.137V214.697C186.684 212.849 187.415 211.076 188.716 209.765C190.018 208.454 191.786 207.71 193.634 207.697H540.234C542.082 207.697 543.855 206.967 545.166 205.665C546.477 204.363 547.221 202.595 547.234 200.747V143.647C547.234 141.791 546.496 140.01 545.184 138.697C543.871 137.385 542.09 136.647 540.234 136.647H193.634C191.795 136.634 190.035 135.898 188.734 134.597C187.433 133.297 186.697 131.536 186.684 129.697V88.3572C186.686 87.4697 186.516 86.5901 186.184 85.7672C185.821 84.8873 185.283 84.0905 184.603 83.4256C183.922 82.7607 183.113 82.2415 182.224 81.8999C181.336 81.5583 180.388 81.4014 179.437 81.4387C178.486 81.4761 177.553 81.7069 176.694 82.1172L164.184 88.2072L22.1838 157.387L4.57385 165.937C3.40774 166.52 2.42749 167.416 1.74329 168.525C1.05909 169.635 0.698176 170.913 0.701294 172.216C0.704412 173.52 1.07136 174.797 1.76086 175.903C2.45037 177.009 3.435 177.9 4.60388 178.477Z" fill="#1C3041"/>
</svg>
