<svg width="136" height="136" viewBox="0 0 136 136" fill="none" xmlns="http://www.w3.org/2000/svg">
<path d="M134.441 28.7814C132.941 29.7564 130.804 30.6564 129.904 31.6689C129.566 32.0064 129.379 32.3814 129.454 32.7564V36.6189L128.329 40.4064L127.204 44.1564L125.966 48.2814L123.416 56.7189L120.941 65.0439L119.066 71.3064C119.066 72.2814 119.029 73.2564 118.954 74.1939C118.691 77.7939 117.941 81.2439 116.741 84.4689C116.029 86.4564 115.166 88.3689 114.116 90.1689C113.741 90.8814 113.291 91.5939 112.841 92.2689C111.341 94.6314 109.541 96.8064 107.554 98.7189C106.016 100.256 104.329 101.681 102.491 102.881C102.491 102.881 102.491 102.881 102.454 102.881C102.154 103.144 101.816 103.369 101.441 103.556C100.279 104.344 99.0412 105.019 97.7662 105.619C96.9037 106.069 96.0412 106.444 95.1412 106.781C94.9537 106.894 94.7287 106.969 94.5412 107.044C92.4037 108.056 89.9287 108.731 87.4537 109.069C87.3037 109.106 87.1912 109.106 87.0412 109.144C85.5412 109.406 84.0787 109.631 82.5787 109.744C81.9037 109.819 81.1912 109.856 80.5162 109.856L77.8537 109.706L65.0287 109.031C65.0287 108.994 64.9912 109.031 64.9912 109.031L58.5412 108.694C58.0537 108.694 57.5287 108.694 57.0412 108.656C55.0162 108.581 53.0662 108.356 51.1162 107.944C51.0787 107.944 51.0787 107.944 51.0787 107.944C47.5162 107.269 44.1037 106.069 40.9162 104.456C39.1537 103.556 37.4287 102.544 35.8162 101.381C35.1412 100.894 34.5037 100.369 33.8662 99.8064C32.0662 98.3064 30.4537 96.6939 28.9537 95.0439C28.7287 94.8189 28.5412 94.5939 28.3537 94.3689C28.1287 94.1439 27.9037 93.8814 27.7162 93.6564C26.2912 91.8564 25.0912 90.0189 24.1162 88.0689C23.2162 86.3439 22.5037 84.5064 21.9412 82.4814C21.7162 81.7689 21.5287 81.0939 21.3787 80.3439C21.3412 80.3064 21.3037 80.2314 21.3037 80.1564C20.9287 78.6189 20.5912 77.0064 20.4037 75.3939C20.1787 74.1564 20.0662 72.9189 20.0662 71.6439C19.9912 71.1564 19.9912 70.6314 19.9912 70.1439L27.1537 59.0814L34.1662 48.2814L37.3537 43.3689L40.2412 38.9439L41.2162 37.4064V33.5439C41.2912 32.6814 41.3287 31.7814 41.2912 30.9564C41.2537 28.3314 40.7287 25.7814 39.8662 23.3439C39.0412 20.7564 37.8787 18.3189 36.6787 16.0689C35.2537 13.4814 33.7537 11.1564 32.5162 9.05645C30.6787 5.98145 29.4037 3.46895 29.7412 1.70645C32.4412 1.06895 35.2912 0.731445 38.1787 0.731445H98.1787C113.854 0.731445 127.354 10.4814 132.941 24.2064C133.541 25.6689 134.066 27.2064 134.441 28.7814Z" fill="#9855B8"/>
<path d="M135.678 38.2314V39.2439L130.503 42.2439L127.203 44.1564L123.565 46.2564L116.29 50.4939L109.165 54.6189L101.89 58.8189L99.0029 60.5064C99.0029 62.3064 98.5529 63.9564 97.7279 65.4564C96.5654 67.6314 94.6154 69.4314 92.1404 70.9689C89.6279 72.5064 86.5529 73.7439 83.1029 74.6439C83.1029 74.6439 83.1029 74.6064 83.0654 74.6439C69.7154 78.0939 51.4904 76.5189 42.6404 69.9189C40.1654 68.0814 38.4404 65.8314 37.6904 63.2439C37.4654 62.3814 37.3529 61.4439 37.3529 60.5064V33.5439C37.3904 32.9814 37.0154 32.4189 36.3404 31.8564C34.3154 30.2439 29.5529 28.7064 24.2279 27.1689C20.0654 26.0064 15.6029 24.8439 11.8529 23.7189C8.89043 22.8189 6.37793 21.9189 4.87793 21.0564C5.55293 19.7439 6.34043 18.4314 7.16543 17.1939C12.4154 9.50645 20.4404 3.84395 29.7404 1.70645C32.4404 1.06895 35.2904 0.731445 38.1779 0.731445H78.6779C98.8154 4.25645 117.378 12.4689 132.94 24.2064C133.54 25.6689 134.065 27.2064 134.44 28.7814C135.115 31.2564 135.528 33.8064 135.64 36.4689C135.678 37.0314 135.678 37.6314 135.678 38.2314Z" fill="#9855B8"/>
<path d="M135.677 38.2315V54.7691L134.852 57.3191L132.039 66.0566L129.114 75.0566L127.577 79.8566L126.152 84.3191L124.764 88.5566L123.414 92.7566L122.702 94.9691L121.764 97.8941C121.764 100.744 121.689 103.257 121.502 105.394C121.464 105.619 121.427 105.844 121.427 106.069C121.202 108.057 120.902 109.744 120.414 111.169C120.377 111.394 120.302 111.619 120.227 111.807C119.252 114.507 117.789 116.232 115.614 117.357C115.089 117.657 114.489 117.882 113.852 118.107C111.864 118.782 109.352 119.119 106.277 119.307C104.027 119.457 101.439 119.494 98.5144 119.494H95.9269L91.4644 119.307L90.6769 119.269L82.5394 118.932L74.2894 118.594L47.1019 117.469L40.0519 117.169H39.0769C36.1519 117.132 33.6394 116.944 31.4644 116.644C28.3144 116.157 25.8769 115.332 24.0394 114.094C21.4144 112.407 19.877 109.932 18.977 106.482C18.752 105.657 18.5644 104.794 18.4519 103.857C18.0769 101.682 17.8895 99.1691 17.777 96.3566C17.777 95.7941 17.777 95.2316 17.7395 94.6316C17.702 94.5941 17.7395 94.5941 17.7395 94.5941V92.4191C17.702 91.3316 17.702 90.2066 17.702 89.0441L17.8895 83.0066L18.002 78.6941L18.152 73.6691V72.9566L18.4144 63.7315L18.677 54.5066L18.9395 45.8441L19.1645 37.3315L19.2394 35.0815C19.2394 33.919 15.3019 33.244 10.9144 32.6815C7.42695 32.2315 3.60195 31.819 1.31445 31.294C1.50195 30.4315 1.68945 29.569 1.91445 28.744C2.58945 26.044 3.60195 23.494 4.87695 21.0565C5.55195 19.744 6.33945 18.4315 7.16445 17.194C15.2645 13.6315 23.7019 10.8565 32.5144 9.05654C40.2394 7.44404 48.3019 6.58154 56.6269 6.58154C84.2269 6.58154 109.727 15.919 129.902 31.669C131.852 33.169 133.764 34.7815 135.639 36.469C135.677 37.0315 135.677 37.6315 135.677 38.2315Z" fill="#9855B8"/>
<path d="M135.678 47.119V64.144L133.615 68.119L129.678 75.8065L127.578 79.8565L125.665 83.569L124.84 85.1815C124.84 86.344 124.84 87.469 124.765 88.5565C124.765 90.169 124.69 91.7065 124.578 93.1315C124.428 94.819 124.203 96.3565 123.978 97.7815C123.415 100.744 122.628 103.294 121.503 105.394C121.353 105.657 121.203 105.919 121.053 106.144C120.64 106.819 120.153 107.457 119.628 108.057C118.953 108.882 118.203 109.594 117.34 110.194C116.065 111.169 114.565 111.957 112.84 112.557C110.703 113.344 108.228 113.869 105.303 114.169C103.39 114.357 101.29 114.469 99.0027 114.469L97.4277 114.544L89.6277 114.994H89.5902L81.3027 115.482L72.8652 115.969L61.2402 116.644L47.1027 117.469L45.0402 117.582C43.1277 117.582 41.3277 117.469 39.6027 117.244C39.4152 117.207 39.2652 117.169 39.0777 117.169C36.5277 116.757 34.2027 116.082 32.1027 115.144C29.5527 114.019 27.3402 112.519 25.4652 110.719C23.8152 109.107 22.3902 107.269 21.2277 105.207C20.9652 104.719 20.7027 104.269 20.4777 103.744C19.3527 101.532 18.4527 99.0565 17.7777 96.3565C17.6652 95.9065 17.5527 95.419 17.4777 94.9315C17.2527 94.069 17.0652 93.169 16.9527 92.2315C16.5402 89.8315 16.3152 87.2815 16.2027 84.619V84.5815C16.1652 83.494 16.1277 82.444 16.1277 81.319L14.2902 76.9315L14.0277 76.2565L13.8027 75.694L10.9902 68.9815L10.5402 67.894L7.84023 61.4065L4.84023 54.169C4.84023 54.169 4.84023 54.169 4.80273 54.169L1.76523 46.8565L0.677734 44.194V38.2315C0.677734 35.869 0.902735 33.544 1.31523 31.294C1.50273 30.4315 1.69023 29.569 1.91523 28.744C5.10273 26.9065 8.44023 25.219 11.8527 23.719C19.6527 20.2315 28.0152 17.644 36.6777 16.069C43.1277 14.9065 49.8402 14.269 56.6277 14.269C84.0402 14.269 108.903 24.2065 128.328 40.4065C129.078 41.0065 129.79 41.6065 130.503 42.244C132.265 43.7815 133.99 45.394 135.678 47.119Z" fill="#9855B8"/>
<path d="M135.678 58.2937V77.5687L133.54 82.0312L129.49 90.4687L129.453 90.5812C129.453 92.1937 129.378 93.6562 129.265 94.9687C128.89 99.2812 127.84 102.019 126.115 103.706C124.878 104.981 123.34 105.694 121.428 106.069C121.315 106.106 121.165 106.106 121.053 106.144C120.453 106.256 119.815 106.331 119.14 106.331C116.815 106.556 114.078 106.406 110.928 106.181C110.59 106.181 110.215 106.144 109.84 106.106C107.553 105.956 105.115 105.806 102.415 105.694C100.953 105.656 99.4152 105.619 97.8402 105.619H97.7652L93.9777 105.919H93.9402L85.4277 106.519L75.7152 107.269L74.2902 107.381L62.9277 108.206L57.0402 108.656L51.2277 109.069C50.2152 109.069 49.2402 109.069 48.2652 109.031C48.2652 109.031 48.2277 108.994 48.2277 109.031C43.9902 108.956 40.2027 108.694 36.8277 108.056C33.7152 107.531 30.9777 106.706 28.6527 105.469C26.2527 104.306 24.2652 102.656 22.6527 100.556C21.1152 98.4937 19.9902 95.9062 19.2777 92.7937C19.2777 92.7562 19.2777 92.7562 19.2777 92.7562C18.7527 90.2437 18.4527 87.3187 18.4527 84.0187L17.8902 83.0062L14.5527 77.0437L14.0652 76.2187L13.8027 75.6937L10.3152 69.5062L8.59023 66.3937L6.41524 62.5312L2.66524 55.8187L0.677734 52.2937V38.4937C3.97773 36.3187 7.39023 34.4062 10.9152 32.6812C15.1902 30.5062 19.6152 28.6687 24.2277 27.1687C29.2527 25.5187 34.5027 24.2062 39.8652 23.3437C45.3027 22.4437 50.8902 21.9937 56.6277 21.9937C82.1277 21.9937 105.528 31.1062 123.565 46.2562C124.39 46.8937 125.178 47.6062 125.965 48.2812C129.115 51.0937 132.115 54.1312 134.853 57.3187C135.153 57.6562 135.453 57.9562 135.678 58.2937Z" fill="#9855B8"/>
<path d="M135.678 70.8937V98.0062C134.778 97.4812 133.54 96.8437 132.003 96.1687C131.178 95.7562 130.24 95.3437 129.265 94.9687C127.84 94.3312 126.303 93.7312 124.578 93.1312C124.203 92.9812 123.828 92.8687 123.415 92.7562C122.74 92.4937 122.028 92.2687 121.315 92.0437C119.103 91.3687 116.665 90.7312 114.115 90.1687C113.14 89.9812 112.128 89.7937 111.115 89.6437C107.853 89.0812 104.365 88.7437 100.728 88.7062C100.428 88.6687 100.09 88.6687 99.7902 88.6687L90.1527 88.7437L77.0277 88.8187H76.9902L48.9027 89.0437C39.9777 89.0437 34.5027 91.1812 31.2027 92.0437C31.2027 92.0437 31.1652 92.0437 31.1652 92.0812C27.6777 92.9812 26.5902 92.4187 26.2902 86.3062C26.2152 84.6187 26.1777 82.4437 26.1777 79.7812L24.0777 78.1687L20.4027 75.3937L18.1527 73.6687L17.7027 73.3312L11.4777 68.6062L10.5402 67.8937L8.59023 66.3937L4.99023 63.6937L0.677734 60.3937V47.6437C1.05273 47.3437 1.39023 47.0812 1.76523 46.8562C7.20273 43.1062 13.0152 39.9187 19.1652 37.3312C24.6402 35.0062 30.4152 33.1687 36.3402 31.8562C37.9527 31.5187 39.6027 31.1812 41.2902 30.9562C46.2777 30.0937 51.4152 29.6812 56.6277 29.6812C79.1652 29.6812 99.8652 37.5187 116.29 50.4937C118.765 52.4437 121.165 54.5062 123.415 56.7187C126.49 59.6437 129.378 62.7562 132.04 66.0562C132.565 66.7312 133.09 67.4062 133.615 68.1187C134.328 69.0187 135.003 69.9562 135.678 70.8937Z" fill="#9855B8"/>
<path d="M135.678 85.9312V98.2312C135.678 100.669 135.453 103.069 135.003 105.394C134.328 108.844 133.165 112.144 131.59 115.219C130.765 115.406 129.828 115.406 128.778 115.256C126.415 114.844 123.64 113.606 120.64 111.994C120.49 111.956 120.34 111.881 120.228 111.806C119.29 111.319 118.315 110.794 117.34 110.194C115.353 109.106 113.253 107.906 111.153 106.781C110.703 106.556 110.253 106.331 109.84 106.106C107.44 104.869 104.965 103.744 102.49 102.881C102.49 102.881 102.49 102.881 102.453 102.881C101.928 102.694 101.365 102.506 100.803 102.356C98.6652 101.756 96.4902 101.381 94.3902 101.381L90.2652 100.181L72.0027 94.8937C72.0027 94.8937 72.0027 94.8937 71.9652 94.8937L60.7527 91.6312H60.7152L55.8402 90.2062C41.7402 90.2062 33.0777 96.2062 28.8777 93.9187C27.2277 93.0562 26.2527 90.8812 25.9152 86.6062C25.8027 85.4062 25.7652 84.0562 25.7652 82.4812L21.3777 80.3437L21.1902 80.2687H21.1527L18.0027 78.6937L14.5527 77.0437L14.2902 76.9312L13.6527 76.5937L6.30273 73.0312L0.677734 70.2937V57.4313C1.31523 56.8688 1.99024 56.3437 2.66524 55.8187C3.37774 55.2562 4.09023 54.7312 4.80273 54.1687C4.84023 54.1687 4.84023 54.1687 4.84023 54.1687C9.26523 50.9812 13.9527 48.1688 18.9402 45.8438C24.7527 43.0688 30.9402 40.9313 37.3527 39.5438C38.2902 39.3188 39.2652 39.0938 40.2402 38.9438C45.5652 37.9313 51.0402 37.4062 56.6277 37.4062C76.3902 37.4062 94.5402 43.8188 109.165 54.6188C113.403 57.7688 117.34 61.2562 120.94 65.0437C123.903 68.1562 126.64 71.5312 129.115 75.0562C129.303 75.3187 129.49 75.5812 129.678 75.8062C131.065 77.8312 132.34 79.8937 133.54 82.0312C134.328 83.3062 135.003 84.6187 135.678 85.9312Z" fill="#9855B8"/>
<path d="M135.003 105.394C134.328 108.844 133.165 112.144 131.59 115.219C130.878 116.607 130.09 117.919 129.228 119.194C128.703 119.982 128.14 120.732 127.578 121.444C126.228 120.919 124.24 120.169 121.803 119.344C121.803 119.344 121.803 119.344 121.803 119.307C119.965 118.669 117.865 117.994 115.615 117.357C114.978 117.169 114.34 116.982 113.665 116.794C111.003 116.082 108.228 115.444 105.528 115.069C103.278 114.694 101.065 114.469 99.0027 114.469L97.2777 113.982H97.2402L88.1652 111.357L82.5777 109.744L76.3527 107.944H76.3152L74.2902 107.382L49.8027 100.332L42.7527 98.3067L37.5027 97.0692L28.9527 95.0442L27.9027 94.7817C27.9027 94.7817 27.9027 94.7817 27.8652 94.7817L19.2777 92.7942C19.2777 92.7567 19.2777 92.7567 19.2777 92.7567L17.7402 92.4192L16.9527 92.2317L10.6902 90.7692L9.97773 90.5817L4.65273 86.1942L0.677734 82.8567V67.5567C2.06523 66.2067 3.49023 64.9317 4.99023 63.6942C5.44023 63.2817 5.92774 62.9067 6.41524 62.5317C6.86524 62.1567 7.35273 61.7817 7.84023 61.4067C11.2527 58.8192 14.8527 56.4942 18.6777 54.5067C23.5527 51.8817 28.7277 49.7817 34.1652 48.2817C35.2152 47.9442 36.2652 47.6442 37.3527 47.4192C43.5027 45.8817 49.9527 45.0942 56.6277 45.0942C73.3902 45.0942 88.9902 50.1567 101.89 58.8192C108.303 63.1317 114.078 68.3067 118.953 74.1942C121.428 77.1567 123.678 80.2692 125.665 83.5692C125.853 83.8317 126.003 84.0567 126.153 84.3192C127.353 86.3067 128.478 88.3692 129.49 90.4692C130.428 92.3442 131.253 94.2192 132.003 96.1692C133.203 99.1692 134.178 102.244 135.003 105.394Z" fill="#9855B8"/>
<path d="M129.228 119.194C128.703 119.981 128.14 120.731 127.578 121.444C125.928 123.506 124.128 125.381 122.103 127.031C120.34 128.494 118.465 129.806 116.478 130.931C115.728 130.744 114.978 130.519 114.19 130.219C111.715 129.356 109.128 127.931 106.728 126.431C103.128 124.144 100.015 121.669 98.6277 120.544C98.1027 120.094 97.8402 119.869 97.8402 119.869L91.4652 119.306L90.6777 119.231L82.4277 118.519L73.8777 117.769L61.2402 116.644L41.2152 114.881L41.1402 114.844L34.0902 111.431L26.9652 107.981L21.2277 105.206L19.9902 104.606L18.4527 103.856L13.1277 101.269L6.04023 97.8563L3.82773 96.7688L0.677734 95.7938V79.0313C2.44023 76.9313 4.31523 74.9439 6.30273 73.0314C7.57773 71.8314 8.92773 70.6313 10.3152 69.5063C10.5402 69.3188 10.7652 69.1314 10.9902 68.9814C11.1402 68.7939 11.3277 68.6814 11.4777 68.6064C13.6902 66.8064 16.0152 65.1938 18.4152 63.7313C21.1902 61.9688 24.1152 60.3938 27.1527 59.0813C30.4152 57.6188 33.8277 56.3814 37.3527 55.4439C43.4652 53.7189 49.9527 52.8188 56.6277 52.8188C71.9277 52.8188 86.0652 57.4689 97.7277 65.4563C105.19 70.5563 111.64 77.0063 116.74 84.4688C118.428 86.8688 119.928 89.4188 121.315 92.0438C121.803 93.0188 122.29 93.9938 122.703 94.9688C123.153 95.9063 123.565 96.8438 123.978 97.7813C124.765 99.7313 125.478 101.681 126.115 103.706C127.315 107.456 128.215 111.281 128.778 115.256C128.965 116.569 129.115 117.881 129.228 119.194Z" fill="#9855B8"/>
<path d="M122.14 126.056C122.14 126.356 122.14 126.694 122.103 127.031C120.34 128.494 118.465 129.806 116.478 130.931C115.653 131.381 114.828 131.831 113.965 132.206C113.103 132.619 112.24 132.994 111.34 133.331C110.065 132.656 108.34 131.831 106.503 131.044C103.915 129.881 101.103 128.831 98.9277 128.494C98.4027 128.381 97.9152 128.344 97.4652 128.344L91.3152 127.556H91.2402L83.5902 126.544L75.8652 125.531L72.2652 125.081L43.9152 121.406C42.0777 121.406 40.1277 121.294 38.1027 121.031C35.6277 120.806 33.0402 120.431 30.4527 119.906C27.9027 119.456 25.3152 118.856 22.8402 118.219C20.2527 117.619 17.7027 116.906 15.3402 116.231C12.6027 115.406 10.0527 114.619 7.91523 113.906C6.15273 113.344 4.65273 112.819 3.49023 112.406C2.81523 110.794 2.25273 109.106 1.84023 107.381C1.05273 104.456 0.677734 101.381 0.677734 98.2313V91.9688C1.87773 89.9813 3.19023 88.0313 4.65273 86.1938C7.31523 82.6688 10.3527 79.4438 13.6527 76.5938C13.7652 76.4438 13.9152 76.3313 14.0277 76.2563L14.0652 76.2188C15.2277 75.1688 16.4277 74.2313 17.7027 73.3313C17.8527 73.1813 18.0027 73.0688 18.1527 72.9563C18.7527 72.5063 19.3902 72.0563 20.0652 71.6438C25.4277 68.0063 31.3527 65.1563 37.6902 63.2438C43.6902 61.4438 50.0277 60.5063 56.6277 60.5063C69.7152 60.5063 81.9402 64.3688 92.1402 70.9688C99.6777 75.8063 106.165 82.1813 111.115 89.6438C111.715 90.5063 112.278 91.3688 112.84 92.2688C115.428 96.6563 117.565 101.381 119.14 106.331C119.328 106.894 119.478 107.456 119.628 108.056C119.928 109.069 120.19 110.119 120.415 111.169C120.49 111.431 120.565 111.694 120.64 111.994C121.165 114.356 121.54 116.831 121.803 119.306C121.803 119.344 121.803 119.344 121.803 119.344C122.028 121.556 122.14 123.806 122.14 126.056Z" fill="#9855B8"/>
<path d="M114.414 126.056C114.414 127.369 114.339 128.794 114.189 130.219C114.114 130.894 114.039 131.569 113.964 132.206C113.101 132.619 112.239 132.994 111.339 133.331C109.651 133.969 107.926 134.494 106.164 134.869C104.964 135.131 103.726 135.356 102.489 135.469H102.451C101.289 134.756 99.9389 133.894 98.5514 132.919C96.0389 131.156 93.4139 129.169 91.3139 127.556C91.2764 127.519 91.2764 127.519 91.2389 127.481C89.0264 125.794 87.4514 124.519 87.4514 124.519L83.4764 124.669L75.8264 124.931L72.2639 125.081L57.9389 125.606L45.8264 126.056C45.0389 126.094 44.1014 126.094 42.9389 126.056H42.9014C41.3264 126.019 39.4514 125.906 37.3889 125.719C34.9889 125.531 32.3639 125.306 29.7014 125.044C27.1139 124.744 24.4889 124.444 21.9764 124.144C19.2014 123.844 16.5764 123.506 14.3264 123.206C12.5639 122.981 11.0264 122.794 9.78887 122.644C8.73887 121.444 7.80137 120.206 6.90137 118.856C5.55137 116.831 4.38887 114.694 3.48887 112.406C2.81387 110.794 2.25137 109.106 1.83887 107.381C2.92637 104.044 4.35137 100.894 6.03887 97.8564C7.38887 95.3814 8.96387 93.0189 10.6889 90.7689C12.3764 88.5564 14.2139 86.4939 16.2014 84.6189V84.5814C16.7639 84.0189 17.3264 83.4939 17.8889 83.0064C18.9389 82.0314 20.0264 81.1314 21.1514 80.2689H21.1889C21.2264 80.1939 21.2639 80.1939 21.3014 80.1564C22.2014 79.4439 23.1389 78.8064 24.0764 78.1689C29.6264 74.3814 35.8889 71.5689 42.6389 69.9189C47.1014 68.8314 51.7889 68.2314 56.6264 68.2314C66.1514 68.2314 75.1514 70.5189 83.0639 74.6439H83.1014C89.8889 78.1314 95.8889 82.9314 100.726 88.7064C103.389 91.7814 105.676 95.1564 107.551 98.7189C108.864 101.119 109.989 103.631 110.926 106.181C111.001 106.406 111.076 106.594 111.151 106.781C111.789 108.656 112.351 110.606 112.839 112.556C113.176 113.944 113.439 115.369 113.664 116.794C113.739 117.244 113.814 117.656 113.851 118.106C114.226 120.694 114.414 123.356 114.414 126.056Z" fill="#9855B8"/>
<path d="M106.728 126.057V126.432C106.728 127.707 106.616 129.319 106.503 131.044C106.391 132.319 106.278 133.632 106.166 134.869C104.966 135.132 103.728 135.357 102.491 135.469H102.453C101.028 135.657 99.6408 135.732 98.1783 135.732H91.6158L90.1908 135.319L82.8033 133.069L75.3033 130.819L57.9408 125.607L50.4408 123.357C50.4408 123.357 47.3283 124.594 42.9408 126.057H42.9033C41.2158 126.619 39.3783 127.219 37.4283 127.819C34.9908 128.532 32.4033 129.244 29.8533 129.807C27.2283 130.407 24.6408 130.857 22.3158 131.044C21.6033 131.119 20.8908 131.157 20.2533 131.157C18.1533 129.994 16.1283 128.607 14.2908 127.069C12.6783 125.719 11.1783 124.257 9.79082 122.644C8.74082 121.444 7.80332 120.207 6.90332 118.857C7.16582 117.169 7.46582 115.519 7.91582 113.907C9.04082 109.444 10.8033 105.169 13.1283 101.269C14.4033 99.0566 15.8283 96.919 17.4783 94.9315C17.5158 94.819 17.6283 94.7065 17.7408 94.6315C17.7033 94.594 17.7408 94.594 17.7408 94.594C18.2283 93.9565 18.7533 93.3565 19.2783 92.794C19.2783 92.7565 19.2783 92.7565 19.2783 92.7565C20.8158 91.1065 22.3908 89.5315 24.1158 88.069C24.7158 87.5815 25.2783 87.094 25.9158 86.6065C26.0283 86.494 26.1408 86.419 26.2908 86.3065C34.7283 79.8565 45.2658 75.9565 56.6283 75.9565C69.5283 75.9565 81.2658 80.794 90.1533 88.744C94.4283 92.6065 98.0658 97.219 100.803 102.357C101.028 102.732 101.253 103.144 101.441 103.557C101.778 104.232 102.116 104.944 102.416 105.694C103.653 108.394 104.628 111.244 105.303 114.169C105.378 114.469 105.453 114.769 105.528 115.069C105.828 116.457 106.091 117.882 106.278 119.307C106.578 121.519 106.728 123.769 106.728 126.057Z" fill="#9855B8"/>
<path d="M99.0033 126.057C99.0033 126.807 98.9658 127.632 98.9283 128.494C98.8533 129.882 98.7408 131.382 98.5533 132.919C98.4783 133.857 98.3283 134.794 98.1783 135.732H77.6283L73.6533 135.094L58.1283 132.619L55.9158 132.282L50.8533 131.457C48.6408 131.457 43.8408 132.432 38.7783 133.369C36.1158 133.857 33.4158 134.382 30.9783 134.719C30.6783 134.757 30.3783 134.794 30.1158 134.832H30.0783C27.4533 134.269 24.9033 133.407 22.5033 132.282C21.7533 131.944 21.0033 131.569 20.2533 131.157C18.1533 129.994 16.1283 128.607 14.2908 127.069C14.2533 126.619 14.2158 126.244 14.2158 126.057C14.2158 125.082 14.2533 124.144 14.3283 123.207C14.4783 120.807 14.8158 118.482 15.3408 116.232C16.1658 112.819 17.3658 109.519 18.9783 106.482C19.2783 105.844 19.6158 105.207 19.9908 104.607C20.1408 104.307 20.3283 104.044 20.4783 103.744C21.1533 102.657 21.9033 101.607 22.6533 100.557C24.2283 98.494 25.9908 96.544 27.8658 94.7815C27.9033 94.7815 27.9033 94.7815 27.9033 94.7815C28.0533 94.6315 28.2033 94.4815 28.3533 94.369C28.5408 94.219 28.6908 94.0315 28.8783 93.919C29.6283 93.244 30.3783 92.644 31.1658 92.0815C31.1658 92.044 31.2033 92.044 31.2033 92.044C38.2908 86.7565 47.0658 83.644 56.6283 83.644C64.0533 83.644 70.9533 85.519 76.9908 88.819H77.0283C82.2033 91.669 86.7033 95.5315 90.2658 100.182C91.6533 101.982 92.8908 103.894 93.9408 105.919H93.9783C94.1658 106.294 94.3533 106.669 94.5408 107.044C95.6658 109.257 96.5658 111.582 97.2408 113.982H97.2783C97.3158 114.169 97.3908 114.357 97.4283 114.544C97.8783 116.157 98.2533 117.807 98.5158 119.494C98.5533 119.832 98.5908 120.207 98.6283 120.544C98.8908 122.344 99.0033 124.182 99.0033 126.057Z" fill="#9855B8"/>
<path d="M91.3154 125.644C91.3154 126.244 91.3154 126.881 91.2404 127.481V127.519C91.2404 127.556 91.2404 127.556 91.2404 127.556C91.1654 130.256 90.7904 132.919 90.1904 135.319C90.1904 135.469 90.1529 135.581 90.0779 135.731H72.5654L58.1279 132.619L56.2154 132.206L55.9154 132.281L39.9029 135.581L39.1904 135.731H38.1779C35.7779 135.731 33.4154 135.506 31.1279 135.056C30.7904 134.981 30.4529 134.906 30.1154 134.831H30.0779C27.4529 134.269 24.9029 133.406 22.5029 132.281C22.4279 131.869 22.3529 131.456 22.3154 131.044C22.0529 129.431 21.9404 127.744 21.9404 126.056C21.9404 125.419 21.9404 124.781 21.9779 124.144C22.0904 122.119 22.3904 120.131 22.8404 118.219C23.1404 116.794 23.5529 115.406 24.0404 114.094C24.4529 112.931 24.9404 111.806 25.4654 110.719C25.9154 109.781 26.4404 108.881 26.9654 107.981C27.4904 107.119 28.0529 106.294 28.6529 105.469C30.1529 103.406 31.9154 101.494 33.8654 99.8061C34.9904 98.8311 36.2279 97.8937 37.5029 97.0687C42.9779 93.4687 49.5404 91.3687 56.6279 91.3687C58.0154 91.3687 59.3654 91.4437 60.6779 91.6312H60.7529C64.7654 92.0812 68.5154 93.2062 71.9654 94.8937C72.0029 94.8937 72.0029 94.8937 72.0029 94.8937C77.4404 97.5562 82.0529 101.569 85.4279 106.519C85.9904 107.344 86.5529 108.244 87.0404 109.144C87.4529 109.856 87.8279 110.606 88.1654 111.356C88.6904 112.519 89.1779 113.756 89.5904 114.994H89.6279C90.0404 116.381 90.4154 117.769 90.6779 119.231V119.269C91.0904 121.331 91.3154 123.469 91.3154 125.644Z" fill="#9855B8"/>
<path d="M83.5895 126.432V126.544C83.5895 128.757 83.327 130.932 82.802 133.069C82.6145 133.969 82.352 134.869 82.0145 135.732H65.2145L56.627 133.369L48.0395 135.732H38.177C35.777 135.732 33.4145 135.507 31.127 135.057C31.052 134.944 31.0145 134.832 30.977 134.719C30.452 133.107 30.0395 131.494 29.852 129.807C29.702 128.719 29.627 127.594 29.627 126.432C29.627 125.982 29.627 125.494 29.702 125.044C29.7395 123.282 30.002 121.557 30.452 119.907C30.677 118.782 31.0145 117.694 31.4645 116.644C31.6145 116.119 31.8395 115.632 32.102 115.144C32.6645 113.869 33.3395 112.632 34.0895 111.432C34.9145 110.232 35.8145 109.107 36.827 108.057C38.027 106.707 39.377 105.469 40.9145 104.457C43.5395 102.544 46.5395 101.119 49.802 100.332C51.977 99.7316 54.2645 99.4316 56.627 99.4316C64.127 99.4316 70.8395 102.432 75.7145 107.269C75.902 107.457 76.127 107.682 76.3145 107.944H76.352C76.877 108.507 77.3645 109.069 77.852 109.707C79.2395 111.469 80.402 113.382 81.302 115.482C81.752 116.457 82.127 117.469 82.427 118.519C82.4645 118.669 82.502 118.782 82.5395 118.932C83.0645 120.769 83.402 122.682 83.477 124.669C83.552 125.232 83.5895 125.832 83.5895 126.432Z" fill="#B374D1"/>
<path d="M75.9035 126.431C75.9035 127.969 75.716 129.431 75.3035 130.819C74.9285 132.319 74.366 133.744 73.6535 135.094C73.541 135.319 73.2785 135.731 73.2785 135.731H39.9785C39.941 135.694 39.9035 135.619 39.9035 135.581C39.4535 134.869 39.0785 134.156 38.7785 133.369C38.0285 131.644 37.5785 129.769 37.4285 127.819C37.3535 127.369 37.3535 126.881 37.3535 126.431C37.3535 126.206 37.3535 125.944 37.391 125.719C37.4285 124.069 37.6535 122.494 38.1035 121.031C38.4785 119.681 38.966 118.444 39.6035 117.244C39.6035 117.244 39.641 117.206 39.641 117.169C40.091 116.381 40.5785 115.594 41.141 114.844C42.9785 112.369 45.416 110.344 48.2285 109.031C48.266 109.031 48.266 109.031 48.266 109.031C49.166 108.581 50.1035 108.206 51.0785 107.944C51.0785 107.944 51.0785 107.944 51.116 107.944C52.841 107.419 54.716 107.156 56.6285 107.156C58.841 107.156 60.9785 107.494 62.9285 108.206C63.641 108.394 64.316 108.694 64.991 109.031C64.991 109.031 64.991 109.031 65.0285 109.031C68.2535 110.569 70.991 112.969 72.866 115.969C73.241 116.531 73.5785 117.131 73.8785 117.769C74.0285 118.031 74.1785 118.331 74.291 118.594C75.1535 120.544 75.6785 122.681 75.8285 124.931C75.866 125.119 75.866 125.306 75.866 125.531C75.9035 125.831 75.9035 126.131 75.9035 126.431Z" fill="#B374D1"/>
<path d="M90.6777 19.4814H45.6777C31.0527 19.4814 19.4277 31.1064 19.4277 45.7314V90.7314C19.4277 105.356 31.0527 116.981 45.6777 116.981H90.6777C105.303 116.981 116.928 105.356 116.928 90.7314V45.7314C116.928 31.1064 105.303 19.4814 90.6777 19.4814Z" stroke="white" stroke-width="2" stroke-miterlimit="10" stroke-linecap="round" stroke-linejoin="round"/>
<path d="M94.4277 41.9814C96.4988 41.9814 98.1777 40.3025 98.1777 38.2314C98.1777 36.1604 96.4988 34.4814 94.4277 34.4814C92.3567 34.4814 90.6777 36.1604 90.6777 38.2314C90.6777 40.3025 92.3567 41.9814 94.4277 41.9814Z" fill="white"/>
<path d="M68.1777 90.7314C80.6041 90.7314 90.6777 80.6579 90.6777 68.2314C90.6777 55.805 80.6041 45.7314 68.1777 45.7314C55.7513 45.7314 45.6777 55.805 45.6777 68.2314C45.6777 80.6579 55.7513 90.7314 68.1777 90.7314Z" stroke="white" stroke-width="2" stroke-miterlimit="10" stroke-linecap="round" stroke-linejoin="round"/>
</svg>
