<svg width="133" height="132" viewBox="0 0 133 132" fill="none" xmlns="http://www.w3.org/2000/svg">
<path d="M132.124 113.127C132.124 123.197 123.965 131.356 113.895 131.356H19.1032C9.03704 131.356 0.874023 123.197 0.874023 113.127V18.3356C0.874023 8.26582 9.03704 0.106445 19.1032 0.106445H113.895C123.965 0.106445 132.124 8.26582 132.124 18.3356V113.127Z" fill="#8A04B3" fill-opacity="0.5"/>
<path d="M22.749 47.5023H40.9782V109.481H22.749V47.5023ZM31.8089 40.2106H31.7068C26.2673 40.2106 22.749 36.1564 22.749 31.0924C22.749 25.9189 26.3766 21.9814 31.9146 21.9814C37.46 21.9814 40.8761 25.9189 40.9782 31.0924C40.9782 36.1528 37.46 40.2106 31.8089 40.2106ZM110.249 109.481H92.0199V76.308C92.0199 68.2945 87.5537 62.8257 80.3824 62.8257C74.91 62.8257 71.9495 66.5153 70.5131 70.0809C69.9881 71.357 70.1449 74.8861 70.1449 76.6689V109.481H51.9157V47.5023H70.1449V57.0398C72.7735 52.971 76.8897 47.5023 87.4188 47.5023C100.464 47.5023 110.245 55.7054 110.245 74.0221L110.249 109.481Z" fill="white"/>
</svg>
