<svg width="128" height="56" viewBox="0 0 128 56" fill="none" xmlns="http://www.w3.org/2000/svg">
<g filter="url(#filter0_d_77_477)">
<path d="M97.2645 47.708H7.22689C6.40657 47.7067 5.62009 47.2321 5.04004 46.3885C4.45998 45.5449 4.13374 44.4011 4.13281 43.208V5.20801C4.13374 4.01495 4.45998 2.87113 5.04004 2.02751C5.62009 1.18389 6.40657 0.70935 7.22689 0.708008H97.271C97.7988 0.708535 98.3178 0.905005 98.7788 1.27881L122.063 20.1777C122.543 20.5672 122.943 21.1357 123.222 21.8245C123.501 22.5134 123.648 23.2979 123.65 24.0972C123.651 24.8966 123.506 25.682 123.229 26.3726C122.952 27.0633 122.554 27.6343 122.075 28.0269L98.7842 47.1279C98.3202 47.5077 97.7969 47.7075 97.2645 47.708V47.708Z" fill="white"/>
</g>
<defs>
<filter id="filter0_d_77_477" x="0.132812" y="0.708008" width="127.517" height="55" filterUnits="userSpaceOnUse" color-interpolation-filters="sRGB">
<feFlood flood-opacity="0" result="BackgroundImageFix"/>
<feColorMatrix in="SourceAlpha" type="matrix" values="0 0 0 0 0 0 0 0 0 0 0 0 0 0 0 0 0 0 127 0" result="hardAlpha"/>
<feOffset dy="4"/>
<feGaussianBlur stdDeviation="2"/>
<feComposite in2="hardAlpha" operator="out"/>
<feColorMatrix type="matrix" values="0 0 0 0 0 0 0 0 0 0 0 0 0 0 0 0 0 0 0.25 0"/>
<feBlend mode="normal" in2="BackgroundImageFix" result="effect1_dropShadow_77_477"/>
<feBlend mode="normal" in="SourceGraphic" in2="effect1_dropShadow_77_477" result="shape"/>
</filter>
</defs>
</svg>
