<svg width="548" height="263" viewBox="0 0 548 263" fill="none" xmlns="http://www.w3.org/2000/svg">
<path d="M162.247 77.7483C169.007 122.308 150.247 162.118 150.247 162.118C150.247 162.118 120.477 129.678 113.717 85.1183C106.957 40.5583 125.767 0.748291 125.767 0.748291C125.767 0.748291 155.487 33.1883 162.247 77.7483Z" fill="#852747"/>
<path d="M214.985 211.834C237.579 221.388 250.687 241.445 250.687 241.445C250.687 241.445 227.161 246.016 204.567 236.463C181.972 226.91 168.868 206.843 168.868 206.843C168.868 206.843 192.394 202.272 214.985 211.834Z" fill="#852747"/>
<path d="M218.968 81.0283C196.138 106.118 191.308 138.908 191.308 138.908C191.308 138.908 223.488 131.008 246.308 105.908C269.128 80.8083 273.968 48.0283 273.968 48.0283C273.968 48.0283 241.798 55.9283 218.968 81.0283Z" fill="#852747"/>
<path d="M543.331 178.477L525.751 186.937L383.751 255.397L371.221 261.397C370.362 261.804 369.43 262.031 368.48 262.065C367.53 262.1 366.584 261.94 365.698 261.597C364.812 261.253 364.005 260.733 363.326 260.068C362.648 259.403 362.112 258.606 361.751 257.727C361.419 256.904 361.249 256.025 361.251 255.137V214.697C361.251 212.849 360.521 211.076 359.219 209.765C357.917 208.454 356.149 207.71 354.301 207.697H7.70117C5.85329 207.697 4.08034 206.967 2.76901 205.665C1.45769 204.363 0.714371 202.595 0.701172 200.747V143.647C0.701172 141.791 1.43865 140.01 2.7514 138.697C4.06416 137.385 5.84466 136.647 7.70117 136.647H354.301C356.14 136.634 357.901 135.898 359.201 134.597C360.502 133.297 361.238 131.536 361.251 129.697V88.3572C361.249 87.4697 361.419 86.5901 361.751 85.7672C362.114 84.8873 362.652 84.0905 363.332 83.4256C364.013 82.7607 364.822 82.2415 365.711 81.8999C366.599 81.5583 367.547 81.4014 368.498 81.4387C369.449 81.4761 370.383 81.7069 371.241 82.1172L383.751 88.2072L525.751 157.387L543.361 165.937C544.527 166.52 545.508 167.416 546.192 168.525C546.876 169.635 547.237 170.913 547.234 172.216C547.231 173.52 546.864 174.797 546.174 175.903C545.485 177.009 544.5 177.9 543.331 178.477Z" fill="#1C3041"/>
</svg>
