<svg width="499" height="766" viewBox="0 0 499 766" fill="none" xmlns="http://www.w3.org/2000/svg">
<g opacity="0.2">
<g opacity="0.2">
<g opacity="0.2">
<path opacity="0.2" d="M466.264 446.359H231.664V503.989H466.264V446.359Z" stroke="#F1B104" stroke-width="3" stroke-linecap="round" stroke-linejoin="round"/>
<path opacity="0.2" d="M466.264 513.749H231.664V724.349H466.264V513.749Z" stroke="#F1B104" stroke-width="3" stroke-linecap="round" stroke-linejoin="round"/>
<path opacity="0.2" d="M443.513 565.209H263.983V698.699H443.513V565.209Z" fill="#FFE6AA"/>
<path opacity="0.2" d="M438.734 560.429H259.204V693.919H438.734V560.429Z" stroke="#F1B104" stroke-width="3" stroke-linecap="round" stroke-linejoin="round"/>
<path opacity="0.2" d="M435.303 530.119H261.913C261.019 530.119 260.293 530.844 260.293 531.739V538.419C260.293 539.314 261.019 540.039 261.913 540.039H435.303C436.198 540.039 436.923 539.314 436.923 538.419V531.739C436.923 530.844 436.198 530.119 435.303 530.119Z" stroke="#F1B104" stroke-width="3" stroke-linecap="round" stroke-linejoin="round"/>
<path opacity="0.2" d="M345.724 560.429L259.974 646.179" stroke="#F1B104" stroke-width="3" stroke-linecap="round" stroke-linejoin="round"/>
<path opacity="0.2" d="M365.224 560.429L259.204 666.449" stroke="#F1B104" stroke-width="3" stroke-linecap="round" stroke-linejoin="round"/>
<path opacity="0.2" d="M403.933 560.429L270.443 693.919" stroke="#F1B104" stroke-width="3" stroke-linecap="round" stroke-linejoin="round"/>
<path opacity="0.2" d="M427.184 485.949C433.563 485.949 438.734 480.778 438.734 474.399C438.734 468.02 433.563 462.849 427.184 462.849C420.805 462.849 415.634 468.02 415.634 474.399C415.634 480.778 420.805 485.949 427.184 485.949Z" stroke="#F1B104" stroke-width="3" stroke-linecap="round" stroke-linejoin="round"/>
<path opacity="0.2" d="M427.184 467.379V462.849" stroke="#F1B104" stroke-width="3" stroke-linecap="round" stroke-linejoin="round"/>
<path opacity="0.2" d="M427.184 485.949V481.419" stroke="#F1B104" stroke-width="3" stroke-linecap="round" stroke-linejoin="round"/>
<path opacity="0.2" d="M420.164 473.919H415.634" stroke="#F1B104" stroke-width="3" stroke-linecap="round" stroke-linejoin="round"/>
<path opacity="0.2" d="M438.734 473.919H434.204" stroke="#F1B104" stroke-width="3" stroke-linecap="round" stroke-linejoin="round"/>
<path opacity="0.2" d="M427.184 470.349V474.399H430.764" stroke="#F1B104" stroke-width="3" stroke-linecap="round" stroke-linejoin="round"/>
<path opacity="0.2" d="M316.264 484.129C319.809 484.129 322.684 481.255 322.684 477.709C322.684 474.163 319.809 471.289 316.264 471.289C312.718 471.289 309.844 474.163 309.844 477.709C309.844 481.255 312.718 484.129 316.264 484.129Z" fill="white"/>
<path opacity="0.2" d="M340.633 484.129C344.179 484.129 347.053 481.255 347.053 477.709C347.053 474.163 344.179 471.289 340.633 471.289C337.088 471.289 334.213 474.163 334.213 477.709C334.213 481.255 337.088 484.129 340.633 484.129Z" fill="white"/>
<path opacity="0.2" d="M365.014 484.129C368.559 484.129 371.434 481.255 371.434 477.709C371.434 474.163 368.559 471.289 365.014 471.289C361.468 471.289 358.594 474.163 358.594 477.709C358.594 481.255 361.468 484.129 365.014 484.129Z" fill="white"/>
<path opacity="0.2" d="M389.383 484.129C392.929 484.129 395.803 481.255 395.803 477.709C395.803 474.163 392.929 471.289 389.383 471.289C385.838 471.289 382.963 474.163 382.963 477.709C382.963 481.255 385.838 484.129 389.383 484.129Z" fill="white"/>
<path opacity="0.2" d="M313.874 482.219C317.419 482.219 320.294 479.344 320.294 475.799C320.294 472.253 317.419 469.379 313.874 469.379C310.328 469.379 307.454 472.253 307.454 475.799C307.454 479.344 310.328 482.219 313.874 482.219Z" stroke="#F1B104" stroke-width="3" stroke-linecap="round" stroke-linejoin="round"/>
<path opacity="0.2" d="M338.244 482.219C341.789 482.219 344.664 479.344 344.664 475.799C344.664 472.253 341.789 469.379 338.244 469.379C334.698 469.379 331.824 472.253 331.824 475.799C331.824 479.344 334.698 482.219 338.244 482.219Z" stroke="#F1B104" stroke-width="3" stroke-linecap="round" stroke-linejoin="round"/>
<path opacity="0.2" d="M362.624 482.219C366.169 482.219 369.044 479.344 369.044 475.799C369.044 472.253 366.169 469.379 362.624 469.379C359.078 469.379 356.204 472.253 356.204 475.799C356.204 479.344 359.078 482.219 362.624 482.219Z" stroke="#F1B104" stroke-width="3" stroke-linecap="round" stroke-linejoin="round"/>
<path opacity="0.2" d="M386.994 482.219C390.539 482.219 393.414 479.344 393.414 475.799C393.414 472.253 390.539 469.379 386.994 469.379C383.448 469.379 380.574 472.253 380.574 475.799C380.574 479.344 383.448 482.219 386.994 482.219Z" stroke="#F1B104" stroke-width="3" stroke-linecap="round" stroke-linejoin="round"/>
</g>
</g>
<g opacity="0.2">
<path opacity="0.2" d="M305.924 271.599C306.88 270.688 308.096 270.097 309.404 269.909L330.774 267.179L335.774 262.609L362.354 291.379L334.234 317.379C324.704 326.179 311.004 327.379 303.514 319.829C299.564 315.829 298.084 310.239 298.874 304.529C299.815 298.487 302.814 292.955 307.364 288.869L311.884 284.699C313.074 283.599 312.974 281.859 311.694 281.369L305.834 279.099C305.453 278.923 305.113 278.671 304.834 278.359C303.244 276.709 303.654 273.699 305.924 271.599Z" stroke="#F1B104" stroke-width="3" stroke-linecap="round" stroke-linejoin="round"/>
<path opacity="0.2" d="M335.563 262.426L362.441 291.522C363.138 292.276 364.314 292.323 365.069 291.626L366.259 290.527C367.013 289.83 367.06 288.653 366.363 287.898L339.486 258.803C338.789 258.048 337.612 258.001 336.858 258.698L335.668 259.798C334.913 260.495 334.866 261.671 335.563 262.426Z" fill="#FFE6AA" stroke="#F1B104" stroke-width="3" stroke-linecap="round" stroke-linejoin="round"/>
<path opacity="0.2" d="M341.154 250.519C341.074 252.179 337.834 257.259 337.834 257.259C337.834 257.259 335.054 251.919 335.134 250.259C335.169 249.463 335.52 248.714 336.108 248.177C336.696 247.64 337.473 247.358 338.269 247.394C339.064 247.43 339.813 247.78 340.35 248.368C340.888 248.956 341.169 249.733 341.134 250.529L341.154 250.519Z" stroke="#F1B104" stroke-width="3" stroke-linecap="round" stroke-linejoin="round"/>
<path opacity="0.2" d="M302.874 246.869H385.144" stroke="#F1B104" stroke-width="3" stroke-linecap="round" stroke-linejoin="round"/>
</g>
<g opacity="0.2">
<path opacity="0.2" d="M461.273 314.329H454.693C452.327 314.345 450.051 313.422 448.364 311.764C446.677 310.105 445.717 307.845 445.693 305.479V303.559C445.693 302.406 445.921 301.264 446.363 300.199C446.57 299.706 446.825 299.233 447.123 298.789C447.565 297.72 447.793 296.575 447.793 295.419V294.169C447.772 291.801 446.812 289.539 445.125 287.878C443.438 286.217 441.161 285.293 438.793 285.309H437.513C435.145 285.293 432.868 286.217 431.181 287.878C429.494 289.539 428.534 291.801 428.513 294.169V295.419C428.513 296.575 428.741 297.72 429.183 298.789C429.481 299.233 429.735 299.706 429.943 300.199C430.385 301.264 430.613 302.406 430.613 303.559V305.479C430.613 310.359 426.613 315.759 421.613 315.759H415.023C408.803 315.759 403.753 319.289 403.753 325.409V400.929C403.779 403.892 404.981 406.724 407.095 408.802C409.208 410.879 412.06 412.033 415.023 412.009H461.333C464.288 412.02 467.127 410.86 469.229 408.784C471.332 406.708 472.527 403.884 472.553 400.929V325.409C472.54 323.941 472.238 322.489 471.664 321.138C471.09 319.787 470.255 318.561 469.208 317.533C468.16 316.504 466.92 315.691 465.559 315.142C464.198 314.592 462.741 314.316 461.273 314.329ZM438.153 297.719C437.66 297.711 437.18 297.557 436.774 297.277C436.368 296.998 436.054 296.604 435.871 296.146C435.688 295.688 435.645 295.186 435.747 294.703C435.849 294.221 436.091 293.779 436.443 293.434C436.795 293.089 437.241 292.855 437.726 292.763C438.21 292.671 438.711 292.724 439.166 292.916C439.62 293.108 440.007 293.43 440.279 293.841C440.551 294.253 440.695 294.736 440.693 295.229C440.685 295.895 440.413 296.532 439.937 296.998C439.461 297.465 438.82 297.724 438.153 297.719V297.719Z" fill="#FFE6AA"/>
<path opacity="0.2" d="M457.933 312.609H451.343C448.956 312.609 446.667 311.661 444.979 309.973C443.291 308.285 442.343 305.996 442.343 303.609V301.669C442.343 300.496 442.571 299.335 443.013 298.249C443.218 297.745 443.473 297.263 443.773 296.809C444.216 295.719 444.443 294.555 444.443 293.379V292.109C444.443 289.722 443.495 287.433 441.807 285.745C440.119 284.057 437.83 283.109 435.443 283.109H434.153C431.766 283.109 429.477 284.057 427.789 285.745C426.101 287.433 425.153 289.722 425.153 292.109V293.379C425.153 294.555 425.38 295.719 425.823 296.809C426.123 297.263 426.378 297.745 426.583 298.249C427.026 299.335 427.253 300.496 427.253 301.669V303.609C427.253 305.996 426.305 308.285 424.617 309.973C422.929 311.661 420.64 312.609 418.253 312.609H411.663C410.184 312.608 408.718 312.898 407.351 313.463C405.984 314.028 404.741 314.858 403.695 315.903C402.648 316.949 401.818 318.191 401.251 319.557C400.685 320.924 400.393 322.389 400.393 323.869V400.769C400.393 403.758 401.58 406.624 403.694 408.738C405.808 410.851 408.674 412.039 411.663 412.039H457.973C460.962 412.039 463.829 410.851 465.942 408.738C468.056 406.624 469.243 403.758 469.243 400.769V323.869C469.243 322.386 468.95 320.918 468.381 319.548C467.812 318.179 466.978 316.935 465.927 315.889C464.877 314.843 463.629 314.014 462.257 313.452C460.886 312.889 459.416 312.602 457.933 312.609V312.609ZM434.773 295.699C434.271 295.699 433.78 295.55 433.362 295.271C432.944 294.992 432.619 294.595 432.426 294.131C432.234 293.667 432.184 293.156 432.282 292.663C432.38 292.171 432.622 291.718 432.977 291.363C433.332 291.008 433.785 290.766 434.278 290.668C434.77 290.57 435.281 290.62 435.745 290.812C436.209 291.004 436.606 291.33 436.885 291.748C437.164 292.165 437.313 292.656 437.313 293.159C437.313 293.832 437.045 294.479 436.569 294.955C436.093 295.431 435.447 295.699 434.773 295.699V295.699Z" stroke="#F1B104" stroke-width="3" stroke-linecap="round" stroke-linejoin="round"/>
</g>
</g>
<g opacity="0.2">
<g opacity="0.2">
<path opacity="0.2" d="M254.163 185.869C271.185 185.869 284.983 172.07 284.983 155.049C284.983 138.027 271.185 124.229 254.163 124.229C237.142 124.229 223.343 138.027 223.343 155.049C223.343 172.07 237.142 185.869 254.163 185.869Z" stroke="#F1B104" stroke-width="3" stroke-linecap="round" stroke-linejoin="round"/>
<path opacity="0.2" d="M352.093 170.649H433.983C433.983 172.339 433.312 173.96 432.118 175.157C430.924 176.353 429.304 177.026 427.613 177.029H358.473C356.781 177.029 355.158 176.357 353.962 175.16C352.765 173.964 352.093 172.341 352.093 170.649V170.649Z" fill="#C6EFFF"/>
<path opacity="0.2" d="M344.553 184.819H441.553C441.553 186.821 440.758 188.742 439.342 190.158C437.926 191.573 436.006 192.369 434.003 192.369H352.153C350.151 192.369 348.23 191.573 346.815 190.158C345.399 188.742 344.603 186.821 344.603 184.819H344.553Z" fill="#C6EFFF"/>
<path opacity="0.2" d="M334.233 201.199H451.853C451.851 203.627 450.884 205.954 449.167 207.669C447.449 209.385 445.121 210.349 442.693 210.349H343.383C340.957 210.349 338.629 209.385 336.913 207.669C335.197 205.953 334.233 203.626 334.233 201.199V201.199Z" fill="#C6EFFF"/>
<path opacity="0.2" d="M340.793 164.049H445.293C445.553 164.051 445.803 164.143 446.002 164.311C446.2 164.478 446.333 164.71 446.378 164.966C446.423 165.221 446.378 165.485 446.249 165.71C446.12 165.935 445.916 166.108 445.673 166.199L434.593 170.199H351.493L340.413 166.199C340.17 166.108 339.966 165.935 339.837 165.71C339.708 165.485 339.663 165.221 339.708 164.966C339.753 164.71 339.886 164.478 340.085 164.311C340.283 164.143 340.534 164.051 340.793 164.049V164.049Z" stroke="#F4B404" stroke-width="3" stroke-linecap="round" stroke-linejoin="round"/>
<path opacity="0.2" d="M351.493 170.239H434.593C434.593 171.955 433.911 173.6 432.698 174.814C431.485 176.027 429.839 176.709 428.123 176.709H357.963C356.247 176.709 354.602 176.027 353.388 174.814C352.175 173.6 351.493 171.955 351.493 170.239V170.239Z" stroke="#F4B404" stroke-width="3" stroke-linecap="round" stroke-linejoin="round"/>
<path opacity="0.2" d="M331.153 176.779H454.913C455.221 176.779 455.519 176.887 455.754 177.085C455.99 177.283 456.149 177.557 456.202 177.86C456.256 178.163 456.201 178.475 456.048 178.742C455.895 179.009 455.652 179.213 455.363 179.319L442.243 184.109H343.843L330.713 179.319C330.425 179.213 330.183 179.01 330.03 178.744C329.876 178.479 329.821 178.168 329.873 177.865C329.926 177.563 330.082 177.288 330.316 177.09C330.55 176.891 330.847 176.781 331.153 176.779V176.779Z" stroke="#F4B404" stroke-width="3" stroke-linecap="round" stroke-linejoin="round"/>
<path opacity="0.2" d="M343.843 184.109H442.243C442.243 186.14 441.436 188.089 440 189.525C438.563 190.962 436.615 191.769 434.583 191.769H351.503C349.472 191.769 347.523 190.962 346.087 189.525C344.65 188.089 343.843 186.14 343.843 184.109V184.109Z" stroke="#F4B404" stroke-width="3" stroke-linecap="round" stroke-linejoin="round"/>
<path opacity="0.2" d="M317.993 191.839H468.093C468.465 191.84 468.826 191.972 469.111 192.211C469.396 192.451 469.588 192.783 469.653 193.149C469.719 193.516 469.653 193.894 469.469 194.217C469.284 194.541 468.992 194.789 468.643 194.919L452.723 200.719H333.363L317.443 194.929C317.087 194.804 316.787 194.556 316.597 194.23C316.407 193.904 316.338 193.522 316.404 193.15C316.471 192.779 316.667 192.443 316.958 192.202C317.249 191.962 317.616 191.833 317.993 191.839V191.839Z" stroke="#F4B404" stroke-width="3" stroke-linecap="round" stroke-linejoin="round"/>
<path opacity="0.2" d="M333.363 200.719H452.723C452.723 203.183 451.744 205.546 450.002 207.288C448.26 209.03 445.897 210.009 443.433 210.009H342.653C340.189 210.009 337.826 209.03 336.084 207.288C334.342 205.546 333.363 203.183 333.363 200.719V200.719Z" stroke="#F4B404" stroke-width="3" stroke-linecap="round" stroke-linejoin="round"/>
</g>
</g>
<path opacity="0.2" d="M156.527 588.75C152.665 588.75 149.534 585.619 149.534 581.757C149.534 577.895 152.665 574.764 156.527 574.764C160.389 574.764 163.52 577.895 163.52 581.757C163.52 585.619 160.389 588.75 156.527 588.75Z" stroke="#F1B104" stroke-width="3" stroke-linecap="round" stroke-linejoin="round"/>
<path opacity="0.2" d="M125.943 111.121C122.081 111.121 118.95 107.99 118.95 104.128C118.95 100.266 122.081 97.1351 125.943 97.1351C129.805 97.1351 132.936 100.266 132.936 104.128C132.936 107.99 129.805 111.121 125.943 111.121Z" stroke="#F1B104" stroke-width="3" stroke-linecap="round" stroke-linejoin="round"/>
<path d="M85.5552 42.762C73.8451 42.762 64.3522 33.2691 64.3522 21.559C64.3522 9.84888 73.8451 0.355957 85.5552 0.355957C97.2653 0.355957 106.758 9.84888 106.758 21.559C106.758 33.2691 97.2653 42.762 85.5552 42.762Z" fill="#3A193F"/>
<path d="M152.929 43.2595C148.715 38.9487 129.697 27.05 119.105 23.5487C110.123 20.6228 90.6263 18.9257 82.7459 36.6372C74.8655 54.3487 82.4435 69.5926 70.7399 80.1551C59.0363 90.7177 -2.63205 98.6859 23.6621 166.567C35.6875 197.601 162.223 159.74 166.583 125.702C169.421 103.592 138.055 94.4141 141.859 87.587C146.735 78.8483 169.353 60.0444 152.929 43.2595Z" fill="#3A193F"/>
<path d="M169.431 126.16C174.395 101.846 143.303 95.3601 144.366 87.0603C145.536 77.9119 167.773 59.0789 151.095 43.5618" stroke="#3A193F" stroke-width="3" stroke-linecap="round" stroke-linejoin="round"/>
<path d="M100.555 80.9548C100.555 80.9548 102.808 112.662 81.3809 122.269C81.3809 122.269 106.905 142.886 134.632 125.672C134.632 125.672 117.34 122.278 124.714 84.0466L100.555 80.9548Z" fill="#B57E6F"/>
<path d="M114.571 109.96C101.939 109.96 91.6998 100.917 91.6998 89.7618C91.6998 78.6065 101.939 69.5633 114.571 69.5633C127.202 69.5633 137.441 78.6065 137.441 89.7618C137.441 100.917 127.202 109.96 114.571 109.96Z" fill="#3A193F"/>
<path d="M96.5757 77.5218C96.0393 81.7253 104.661 98.5298 124.294 100.822C129.726 101.465 140.484 90.9029 142.005 80.2331C143.244 71.631 144.746 61.917 144.931 58.8643C144.984 54.578 143.558 50.4044 140.894 47.0468C138.229 43.6891 134.488 41.3527 130.302 40.4311C130.302 40.4311 130.302 40.4311 130.302 40.4311C126.02 39.6801 117.623 39.8556 114.141 51.2667C109.879 65.1452 100.321 65.5841 95.7565 64.8136C94.8983 63.8091 96.2539 75.0445 96.5757 77.5218Z" fill="#B57E6F"/>
<path d="M136.007 39.7874C136.007 39.7874 123.211 35.2035 118.393 50.8668C113.634 66.3643 104.739 63.0971 98.7021 61.8389" stroke="#3A193F" stroke-width="3" stroke-linecap="round" stroke-linejoin="round"/>
<path d="M93.4747 552.367V552.181C100.302 512.721 132.106 334.631 68.2924 325.443C56.4035 323.737 17.5767 337.605 21.5559 410.616C24.7744 469.33 42.681 512.311 45.6654 547.9C45.7435 577.159 33.3278 591.964 30.0021 617.146C25.3791 652.257 35.6491 710.307 42.9443 737.762C43.2174 740.531 43.2077 750.265 39.9502 755.034C36.6927 759.804 35.0737 760.106 35.6491 765.47H73.1884C73.0313 763.643 72.3438 761.902 71.2107 760.46C70.0775 759.019 68.548 757.94 66.8099 757.356C60.7338 755.327 53.263 741.087 54.804 735.002C63.9816 700.096 79.6156 625.768 81.654 614.542L93.4747 552.367Z" fill="#B57E6F"/>
<path d="M39.5307 755.541C36.3415 758.721 35.0931 761.11 35.7075 765.509H73.2469C73.2469 765.509 74.9049 758.975 64.4691 754.595C60.8313 753.074 42.9736 752.089 39.5307 755.541Z" fill="#5A1212"/>
<path d="M134.798 549.86C137.832 578.983 126.996 594.9 126.235 620.287C125.26 653.905 140.65 706.113 151.232 733.568V733.626C152.627 737.274 152.354 744.628 150.813 748.549C148.14 755.376 145.936 765.509 155.289 765.509H206.785C206.785 765.509 207.975 758.838 194.321 756.956C181.145 755.142 164.087 747.641 164.223 734.787C169.334 700.144 176.473 624.227 177.36 612.709C178.394 599.327 181.603 563.885 182.549 552.591C182.554 552.575 182.554 552.558 182.549 552.542C186.333 517.568 206.122 330.973 144.181 325.57C132.204 324.536 94.2356 340.59 102.565 413.25C108.894 468.403 127.454 508.829 133.774 542.916C134.135 545.423 134.584 547.773 134.798 549.86Z" fill="#B57E6F"/>
<path d="M150.842 748.549C150.842 748.549 143.039 765.509 154.363 765.509H206.785C206.785 765.509 208.892 759.092 195.277 756.956C193.385 756.663 187.962 755.649 187.962 755.649C187.962 755.649 189.649 760.389 177.663 759.872C165.676 759.355 160.283 749.378 150.842 748.549Z" fill="#5A1212"/>
<path d="M147.994 272.914C148.638 253.261 152.734 233.999 155.104 232.429C162.468 227.552 166.983 218.141 166.389 205.442C189.133 202.058 202.923 185.936 202.923 185.936C202.923 185.936 186.002 156.326 176.805 145.715C168.222 135.835 152.247 130.11 141.07 127.057L134.633 125.682C108.875 141.677 84.1999 124.639 80.8937 122.132L64.3135 128.618C56.5892 131.729 46.7581 136.293 40.7112 143.296C31.5141 153.898 14.5927 183.518 14.5927 183.518C14.5927 183.518 33.2697 202.692 58.4813 204.808C64.3331 228.859 69.2973 266.847 67.4345 273.079" fill="#8BB0E8"/>
<path d="M34.2557 331.44C9.43387 364.607 11.7598 470.048 40.8749 475.593C103.201 487.506 165.03 483.788 183.569 474.555C196.182 468.264 207.544 375.802 161.869 331.44C146.571 316.577 145.223 281.181 146.508 271.72C146.767 266.891 141.525 266.439 141.525 266.439C143.22 278.011 149.836 269.663 142.777 266.891C141.275 266.301 130.754 265.961 130.754 265.961L71.448 265.975L71.3323 265.975C71.448 265.975 71.448 265.975 71.448 265.975L71.3323 265.975C63.4707 285.279 53.2151 304.185 40.655 322.527C40.655 322.527 44.8244 316.288 39.3375 323.274C35.3666 329.948 38.3297 324.958 37.6462 324.958C38.6171 324.958 39.0696 323.849 35.3666 329.948L34.2557 331.44Z" fill="#00080B"/>
<path d="M223.365 268.642C224.516 272.621 223.19 278.619 218.108 285.846C200.251 311.204 155.309 364.007 141.147 365.509C134.213 366.25 172.025 295.482 200.036 271.178C194.35 262.741 180.53 232.283 166.447 205.335C179.828 203.96 190.341 196.323 197.081 191.31C197.081 191.31 216.918 233.833 223.365 268.642Z" fill="#B57E6F"/>
<path d="M59.3586 384.498C70.633 389.608 32.967 292.634 26.7836 282.208C34.3714 265.511 47.9476 232.029 58.2273 204.769C44.9242 203.599 33.4546 197.679 25.6229 192.383C25.6229 192.383 -0.0859555 248.209 0.0798457 284.139C0.0798457 295.56 39.3551 375.437 59.3586 384.498Z" fill="#B57E6F"/>
<path d="M23.0579 198.791C28.7634 204.73 42.2519 210.797 54.3261 215.088C55.9256 211.567 57.408 208.134 58.7734 204.818H58.2273C44.9242 203.648 33.4546 197.728 25.623 192.432C24.7842 194.415 23.9292 196.535 23.0579 198.791Z" fill="#3A193F"/>
<path d="M134.106 451.308L73.7415 390.944C73.0406 390.241 72.647 389.289 72.647 388.297C72.647 387.305 73.0406 386.353 73.7415 385.65L115.945 343.446C116.648 342.745 117.6 342.352 118.592 342.352C119.584 342.352 120.536 342.745 121.239 343.446L181.603 403.811C182.304 404.513 182.698 405.465 182.698 406.458C182.698 407.45 182.304 408.402 181.603 409.104L139.399 451.308C138.697 452.009 137.745 452.403 136.753 452.403C135.76 452.403 134.809 452.009 134.106 451.308V451.308Z" fill="white"/>
<path d="M50.2539 370.736C48.7592 372.183 57.7777 386.615 61.9046 390.71C66.0314 394.805 75.1892 398.55 76.8961 398.845C78.6031 399.141 85.9209 398.078 85.9209 398.078C85.9209 398.078 87.0223 395.023 81.9766 394.171C76.9309 393.319 71.4291 386.685 71.4786 384.486C71.6004 379.525 75.7487 389.079 77.7652 389.359C79.7817 389.639 80.4293 388.701 80.4293 388.701C80.4293 388.701 75.156 380.277 74.2628 378.977C73.3697 377.677 67.1832 373.844 63.4627 372.236C59.7423 370.629 52.4063 368.572 50.2539 370.736Z" fill="#B57E6F"/>
<path d="M238.361 377.914L177.996 317.549C177.295 316.847 176.902 315.895 176.902 314.902C176.902 313.91 177.295 312.958 177.996 312.256L220.2 270.052C220.903 269.351 221.855 268.957 222.847 268.957C223.839 268.957 224.791 269.351 225.494 270.052L285.858 330.416C286.559 331.119 286.953 332.071 286.953 333.063C286.953 334.055 286.559 335.007 285.858 335.71L243.654 377.914C242.952 378.614 242 379.008 241.008 379.008C240.015 379.008 239.063 378.614 238.361 377.914V377.914Z" fill="white"/>
<path d="M105.504 380.889L137.966 369.131C139.263 368.662 140.695 369.332 141.164 370.628L142.36 373.93C142.829 375.226 142.159 376.658 140.863 377.127L108.401 388.885C107.104 389.355 105.672 388.684 105.203 387.388L104.007 384.086C103.538 382.79 104.208 381.358 105.504 380.889Z" fill="#41465A"/>
<path d="M144.697 355.912C141.001 355.687 124.489 363.558 123.786 365.577C123.084 367.596 113.79 378.851 113.79 378.851C113.79 378.851 116.199 381.318 120.207 377.232C124.869 372.492 126.829 372.667 126.829 372.667C126.829 372.667 128.429 376.042 130.887 375.798C133.344 375.554 132.496 378.783 136.407 379.026C138.699 379.163 139.986 380.626 141.937 379.553C143.887 378.48 149.876 364.758 148.939 360.164C148.159 356.273 146.891 356.039 144.697 355.912Z" fill="#B57E6F"/>
<path d="M142.795 61.8389C142.795 61.8389 141.098 58.4448 135.159 60.1419" stroke="#3A193F" stroke-width="3" stroke-linecap="round" stroke-linejoin="round"/>
<path d="M123.29 69.4658C123.29 69.4658 117.194 68.8903 113.966 66.0815" stroke="#3A193F" stroke-width="3" stroke-linecap="round" stroke-linejoin="round"/>
<path d="M126.684 87.2748C126.684 87.2748 123.29 88.1233 119.047 83.8807" stroke="#3A193F" stroke-width="2" stroke-linecap="round" stroke-linejoin="round"/>
<path d="M130.078 69.4658L131.775 77.1024L128.888 80.5452" stroke="#9E2923" stroke-width="2" stroke-linecap="round" stroke-linejoin="round"/>
<path d="M90.9355 69.4133C88.8214 65.2371 90.493 60.1378 94.6692 58.0237C98.8453 55.9096 103.945 57.5812 106.059 61.7574C108.173 65.9336 106.501 71.0329 102.325 73.147C98.1489 75.2611 93.0496 73.5895 90.9355 69.4133Z" fill="#B57E6F"/>
<path d="M141.099 71.1628C141.099 71.1628 138.699 72.3722 133.959 70.4996" stroke="#3A193F" stroke-width="3" stroke-linecap="round" stroke-linejoin="round"/>
<path d="M125.835 60.1419C125.835 60.1419 122.441 55.6263 113.966 58.7375" stroke="#3A193F" stroke-width="3" stroke-linecap="round" stroke-linejoin="round"/>
<path d="M373.522 233.649C381.768 233.649 388.452 226.964 388.452 218.719C388.452 210.473 381.768 203.789 373.522 203.789C365.277 203.789 358.592 210.473 358.592 218.719C358.592 226.964 365.277 233.649 373.522 233.649Z" fill="#41465A"/>
<path d="M329.173 228.629C337.418 228.629 344.103 221.944 344.103 213.699C344.103 205.453 337.418 198.769 329.173 198.769C320.927 198.769 314.243 205.453 314.243 213.699C314.243 221.944 320.927 228.629 329.173 228.629Z" fill="#41465A"/>
<path d="M309.563 496.869L281.633 757.869C281.589 758.277 281.632 758.689 281.759 759.079C281.885 759.469 282.092 759.829 282.367 760.133C282.641 760.438 282.977 760.682 283.352 760.848C283.727 761.014 284.133 761.1 284.543 761.099V761.099C285.222 761.099 285.88 760.863 286.404 760.43C286.928 759.998 287.285 759.396 287.413 758.729L332.803 496.919L309.563 496.869Z" fill="white" stroke="#729FB8" stroke-opacity="0.62" stroke-width="3" stroke-miterlimit="10"/>
<path d="M416.633 496.869L444.563 752.789C444.605 753.196 444.561 753.608 444.433 753.998C444.306 754.387 444.099 754.746 443.825 755.05C443.551 755.354 443.216 755.598 442.841 755.765C442.467 755.932 442.062 756.018 441.653 756.019V756.019C440.973 756.019 440.315 755.783 439.791 755.35C439.267 754.918 438.911 754.316 438.783 753.649L393.393 496.869H416.633Z" fill="white" stroke="#729FB8" stroke-opacity="0.62" stroke-width="3" stroke-miterlimit="10"/>
<path d="M430.283 480.849H293.703C289.975 480.849 286.953 483.871 286.953 487.599V490.119C286.953 493.847 289.975 496.869 293.703 496.869H430.283C434.011 496.869 437.033 493.847 437.033 490.119V487.599C437.033 483.871 434.011 480.849 430.283 480.849Z" fill="white" stroke="#729FB8" stroke-opacity="0.62" stroke-width="3" stroke-miterlimit="10"/>
<path d="M444.943 476.369C444.143 482.109 406.943 479.009 326.373 479.959C326.219 479.995 326.061 480.011 325.903 480.009C310.903 480.009 298.663 457.159 298.303 397.669C297.943 338.179 319.733 335.059 327.353 335.379C349.873 336.309 351.453 368.859 351.453 398.179C351.446 411.99 349.808 425.752 346.573 439.179C361.963 445.009 364.153 436.999 390.983 443.349C420.033 450.269 445.593 471.809 444.943 476.369Z" fill="#3A193F"/>
<path d="M479.083 470.609C482.253 472.079 487.133 470.379 489.963 470.339C496.643 470.229 498.023 474.039 498.023 474.039L482.153 509.289C482.153 509.289 476.153 507.569 477.323 497.129C478.553 486.229 479.093 481.529 473.113 479.759C467.133 477.989 473.833 468.189 479.083 470.609Z" fill="#5F1A1A"/>
<path d="M473.153 479.609C456.153 480.519 421.523 479.309 367.153 479.959C366.999 479.995 366.841 480.011 366.683 480.009C342.493 480.009 339.443 457.159 339.083 397.669C338.723 338.179 360.513 335.059 368.133 335.379C390.643 336.309 392.223 368.859 392.223 398.179C392.221 412.575 390.448 426.916 386.943 440.879C400.183 444.879 404.943 437.029 431.763 443.379C460.763 450.269 477.663 466.169 479.683 472.379C480.243 474.139 481.313 479.169 473.153 479.609Z" fill="#DB9A8F"/>
<path d="M392.153 398.179C392.147 410.351 390.877 422.489 388.363 434.399C372.282 435.848 356.108 435.929 340.013 434.639C339.343 424.339 339.093 412.079 339.013 397.639C338.653 338.139 360.453 335.029 368.073 335.349C390.613 336.319 392.153 368.859 392.153 398.179Z" fill="#3A193F"/>
<path d="M285.953 303.669C308.113 288.169 332.503 262.669 334.773 252.749C337.523 240.749 329.943 227.169 320.773 235.019C307.303 246.469 286.383 267.019 276.923 279.259C263.053 265.609 233.123 238.159 223.993 243.859C220.133 246.279 261.683 297.859 269.523 304.519C274.003 308.359 281.933 306.479 285.953 303.669Z" fill="#DB9A8F"/>
<path d="M225.913 257.929C227.203 258.019 231.673 256.009 232.443 252.139C233.533 246.729 238.073 247.559 232.963 244.659C228.253 241.999 214.823 241.939 211.783 242.889C208.91 244.082 206.365 245.948 204.363 248.329C203.993 249.069 201.653 254.539 201.653 254.539C201.653 254.539 206.723 258.179 209.653 255.369C210.879 254.201 212.343 253.312 213.945 252.763C215.547 252.214 217.249 252.018 218.933 252.189C220.531 252.385 221.996 253.178 223.033 254.409L225.913 257.929Z" fill="#DB9A8F"/>
<path d="M365.613 230.689C372.173 232.589 380.163 235.889 385.503 274.599C390.843 313.309 417.313 419.449 417.763 422.119C418.213 424.789 312.053 432.439 277.343 409.749C277.343 409.749 308.573 258.419 319.283 237.879C322.093 232.479 330.943 230.219 339.033 229.549C347.123 228.879 355.733 227.829 365.613 230.689Z" fill="#EBF4F7"/>
<path d="M358.463 212.009C358.463 212.009 356.153 221.929 365.613 230.689C365.613 230.689 343.453 241.689 328.793 231.609C328.793 231.609 336.793 222.789 335.893 212.009H358.463Z" fill="#DB9A8F"/>
<path d="M359.883 222.799C353.163 227.689 342.573 232.799 331.613 227.689C333.803 224.109 336.403 218.409 335.893 211.999H358.463C357.853 215.66 358.347 219.42 359.883 222.799V222.799Z" fill="#3A193F"/>
<path d="M368.884 213.029C368.884 213.029 345.334 236.169 328.744 217.709C314.604 201.929 335.094 164.979 356.154 174.169C373.604 181.779 368.884 213.029 368.884 213.029Z" fill="#DB9A8F"/>
<path d="M350.873 176.519C350.873 176.519 351.124 197.679 369.014 205.299L368.414 216.749C368.414 216.749 385.554 216.499 387.554 202.519C390.674 180.819 380.354 167.159 366.374 164.339C352.394 161.519 328.614 161.829 325.704 177.869C325.074 181.329 326.144 193.149 326.144 193.149C326.144 193.149 332.933 172.719 350.873 176.519Z" fill="#41465A"/>
<path d="M350.874 175.509C350.874 175.509 343.614 196.169 362.474 203.789" stroke="#41465A" stroke-width="3" stroke-miterlimit="10"/>
<path d="M367.934 213.429C367.934 213.429 376.994 212.569 376.124 208.429C375.254 204.289 368.534 205.339 368.534 205.339L367.934 213.429Z" fill="#DB9A8F"/>
<path d="M376.804 250.069C378.624 237.879 364.234 234.669 356.434 245.659C349.164 255.919 334.434 302.249 334.434 302.249C328.764 305.249 269.054 345.129 271.054 351.519C272.164 355.069 317.853 339.839 345.903 323.179C351.443 319.619 372.064 281.799 376.804 250.069Z" fill="#DB9A8F"/>
<path d="M277.714 351.859C275.404 352.859 260.834 359.019 257.654 358.859C254.474 358.699 248.164 354.379 247.654 353.749C247.144 353.119 244.833 349.609 244.833 349.609C244.833 349.609 247.283 347.109 249.513 349.609C252.163 352.609 256.914 351.869 259.424 350.859C260.424 350.439 262.054 348.859 261.244 347.569C260.434 346.279 256.373 347.739 255.123 347.449C254.533 347.273 253.994 346.955 253.555 346.523C253.115 346.09 252.789 345.557 252.604 344.969L260.263 342.489C261.493 342.089 270.333 342.489 275.373 344.709C280.413 346.929 283.074 349.439 277.714 351.859Z" fill="#DB9A8F"/>
<path d="M334.591 193.639C335.079 192.336 334.6 190.951 333.519 190.546C332.438 190.14 331.166 190.868 330.677 192.171C330.188 193.474 330.668 194.859 331.749 195.264C332.83 195.67 334.102 194.942 334.591 193.639Z" fill="#242854"/>
<path d="M348.388 198.234C348.876 196.931 348.397 195.546 347.316 195.141C346.235 194.735 344.963 195.463 344.474 196.766C343.985 198.069 344.465 199.454 345.546 199.86C346.627 200.265 347.899 199.537 348.388 198.234Z" fill="#242854"/>
<path d="M339.922 192.909L333.322 199.989L336.032 205.169" stroke="#E2564B" stroke-width="3" stroke-linecap="round" stroke-linejoin="round"/>
<path d="M346.763 188.709C346.763 188.709 350.063 188.269 353.403 191.619" stroke="#41465A" stroke-width="3" stroke-linecap="round" stroke-linejoin="round"/>
<path d="M334.993 210.029C336.805 210.705 338.77 210.867 340.669 210.496C342.568 210.126 344.327 209.237 345.753 207.929" stroke="#41465A" stroke-width="3" stroke-linecap="round" stroke-linejoin="round"/>
<path d="M370.552 172.189C363.882 172.659 358.042 166.999 358.042 166.999C358.042 166.999 363.042 160.579 369.692 160.109C376.342 159.639 382.202 165.289 382.202 165.289C382.202 165.289 377.222 171.709 370.552 172.189Z" fill="#610F0F"/>
<path d="M346.512 159.039C349.712 164.909 357.622 166.769 357.622 166.769C357.622 166.769 360.342 159.109 357.142 153.239C353.942 147.369 346.032 145.509 346.032 145.509C346.032 145.509 343.312 153.159 346.512 159.039Z" fill="#610F0F"/>
<path d="M359.778 169.216C361.533 168.614 362.469 166.704 361.868 164.948C361.266 163.193 359.356 162.257 357.6 162.858C355.845 163.46 354.909 165.37 355.51 167.126C356.112 168.881 358.022 169.817 359.778 169.216Z" fill="#5F0707"/>
<path d="M357.493 168.109C357.493 168.109 373.563 180.929 372.063 199.039C373.173 199.149 374.292 199.149 375.403 199.039C375.403 199.039 380.753 183.319 366.403 170.529" fill="#610F0F"/>
<path d="M170.247 212.758C182.185 208.742 193.812 201.412 199.294 194.685C198.872 193.872 197.999 191.282 197.577 190.489C190.649 195.639 179.916 202.537 166.101 204.886L170.247 212.758Z" fill="#3A193F"/>
</svg>
